EBGaramond08-Regular.sfdir

StartChar: exclam
Encoding: 33 33 3
Width: 207
VWidth: 982
Flags: HW
HStem: -2 117<56.3166 138.871> 583 20G<96 123.5>
VStem: 42 113<14.0145 101.235> 56 100<313.349 590.845> 79 61<257.943 502.228>
LayerCount: 2
Fore
SplineSet
111 603 m 0xd0
 136 603 156 590 156 558 c 0xd0
 156 474 147 375 140 341 c 0
 128 278 116 240 103 240 c 0
 93 240 83 252 79 278 c 0xc8
 74 314 56 471 56 548 c 0
 56 577 81 603 111 603 c 0xd0
97 115 m 0
 126 115 155 94 155 65 c 0
 155 31 130 -2 96 -2 c 0
 67 -2 42 21 42 50 c 0xe0
 42 83 64 115 97 115 c 0
EndSplineSet
Substitution2: "sups subtable" exclam.sups
Substitution2: "sinf subtable" exclam.sinf
Substitution2: "ordn subtable" exclam.ordn
Substitution2: "subs subtable" exclam.subs
EndChar
StartChar: ampersand
Encoding: 38 38 8
Width: 783
VWidth: 982
Flags: HW
HStem: -12 87<191.987 305.118> -4 47<645.179 744.16> 380 37<522.105 562.992 646.853 708.682> 586 47<230.383 325.857>
VStem: 42 89<145.699 262.576> 138 80<507.057 570.562> 339 80<498.851 572.545>
LayerCount: 2
Fore
SplineSet
671 -4 m 0x7e
 609 -4 552 2 514 54 c 1
 514 54 483 103 448 150 c 1
 382 77 l 2
 339 29 294 -12 230 -12 c 0xbe
 122 -12 42 72 42 195 c 0
 42 236 74 293 123 330 c 2
 212 397 l 1
 195 412 l 2
 160 442 138 484 138 524 c 0
 138 598 218 633 292 633 c 0
 351 633 419 611 419 552 c 0
 419 518 399 498 374 477 c 2
 319 431 l 1
 326 425 l 2
 387 372 420 334 471 273 c 0
 475 268 479 264 483 259 c 1
 549 334 l 2
 560 347 563 355 563 362 c 0
 563 372 552 379 546 380 c 0
 531 383 522 387 522 397 c 0
 522 407 531 417 547 417 c 0
 562 417 611 417 626 417 c 0
 641 417 671 423 686 423 c 0
 702 423 710 413 710 403 c 0
 710 393 691 385 676 380 c 0
 665 376 627 351 602 323 c 2
 512 223 l 1
 561 162 612 96 612 96 c 2
 650 49 674 48 731 43 c 0
 742 42 748 34 748 26 c 0
 748 8 701 -4 671 -4 c 0x7e
244 369 m 1
 151 291 l 2
 136 278 131 261 131 239 c 0
 131 160 178 75 250 75 c 0
 313 75 354 113 396 161 c 2
 419 187 l 1
 417 190 414 192 412 195 c 0
 354 261 316 303 253 361 c 1
 244 369 l 1
291 455 m 1
 308 468 l 2
 321 478 339 507 339 526 c 0
 339 563 312 586 278 586 c 0
 258 586 218 564 218 542 c 0
 218 528 263 479 273 471 c 2
 291 455 l 1
EndSplineSet
Substitution2: "sups subtable" ampersand.sups
Substitution2: "sinf subtable" ampersand.sinf
Substitution2: "ordn subtable" ampersand.ordn
Substitution2: "subs subtable" ampersand.subs
EndChar

StartChar: quotesingle
Encoding: 39 39 9
Width: 178
Flags: W
HStem: 444 232<70.2416 79.4949>
VStem: 55 83<553.576 658.955>
LayerCount: 2
Fore
SplineSet
52 620 m 0
 52 634 63 648 71 655 c 0
 87 668 108 676 124 676 c 0
 134 676 138 661 138 644 c 0
 138 592 97 505 81 469 c 0
 76 457 67 444 62 444 c 0
 57 444 55 458 55 467 c 0
 56 488 56 506 56 524 c 0
 56 560 52 619 52 620 c 0
EndSplineSet
Validated: 1
EndChar

StartChar: comma
Encoding: 44 44 14
Width: 250
VWidth: 982
Flags: W
HStem: -174 289<68 134>
VStem: 134 77<-69.9325 35>
LayerCount: 2
Fore
SplineSet
97 115 m 0
 159 115 211 65 211 5 c 0
 211 -61 134 -174 75 -174 c 0
 66 -174 61 -169 61 -161 c 0
 61 -144 134 -99 134 -50 c 0
 134 -13 106 -2 80 13 c 0
 58 25 41 40 41 63 c 0
 41 94 68 115 97 115 c 0
EndSplineSet
Validated: 1
EndChar
StartChar: hyphen
Encoding: 45 45 244
Width: 386
VWidth: 982
Flags: MW
LayerCount: 2
Fore
SplineSet
320 271 m 6
 334 272 351 266 351 243 c 12
 351 220 341 195 318 194 c 6
 99 176 l 6
 65 173 45 175 45 195 c 4
 45 214 56 249 82 252 c 6
 320 271 l 6
EndSplineSet
Validated: 33
Substitution2: "sups subtable" hyphen.sups
Substitution2: "sinf subtable" hyphen.sinf
Substitution2: "ordn subtable" hyphen.ordn
Substitution2: "subs subtable" hyphen.subs
Substitution2: "'case' Case-Sensitive Forms lookup 8 subtable" hyphen.cap
EndChar

StartChar: period
Encoding: 46 46 15
Width: 206
VWidth: 982
Flags: W
HStem: -4 120<57.5937 148.678>
VStem: 42 124<13.2567 99.5493>
LayerCount: 2
Fore
SplineSet
114 116 m 0
 142 116 166 88 166 62 c 0
 166 29 138 -4 105 -4 c 0
 68 -4 42 21 42 58 c 0
 42 94 78 116 114 116 c 0
EndSplineSet
Validated: 1
EndChar
StartChar: zero
Encoding: 48 48 17
Width: 510
VWidth: 982
Flags: MW
LayerCount: 2
Fore
SplineSet
251 430 m 0
 360 430 475 344 475 235 c 0
 475 111 375 -4 251 -4 c 0
 136 -4 41 101 41 217 c 0
 41 326 142 430 251 430 c 0
103 212 m 0
 103 133 177 62 256 62 c 0
 339 62 408 145 408 228 c 0
 408 306 324 375 246 375 c 0
 169 375 103 289 103 212 c 0
EndSplineSet
Validated: 1
Substitution2: "'tnum' Tabular Numbers lookup 35 subtable" zero.taboldstyle
Substitution2: "'lnum' Lining Figures lookup 33 subtable" zero.lnum
Substitution2: "Single Substitution lookup 32 subtable" zero.ordn
Substitution2: "Single Substitution lookup 31 subtable" zero.subs
Substitution2: "sups subtable" zero.sups
Substitution2: "sinf subtable" zero.sinf
Substitution2: "ordn subtable" zero.ordn
Substitution2: "subs subtable" zero.subs
EndChar
StartChar: one
Encoding: 49 49 18
Width: 276
VWidth: 982
Flags: HMW
LayerCount: 2
Fore
SplineSet
180 328 m 2
 180 92 l 2
 180 67 191 52 218 44 c 0
 245 36 261 28 261 18 c 0
 261 8 253 -2 227 -2 c 0
 205 -2 155 4 139 4 c 0
 119 4 72 -2 50 -2 c 0
 24 -2 15 8 15 18 c 0
 15 28 32 36 59 44 c 0
 86 52 97 67 97 92 c 2
 97 328 l 2
 97 353 86 369 59 377 c 0
 32 385 21 393 21 403 c 0
 21 413 29 423 55 423 c 0
 77 423 122 417 138 417 c 0
 158 417 198 423 220 423 c 0
 246 423 255 413 255 403 c 0
 255 393 243 385 216 377 c 0
 189 369 180 353 180 328 c 2
EndSplineSet
Substitution2: "one_variants subtable" one.01
Substitution2: "'tnum' Tabular Numbers lookup 35 subtable" one.taboldstyle
Substitution2: "'lnum' Lining Figures lookup 33 subtable" one.lnum
Substitution2: "Single Substitution lookup 32 subtable" one.ordn
Substitution2: "Single Substitution lookup 31 subtable" one.subs
Substitution2: "sups subtable" one.sups
Substitution2: "sinf subtable" one.sinf
Substitution2: "ordn subtable" one.ordn
Substitution2: "subs subtable" one.subs
EndChar
StartChar: four
Encoding: 52 52 21
Width: 529
VWidth: 982
Flags: HMW
LayerCount: 2
Fore
SplineSet
334 432 m 0
 351 432 356 424 356 403 c 2
 356 101 l 2
 356 91 358 87 377 87 c 2
 476 87 l 2
 487 87 492 81 492 68 c 0
 492 46 473 25 441 25 c 2
 374 25 l 2
 360 25 356 23 356 10 c 2
 356 -121 l 2
 356 -149 328 -169 300 -169 c 0
 278 -169 273 -154 273 -139 c 2
 273 9 l 2
 273 21 271 24 259 24 c 2
 57 24 l 2
 47 24 42 36 42 48 c 0
 42 62 59 78 75 100 c 2
 300 413 l 2
 310 428 325 432 334 432 c 0
129 104 m 2
 120 91 122 87 141 87 c 2
 260 87 l 2
 271 87 273 89 273 100 c 2
 273 286 l 2
 273 297 273 302 264 290 c 2
 129 104 l 2
EndSplineSet
Substitution2: "'tnum' Tabular Numbers lookup 35 subtable" four.taboldstyle
Substitution2: "'lnum' Lining Figures lookup 33 subtable" four.lnum
Substitution2: "Single Substitution lookup 32 subtable" four.ordn
Substitution2: "Single Substitution lookup 31 subtable" four.subs
Substitution2: "sups subtable" four.sups
Substitution2: "sinf subtable" four.sinf
Substitution2: "ordn subtable" four.ordn
Substitution2: "subs subtable" four.subs
EndChar
StartChar: five
Encoding: 53 53 22
Width: 328
VWidth: 982
Flags: HMW
LayerCount: 2
Fore
SplineSet
218 418 m 2
 289 424 l 2
 302 425 305 413 305 405 c 0
 305 392 284 350 261 344 c 0
 237 338 174.412313553 338.716386318 161 332 c 0
 149.375994921 326.179131858 137 308 137 297 c 0
 137 282 161 257 204 218 c 0
 251 176 268 107 268 68 c 0
 268 -11 171 -99 103 -152 c 0
 86 -165 59 -169 49 -169 c 0
 34 -169 14 -152 14 -139 c 0
 14 -119 25 -96 50 -90 c 0
 58 -88 86 -87 125 -87 c 0
 143 -87 196 -42 196 11 c 0
 196 104 118 166 55 219 c 0
 46 227 39 239 39 250 c 0
 39 261 43 276 57 289 c 2
 150 377 l 2
 177 402 194 416 218 418 c 2
EndSplineSet
Substitution2: "'tnum' Tabular Numbers lookup 35 subtable" five.taboldstyle
Substitution2: "'lnum' Lining Figures lookup 33 subtable" five.lnum
Substitution2: "Single Substitution lookup 32 subtable" five.ordn
Substitution2: "Single Substitution lookup 31 subtable" five.subs
Substitution2: "sups subtable" five.sups
Substitution2: "sinf subtable" five.sinf
Substitution2: "ordn subtable" five.ordn
Substitution2: "subs subtable" five.subs
EndChar
StartChar: seven
Encoding: 55 55 24
Width: 424
VWidth: 982
Flags: HMW
LayerCount: 2
Fore
SplineSet
395 418 m 2
 410 418 413 416 413 402 c 0
 413 384 408.137695312 370.926757812 391 337 c 2
 143 -134 l 2
 120 -180 114 -209 80 -209 c 0
 69 -209 66 -196 66 -179 c 0
 66 -174 75 -154 88 -129 c 2
 325 320 l 2
 331.995799605 333.268714628 328 333 317 333 c 2
 130 333 l 2
 106 333 96 315 89 295 c 0
 84 279 70 267 57 267 c 0
 50 267 41 270 41 291 c 0
 41 310 73.7950260156 383.513297091 82 405 c 0
 86.9943319905 418.07886264 90 418 105 418 c 2
 395 418 l 2
EndSplineSet
Substitution2: "'tnum' Tabular Numbers lookup 35 subtable" seven.taboldstyle
Substitution2: "'lnum' Lining Figures lookup 33 subtable" seven.lnum
Substitution2: "Single Substitution lookup 32 subtable" seven.ordn
Substitution2: "Single Substitution lookup 31 subtable" seven.subs
Substitution2: "sups subtable" seven.sups
Substitution2: "sinf subtable" seven.sinf
Substitution2: "ordn subtable" seven.ordn
Substitution2: "subs subtable" seven.subs
EndChar
StartChar: nine
Encoding: 57 57 26
Width: 468
VWidth: 982
Flags: MW
LayerCount: 2
Fore
SplineSet
267 430 m 0
 375 430 452 352 452 244 c 0
 452 118 339 -53 182 -110 c 8
 140 -125 94 -143 73 -143 c 0
 57 -143 48 -135 48 -125 c 0
 48 -111 60 -90 71 -86 c 0
 93 -78 117 -67 158 -44 c 0
 212 -13 266 31 273 48 c 0
 276 56 243 54 204 61 c 0
 108 78 41 137 41 236 c 0
 41 351 152 430 267 430 c 0
140 208 m 0
 140 140 193 90 260 90 c 0
 318 90 353 158 353 260 c 0
 353 319 324 394 264 394 c 0
 178 394 140 295 140 208 c 0
EndSplineSet
Validated: 33
Substitution2: "'tnum' Tabular Numbers lookup 35 subtable" nine.taboldstyle
Substitution2: "'lnum' Lining Figures lookup 33 subtable" nine.lnum
Substitution2: "Single Substitution lookup 32 subtable" nine.ordn
Substitution2: "Single Substitution lookup 31 subtable" nine.subs
Substitution2: "sups subtable" nine.sups
Substitution2: "sinf subtable" nine.sinf
Substitution2: "ordn subtable" nine.ordn
Substitution2: "subs subtable" nine.subs
EndChar

StartChar: colon
Encoding: 58 58 27
Width: 199
VWidth: 982
Flags: HW
HStem: -5 121<61.3128 151> 284 121<61.3128 151>
VStem: 43 123<10.4372 98.0663 299.437 387.066>
LayerCount: 2
Fore
SplineSet
112 116 m 0
 144 116 166 86 166 54 c 0
 166 19 134 -5 99 -5 c 0
 68 -5 43 20 43 51 c 0
 43 88 75 116 112 116 c 0
112 405 m 0
 144 405 166 375 166 343 c 0
 166 308 134 284 99 284 c 0
 68 284 43 309 43 340 c 0
 43 377 75 405 112 405 c 0
EndSplineSet
Substitution2: "sups subtable" colon.sups
Substitution2: "sinf subtable" colon.sinf
Substitution2: "ordn subtable" colon.ordn
Substitution2: "subs subtable" colon.subs
EndChar

StartChar: less
Encoding: 60 60 28
Width: 578
VWidth: 982
Flags: HW
LayerCount: 2
Fore
SplineSet
136 245 m 2
 502 79 l 2
 521 70 528 32 528 23 c 0
 528 18 523 10 517 10 c 0
 516 10 515 11 514 11 c 2
 85 211 l 2
 68 219 44 232 44 238 c 0
 44 247 57 275 77 284 c 2
 514 484 l 2
 515 484 516 485 517 485 c 0
 523 485 527 481 527 475 c 0
 527 463 514 425 494 416 c 2
 135 254 l 2
 130 252 131 247 136 245 c 2
EndSplineSet
Substitution2: "sups subtable" less.sups
Substitution2: "sinf subtable" less.sinf
Substitution2: "ordn subtable" less.ordn
Substitution2: "subs subtable" less.subs
EndChar
StartChar: equal
Encoding: 61 61 29
Width: 459
VWidth: 982
Flags: HW
HStem: 86 66<46.7198 417.294> 244 66<46.7198 417.294>
LayerCount: 2
Fore
SplineSet
95 86 m 2
 74 86 42 91 42 116 c 0
 42 134 63 152 95 152 c 2
 380 152 l 2
 405 152 422 139 422 124 c 0
 422 109 409 87 379 87 c 2
 95 86 l 2
95 244 m 2
 74 244 42 249 42 274 c 0
 42 292 63 310 95 310 c 2
 380 310 l 2
 405 310 422 297 422 282 c 0
 422 267 409 245 379 245 c 2
 95 244 l 2
EndSplineSet
Substitution2: "sups subtable" equal.sups
Substitution2: "sinf subtable" equal.sinf
Substitution2: "ordn subtable" equal.ordn
Substitution2: "subs subtable" equal.subs
EndChar

StartChar: greater
Encoding: 62 62 30
Width: 578
VWidth: 982
Flags: W
LayerCount: 2
Fore
SplineSet
442 250 m 2
 76 416 l 2
 57 425 50 463 50 472 c 0
 50 477 55 485 61 485 c 0
 62 485 63 484 64 484 c 2
 493 284 l 2
 510 276 534 263 534 257 c 0
 534 248 521 220 501 211 c 2
 64 11 l 2
 63 11 62 10 61 10 c 0
 55 10 51 14 51 20 c 0
 51 32 64 70 84 79 c 2
 443 241 l 2
 448 243 447 248 442 250 c 2
EndSplineSet
Validated: 1
EndChar

StartChar: A
Encoding: 65 65 33
Width: 649
VWidth: 982
Flags: W
HStem: -2 47<23.8269 105.783 170.629 230.516 360.953 438.407 567.486 640.967> 205 46<237.998 384.141>
AnchorPoint: "cedilla" 130 15 basechar 0
AnchorPoint: "ogonek" 472 15 basechar 0
AnchorPoint: "below_accent" 308 -80 basechar 0
AnchorPoint: "top_accent" 336 670 basechar 0
LayerCount: 2
Fore
SplineSet
523 4 m 0
 457 4 419 -2 389 -2 c 0
 376 -2 357 4 357 15 c 0
 357 30 389 35 411 45 c 0
 447 62 445 81 440 98 c 2
 411 193 l 2
 408 202 403 205 395 205 c 2
 228 205 l 2
 223 205 216 204 212 194 c 2
 174 85 l 2
 168 67 167 51 196 43 c 0
 222 36 233 25 233 15 c 0
 233 4 223 -2 198 -2 c 0
 179 -2 135 4 116 4 c 0
 91 4 68 -2 53 -2 c 0
 34 -2 20 4 20 15 c 0
 20 30 53 35 75 45 c 0
 108 60 107 65 122 106 c 2
 275 529 l 2
 292 572 292 585 303 586 c 0
 322 588 340 616 346 616 c 0
 363 616 369 583 383 544 c 2
 515 171 l 2
 544 90 555 63 604 45 c 0
 635 34 644 24 644 14 c 0
 644 3 634 -2 615 -2 c 0
 592 -2 556 4 523 4 c 0
238 272 m 2
 232 256 229 251 247 251 c 2
 369 251 l 2
 389 251 390 255 380 287 c 2
 319 474 l 2
 316 484 312 481 308 471 c 2
 238 272 l 2
EndSplineSet
Validated: 33
EndChar

StartChar: B
Encoding: 66 66 34
Width: 523
VWidth: 982
Flags: HW
HStem: -2 41<20.8339 96.6875 232.968 332.26> 291 44<217.519 314.792> 555 41<24.253 101.1 217.336 327.958>
VStem: 122 95<63.6768 290.308 335.729 535.189> 370 86<391.47 515.456> 387 111<95.0865 248.767>
AnchorPoint: "top_accent" 269 670 basechar 0
AnchorPoint: "below_accent" 280 -80 basechar 0
AnchorPoint: "ogonek" 265 15 basechar 0
AnchorPoint: "cedilla" 281 15 basechar 0
LayerCount: 2
Fore
SplineSet
169 591 m 2xf4
 193 591 250 596 295 596 c 0
 373 596 456 555 456 479 c 0xf8
 456 408 422 354 365 335 c 0
 354 331 355 321 363 320 c 0
 438 309 498 261 498 180 c 0
 498 57 394 -2 261 -2 c 0
 240 -2 185 3 166 3 c 0
 119 3 60 -2 53 -2 c 0
 42 -1 20 5 20 15 c 0
 20 30 53 35 75 45 c 0
 109 60 122 92 122 129 c 2
 122 482 l 2
 122 539 97 540 40 556 c 0
 31 559 24 564 24 573 c 0
 24 585 38 591 59 591 c 2
 169 591 l 2xf4
217 528 m 2
 217 363 l 2
 217 343 229 335 247 335 c 0
 308 335 370 385 370 446 c 0
 370 517 320 555 263 555 c 0
 223 555 217 549 217 528 c 2
217 103 m 2
 217 55 259 39 271 39 c 0
 346 39 387 100 387 168 c 0xf4
 387 252 348 291 247 291 c 0
 232 291 217 285 217 264 c 2
 217 103 l 2
EndSplineSet
Substitution2: "c2sc subtable" B.sc
Substitution2: "sups subtable" B.sups
Substitution2: "sinf subtable" B.sinf
Substitution2: "ordn subtable" B.ordn
Substitution2: "subs subtable" B.subs
EndChar

StartChar: C
Encoding: 67 67 35
Width: 677
VWidth: 982
Flags: W
HStem: -16 44<326.193 509.049> 430 21G<601.5 614.5> 563 45<292.763 507.643>
VStem: 46 112<205.596 388.907> 569 58<442.059 520.756>
AnchorPoint: "top_accent" 404 670 basechar 0
AnchorPoint: "below_accent" 400 -80 basechar 0
AnchorPoint: "cedilla" 427 15 basechar 0
LayerCount: 2
Fore
SplineSet
408 608 m 0
 484 608 574 570 597 568 c 0
 620 566 627 513 627 458 c 0
 627 441 620 430 609 430 c 0
 594 430 582 451 569 493 c 0
 555 537 459 563 388 563 c 0
 259 563 158 455 158 317 c 0
 158 164 271 28 430 28 c 0
 531 28 554 98 607 173 c 0
 611 179 617 181 625 181 c 0
 633 181 641 171 641 153 c 0
 641 145 610 77 601 58 c 0
 585 25 580 18 555 9 c 0
 515 -5 445 -16 389 -16 c 0
 220 -16 46 97 46 275 c 0
 46 472 211 608 408 608 c 0
EndSplineSet
Validated: 1
EndChar
StartChar: G
Encoding: 71 71 39
Width: 710
VWidth: 982
Flags: HMW
AnchorPoint: "below_accent" 384 -80 basechar 0
AnchorPoint: "cedilla" 360 15 basechar 0
AnchorPoint: "ogonek" 394 15 basechar 0
AnchorPoint: "top_accent" 415 670 basechar 0
LayerCount: 2
Fore
SplineSet
419 608 m 0
 512 608 528 592 595 574 c 0
 606 571 609 552 612 541 c 0
 616 526 624 471 624 443 c 0
 624 434 617 428 608 428 c 0
 600 428 589 441 575 468 c 0
 538 538 463 563 385 563 c 0
 252 563 158 439 158 303 c 0
 158 158 255 20 399 20 c 0
 452 20 528 41 528 58 c 2
 528 179 l 2
 528 200 496 212 474 220 c 0
 444 231 427 234 427 249 c 0
 427 260 438 265 448 265 c 0
 474 265 549 261 583 261 c 0
 616 261 645 265 670 265 c 0
 683 265 690 257 690 245 c 0
 690 239 679 227 666 222 c 0
 652 216 621 204 621 181 c 2
 621 76 l 2
 621 53 648 40 648 31 c 0
 648 8 459 -24 356 -24 c 0
 197 -24 46 109 46 268 c 0
 46 468 217 608 419 608 c 0
EndSplineSet
Substitution2: "c2sc subtable" G.sc
Substitution2: "sups subtable" G.sups
Substitution2: "sinf subtable" G.sinf
Substitution2: "ordn subtable" G.ordn
Substitution2: "subs subtable" G.subs
EndChar
StartChar: H
Encoding: 72 72 40
Width: 725
VWidth: 982
Flags: HMW
AnchorPoint: "below_accent" 362 -80 basechar 0
AnchorPoint: "cedilla" 180 15 basechar 0
AnchorPoint: "ogonek" 567 15 basechar 0
AnchorPoint: "top_accent" 362 670 basechar 0
LayerCount: 2
Fore
SplineSet
217 266 m 2
 217 117 l 2
 217 80 220 60 254 45 c 0
 276 35 309 30 309 15 c 0
 309 5 288 -1 277 -2 c 0
 270 -2 214 4 166 4 c 0
 119 4 60 -2 53 -2 c 0
 42 -1 20 5 20 15 c 0
 20 30 53 35 75 45 c 0
 109 60 122 80 122 117 c 2
 122 482 l 2
 122 539 97 540 40 556 c 0
 31 559 24 564 24 573 c 0
 24 585 44 591 59 591 c 0
 98 591 134 586 170 586 c 0
 205 586 236 591 270 591 c 0
 285 591 305 585 305 573 c 0
 305 564 299 559 290 556 c 0
 233 540 217 539 217 482 c 2
 217 334 l 2
 217 329 220 323 230 323 c 2
 495 323 l 2
 505 323 508 326 508 336 c 2
 508 482 l 2
 508 539 493 540 436 556 c 0
 427 559 420 564 420 573 c 0
 420 585 440 591 455 591 c 0
 494 591 520 586 556 586 c 0
 591 586 632 591 666 591 c 0
 681 591 701 585 701 573 c 0
 701 564 695 559 686 556 c 0
 629 540 603 539 603 482 c 2
 603 117 l 2
 603 80 616 60 650 45 c 0
 672 35 705 30 705 15 c 0
 705 5 684 -1 673 -2 c 0
 666 -2 600 4 552 4 c 0
 505 4 456 -2 449 -2 c 0
 438 -1 416 5 416 15 c 0
 416 30 449 35 471 45 c 0
 505 60 508 80 508 117 c 2
 508 264 l 2
 508 274 504 275 494 275 c 2
 232 275 l 2
 222 275 217 276 217 266 c 2
EndSplineSet
Substitution2: "c2sc subtable" H.sc
Substitution2: "sups subtable" H.sups
Substitution2: "sinf subtable" H.sinf
Substitution2: "ordn subtable" H.ordn
Substitution2: "subs subtable" H.subs
EndChar

StartChar: J
Encoding: 74 74 42
Width: 314
VWidth: 982
Flags: W
HStem: -193 42<-7.5 100.924> 556 35<24.0204 94.0943 245.545 314.983>
VStem: 122 95<-73.3958 535.125>
AnchorPoint: "top_accent" 171 670 basechar 0
LayerCount: 2
Fore
SplineSet
217 481 m 2
 217 140 l 2
 217 -70 188 -102 157 -136 c 0
 125 -171 84 -193 25 -193 c 0
 -40 -193 -69 -164 -69 -143 c 0
 -69 -116 -51 -87 -33 -87 c 0
 -7 -87 5 -95 17 -113 c 0
 32 -136 47 -151 64 -151 c 0
 111 -151 122 -91 122 6 c 2
 122 481 l 2
 122 539 97 540 40 556 c 0
 31 559 24 564 24 573 c 0
 24 585 44 591 59 591 c 0
 98 591 134 586 170 586 c 0
 205 586 246 591 280 591 c 0
 295 591 315 585 315 573 c 0
 315 564 309 559 300 556 c 0
 243 540 217 539 217 481 c 2
EndSplineSet
Validated: 1
EndChar
StartChar: K
Encoding: 75 75 43
Width: 628
VWidth: 982
Flags: HMW
AnchorPoint: "below_accent" 389 -80 basechar 0
AnchorPoint: "cedilla" 180 15 basechar 0
AnchorPoint: "ogonek" 567 15 basechar 0
AnchorPoint: "top_accent" 346 670 basechar 0
LayerCount: 2
Fore
SplineSet
393 555 m 0
 383 558 376 564 376 573 c 0
 376 585 396 591 411 591 c 0
 426 591 481 586 496 586 c 0
 511 586 566 591 581 591 c 0
 596 591 609 585 609 573 c 0
 609 564 598.814145098 554.190361934 586 552 c 0
 528.829198793 542.227615985 482.402218872 514.03453409 439 467 c 2
 329.5 348.5 l 2
 315.864257812 333.8671875 307.809624595 332.188932849 328 310 c 2
 518 92 l 2
 544.952385078 61.1039009156 580 52 618 52 c 0
 632 52 643 38 643 34 c 0
 643 18 619 -8 577 -8 c 0
 516.8828125 -8 472.442514748 1.7861964619 433 47 c 2
 277 226 l 2
 258.483398438 247.002929688 245 258 232 258 c 0
 221 258 217 253 217 242 c 2
 217 117 l 2
 217 80 230 60 264 45 c 0
 286 35 319 30 319 15 c 0
 319 5 298 -1 287 -2 c 0
 280 -2 214 4 166 4 c 0
 119 4 60 -2 53 -2 c 0
 42 -1 20 5 20 15 c 0
 20 30 53 35 75 45 c 0
 109 60 122 80 122 117 c 2
 122 482 l 2
 122 539 97 540 40 556 c 0
 31 559 24 564 24 573 c 0
 24 585 44 591 59 591 c 0
 98 591 134 586 170 586 c 0
 205 586 246 591 280 591 c 0
 295 591 315 585 315 573 c 0
 315 564 309 559 300 556 c 0
 243 540 217 539 217 482 c 2
 217 349 l 2
 217 336 223 331 235 331 c 0
 242 331 256.424804688 345.331054688 282 374 c 2
 406 513 l 2
 414 523 418 547 393 555 c 0
EndSplineSet
Substitution2: "c2sc subtable" K.sc
Substitution2: "sups subtable" K.sups
Substitution2: "sinf subtable" K.sinf
Substitution2: "ordn subtable" K.ordn
Substitution2: "subs subtable" K.subs
EndChar
StartChar: L
Encoding: 76 76 44
Width: 591
VWidth: 982
Flags: HMW
AnchorPoint: "below_accent" 308 -80 basechar 0
AnchorPoint: "top_right" 480 546 basechar 0
AnchorPoint: "cedilla" 353 15 basechar 0
AnchorPoint: "ogonek" 458 15 basechar 0
AnchorPoint: "top_accent" 169 670 basechar 0
LayerCount: 2
Fore
SplineSet
217 85 m 2
 217 56 230 45 261 45 c 2
 395 45 l 2
 472 45 485 105 514 166 c 0
 519 177 532 185 541 185 c 0
 551 185 559 166 559 138 c 0
 559 111 534 30 526 17 c 0
 518 2 515 -2 498 -2 c 0
 461 -2 272 3 166 3 c 0
 119 3 60 -2 53 -2 c 0
 42 -1 20 5 20 15 c 0
 20 30 53 35 75 45 c 0
 109 60 122 80 122 117 c 2
 122 482 l 2
 122 539 97 540 40 556 c 0
 31 559 24 564 24 573 c 0
 24 585 38 591 60 591 c 0
 99 591 135 586 171 586 c 0
 206 586 247 591 281 591 c 0
 296 591 316 585 316 573 c 0
 316 564 310 559 301 556 c 0
 244 540 217 539 217 482 c 2
 217 85 l 2
EndSplineSet
Substitution2: "c2sc subtable" L.sc
Substitution2: "sups subtable" L.sups
Substitution2: "sinf subtable" L.sinf
Substitution2: "ordn subtable" L.ordn
Substitution2: "subs subtable" L.subs
EndChar
StartChar: M
Encoding: 77 77 45
Width: 813
VWidth: 982
Flags: HMW
AnchorPoint: "below_accent" 402 -80 basechar 0
AnchorPoint: "ogonek" 472 15 basechar 0
AnchorPoint: "cedilla" 130 15 basechar 0
AnchorPoint: "top_accent" 406 670 basechar 0
LayerCount: 2
Fore
SplineSet
711 129 m 2
 713 92 724 60 758 45 c 0
 780 35 813 30 813 15 c 0
 813 5 792 -1 781 -2 c 0
 774 -2 708 4 660 4 c 0
 613 4 554 -2 547 -2 c 0
 536 -1 514 5 514 15 c 0
 514 30 547 35 569 45 c 0
 603 60 618 92 616 129 c 2
 603 444 l 2
 602.162486925 463.982456602 584.974981379 459.341201488 577 441 c 2
 442 131 l 2
 438 122 396 36 387 36 c 0
 377 36 369 44 348 98 c 2
 225 413 l 2
 210.106699551 451.199340331 201.587262028 437.951504759 200 412 c 2
 183 133 l 2
 181 106 188 57 214 45 c 0
 236 35 269 30 269 15 c 0
 269 5 248 -1 237 -2 c 0
 230 -2 186 4 138 4 c 0
 91 4 53 -2 46 -2 c 0
 35 -1 13 5 13 15 c 0
 13 30 45 35 68 45 c 0
 102 60 119 100 126 150 c 2
 160 416 l 2
 169 487 153 506 128 529 c 0
 110 546 74 561 74 577 c 0
 74 592 96 591 108 591 c 0
 144 591 173 586 219 586 c 0
 246 586 263 568 282 523 c 2
 399 236 l 2
 407.31249731 215.630847134 411.786318447 199.154765104 430 237 c 2
 587 563 l 2
 598 586 612 586 638 586 c 0
 664 586 733 596 765 596 c 0
 777 596 781 589 781 579 c 0
 781 569 773 566 733 549 c 0
 702 536 691 516 694 459 c 2
 711 129 l 2
EndSplineSet
Substitution2: "c2sc subtable" M.sc
Substitution2: "sups subtable" M.sups
Substitution2: "sinf subtable" M.sinf
Substitution2: "ordn subtable" M.ordn
Substitution2: "subs subtable" M.subs
EndChar
StartChar: N
Encoding: 78 78 46
Width: 685
VWidth: 982
Flags: HMW
AnchorPoint: "below_accent" 378 -80 basechar 0
AnchorPoint: "ogonek" 472 15 basechar 0
AnchorPoint: "cedilla" 130 15 basechar 0
AnchorPoint: "top_accent" 346 670 basechar 0
LayerCount: 2
Fore
SplineSet
167 129 m 2
 167 91 180 60 214 45 c 0
 236 35 269 30 269 15 c 0
 269 5 248 -1 237 -2 c 0
 230 -2 186 4 138 4 c 0
 91 4 53 -2 46 -2 c 0
 35 -1 13 5 13 15 c 0
 13 30 46 35 68 45 c 0
 102 60 115 91 115 129 c 2
 115 390 l 2
 115 438 112 474 101 487 c 2
 64 527 l 2
 42.2578782636 550.479355664 4 557 4 575 c 0
 4 583 11 586 25 586 c 2
 130 586 l 2
 152 586 173 561 183 550 c 2
 516 176 l 2
 529.304607093 161.067236354 544 156 544 176 c 2
 544 482 l 2
 544 540 519 540 462 556 c 0
 453 559 446 564 446 573 c 0
 446 585 466 591 481 591 c 0
 520 591 536 586 572 586 c 0
 607 586 628 591 662 591 c 0
 677 591 697 585 697 573 c 0
 697 564 691 559 682 556 c 0
 625 540 599 540 599 482 c 2
 599 83 l 2
 599 36 602 28 602 1 c 0
 602 -9 592 -11 582 -11 c 0
 571 -11 535 7 497 49 c 2
 186 394 l 2
 175.963040905 405.147172382 167 406 167 384 c 2
 167 129 l 2
EndSplineSet
Substitution2: "c2sc subtable" N.sc
Substitution2: "sups subtable" N.sups
Substitution2: "sinf subtable" N.sinf
Substitution2: "ordn subtable" N.ordn
Substitution2: "subs subtable" N.subs
EndChar
StartChar: O
Encoding: 79 79 47
Width: 713
VWidth: 982
Flags: HMW
AnchorPoint: "below_accent" 370 -80 basechar 0
AnchorPoint: "cedilla" 391 15 basechar 0
AnchorPoint: "ogonek" 449 15 basechar 0
AnchorPoint: "top_accent" 362 670 basechar 0
LayerCount: 2
Fore
SplineSet
390 598 m 0
 526 598 663 456 663 310 c 0
 663 139 537 -12 366 -12 c 0
 187 -12 50 113 50 295 c 0
 50 484 192 598 390 598 c 0
162 330 m 0
 162 191 241 34 380 34 c 0
 499 34 551 161 551 280 c 0
 551 410 482 552 352 552 c 0
 242 552 162 440 162 330 c 0
EndSplineSet
Substitution2: "c2sc subtable" O.sc
Substitution2: "sups subtable" O.sups
Substitution2: "sinf subtable" O.sinf
Substitution2: "ordn subtable" O.ordn
Substitution2: "subs subtable" O.subs
EndChar
StartChar: P
Encoding: 80 80 48
Width: 535
VWidth: 982
Flags: HMW
AnchorPoint: "below_accent" 168 -80 basechar 0
AnchorPoint: "cedilla" 178 15 basechar 0
AnchorPoint: "top_accent" 277 670 basechar 0
LayerCount: 2
Fore
SplineSet
214 534 m 2
 214 117 l 2
 214 80 227 60 261 45 c 0
 283 35 316 30 316 15 c 0
 316 5 295 -1 284 -2 c 0
 277 -2 211 4 163 4 c 0
 120 4 60 -2 53 -2 c 0
 42 -1 20 5 20 15 c 0
 20 30 53 35 75 45 c 0
 109 60 122 80 122 117 c 2
 122 482 l 2
 122 539 97 540 40 556 c 0
 31 559 24 564 24 573 c 0
 24 585 38 590 59 591 c 0
 147 598 188 601 277 601 c 0
 378 601 490 557 490 456 c 0
 490 374 438 325 368 287 c 0
 331 267 315 267 304 267 c 0
 293 267 286 272 286 284 c 0
 286 294 301 296 329 320 c 0
 368 353 390 389 390 441 c 0
 390 508 331 557 264 557 c 0
 228 557 214 549 214 534 c 2
EndSplineSet
Substitution2: "c2sc subtable" P.sc
Substitution2: "sups subtable" P.sups
Substitution2: "sinf subtable" P.sinf
Substitution2: "ordn subtable" P.ordn
Substitution2: "subs subtable" P.subs
EndChar
StartChar: Q
Encoding: 81 81 49
Width: 721
VWidth: 982
Flags: HMW
AnchorPoint: "top_accent" 375 670 basechar 0
LayerCount: 2
Fore
SplineSet
345 -50.5 m 0
 322.373046875 -27.873046875 259.87890625 -14.708984375 232 1 c 0
 126.208984375 60.6103515625 50 152 50 281 c 0
 50 461 204 605 382 605 c 0
 541 605 671 470 671 311 c 0
 671 207 608 100.5 530 43.5 c 0
 477 4.5 451 1.5 450 -16 c 0
 450 -19 453.568359375 -26.5263671875 456 -30 c 0
 468.619140625 -48.021484375 503.905273438 -89.1474609375 547 -120 c 0
 608.795898438 -164.241210938 663 -194 732 -194 c 0
 753 -194 779 -191 788 -187 c 0
 794 -185 801 -183 807 -183 c 0
 813 -183 818 -189 818 -195 c 0
 818 -236 723 -254 692 -254 c 0
 596 -254 545.620117188 -217.48828125 472 -164 c 0
 426.6953125 -131.083984375 388.133789062 -93.6337890625 345 -50.5 c 0
162 325 m 0
 162 181 225 21 369 21 c 0
 415 21 465 53 499 87 c 0
 547 135 559 201 559 276 c 0
 559 421 483 560 347 560 c 0
 233 560 162 439 162 325 c 0
EndSplineSet
Substitution2: "Single Substitution lookup 69 subtable" Q.low
Substitution2: "Single Substitution lookup 68 subtable" Q.short
Substitution2: "Single Substitution lookup 67 subtable" Q.long
Substitution2: "Single Substitution lookup 66 subtable" Q.long
Substitution2: "c2sc subtable" Q.sc
Substitution2: "sups subtable" Q.sups
Substitution2: "sinf subtable" Q.sinf
Substitution2: "ordn subtable" Q.ordn
Substitution2: "subs subtable" Q.subs
EndChar
StartChar: S
Encoding: 83 83 51
Width: 409
VWidth: 982
Flags: HMW
AnchorPoint: "below_accent" 194 -80 basechar 0
AnchorPoint: "cedilla" 237 15 basechar 0
AnchorPoint: "top_accent" 232 670 basechar 0
LayerCount: 2
Fore
SplineSet
232 601 m 0
 264 601 310.926310179 586.73678907 333 575 c 0
 351.54189945 565.141097181 360.916221868 557.817693036 363 546 c 0
 365.778370843 530.243075952 367 508 367 489 c 0
 367 476 362 462 347 462 c 0
 335 462 322 472 307 508 c 0
 297 532 257 544 228 544 c 0
 185 544 146 509 146 465 c 0
 146 432 167 406 197 381 c 2
 338 262 l 2
 369 236 386 202 386 160 c 0
 386 62 285 -11 185 -11 c 0
 150 -11 104 0 80 11 c 0
 43 28 34 33 34 47 c 0
 34 61 37.8432865696 103.197499211 40.1007128793 116 c 0
 42.3581391889 128.802500789 49 140 59 140 c 0
 75 140 84 123 93 93 c 0
 104 57 143 28 201 28 c 0
 251 28 288 74 288 124 c 0
 288 158 273 183 248 204 c 2
 113 318 l 2
 77 348 54 384 54 433 c 0
 54 527 134 601 232 601 c 0
EndSplineSet
Substitution2: "c2sc subtable" S.sc
Substitution2: "sups subtable" S.sups
Substitution2: "sinf subtable" S.sinf
Substitution2: "ordn subtable" S.ordn
Substitution2: "subs subtable" S.subs
EndChar
StartChar: T
Encoding: 84 84 52
Width: 592
VWidth: 982
Flags: HMW
AnchorPoint: "below_accent" 312 -80 basechar 0
AnchorPoint: "cedilla" 332 15 basechar 0
AnchorPoint: "top_accent" 315 670 basechar 0
LayerCount: 2
Fore
SplineSet
266 505 m 2
 266 525 260 536 250 536 c 2
 128 536 l 2
 102 536 95 524 85 506 c 8
 74.0732421875 486.333007812 67 458 53 458 c 0
 40 458 35 472 35 481 c 0
 35 504 40 512 40 544 c 0
 40 560 38 579 38 589 c 0
 38 602 45 614 55 614 c 0
 70 614 95 584 150 584 c 2
 499 584 l 2
 535 584 551 591 569 601 c 0
 581 608 586 616 598 616 c 0
 610 616 616 606 616 598 c 0
 616 589 612 577 612 555 c 0
 612 531 614 497 614 486 c 0
 614 471 612 463 600 463 c 0
 590 463 575 489 564 508 c 8
 555.087890625 523.393554688 542 536 528 536 c 2
 373 536 l 2
 363 536 361 515 361 505 c 2
 361 117 l 2
 361 80 374 60 408 45 c 0
 430 35 463 30 463 15 c 0
 463 5 442 -1 431 -2 c 0
 424 -2 358 4 310 4 c 0
 263 4 204 -2 197 -2 c 0
 186 -1 164 5 164 15 c 0
 164 30 197 35 219 45 c 0
 253 60 266 80 266 117 c 2
 266 505 l 2
EndSplineSet
Substitution2: "c2sc subtable" T.sc
Substitution2: "sups subtable" T.sups
Substitution2: "sinf subtable" T.sinf
Substitution2: "ordn subtable" T.ordn
Substitution2: "subs subtable" T.subs
EndChar
StartChar: V
Encoding: 86 86 54
Width: 557
VWidth: 982
Flags: HMW
AnchorPoint: "below_accent" 296 -80 basechar 0
AnchorPoint: "cedilla" 299 15 basechar 0
AnchorPoint: "top_accent" 308 670 basechar 0
LayerCount: 2
Fore
SplineSet
394 555 m 0
 385 558 377 564 377 573 c 0
 377 585 397 591 412 591 c 0
 427 591 469 586 484 586 c 0
 499 586 533 591 548 591 c 0
 563 591 583 585 583 573 c 0
 583 564 575 559 566 556 c 0
 520 541 502 508 486 463 c 2
 362 121 l 2
 345.32140204 74.9258817765 309 -15 296 -15 c 0
 288 -15 273.48103253 12.8133804275 258 54 c 2
 106 458 l 2
 89 504 79 535 16 556 c 0
 7 559 0 564 0 573 c 0
 0 585 20 591 35 591 c 0
 74 591 78 586 114 586 c 0
 149 586 204 591 238 591 c 0
 253 591 273 585 273 573 c 0
 273 564 267 559 258 556 c 0
 215 542 179 524 195 480 c 2
 315 161 l 2
 320.277624726 146.959106964 323.29011316 145.758617835 328 160 c 2
 434 453 l 2
 457 522 436 541 394 555 c 0
EndSplineSet
Substitution2: "c2sc subtable" V.sc
Substitution2: "sups subtable" V.sups
Substitution2: "sinf subtable" V.sinf
Substitution2: "ordn subtable" V.ordn
Substitution2: "subs subtable" V.subs
EndChar
StartChar: W
Encoding: 87 87 55
Width: 914
VWidth: 982
Flags: HMW
AnchorPoint: "below_accent" 457 -80 basechar 0
AnchorPoint: "cedilla" 293 15 basechar 0
AnchorPoint: "top_accent" 466 670 basechar 0
LayerCount: 2
Back
SplineSet
433 555 m 4
 424 558 416 564 416 573 c 4
 416 585 426 591 441 591 c 4
 456 591 479 587 494 587 c 4
 509 587 543 591 558 591 c 4
 573 591 583 585 583 573 c 4
 583 564 575 559 566 556 c 4
 520 541 502 508 486 463 c 6
 436 325 l 5
 476 218 l 6
 492 174 499 169 506 169 c 4
 513 169 524 172 543 229 c 6
 617 453 l 6
 640 522 641 547 616 555 c 4
 607 558 599 564 599 573 c 4
 599 585 608 591 623 591 c 4
 638 591 664 587 679 587 c 4
 694 587 726 591 741 591 c 4
 756 591 766 585 766 573 c 4
 766 564 758 559 749 556 c 4
 703 541 685 508 669 463 c 6
 545 121 l 6
 528 75 492 -15 479 -15 c 4
 471 -15 456 13 441 54 c 6
 388 194 l 5
 362 121 l 6
 345 75 309 -15 296 -15 c 4
 288 -15 273 13 258 54 c 6
 106 458 l 6
 89 504 79 535 16 556 c 4
 7 559 0 564 0 573 c 4
 0 585 20 591 35 591 c 4
 50 591 94 587 109 587 c 4
 124 587 157 591 172 591 c 4
 187 591 207 588 207 576 c 4
 207 567 201 559 192 556 c 4
 167 548 179 524 195 480 c 6
 293 218 l 6
 309 174 316 169 323 169 c 4
 330 169 341 172 360 229 c 6
 367 250 l 5
 289 458 l 6
 272 504 261 550 235 556 c 4
 226 558 219 564 219 573 c 4
 219 585 230 591 241 591 c 4
 256 591 290 587 305 587 c 4
 320 587 348 591 363 591 c 4
 378 591 398 585 398 573 c 4
 398 564 392 559 383 556 c 4
 356 547 362 524 378 480 c 6
 412 388 l 5
 434 453 l 6
 457 522 461 546 433 555 c 4
EndSplineSet
Fore
SplineSet
711 555 m 0
 702 558 694 564 694 573 c 0
 694 585 714 591 729 591 c 0
 744 591 786 586 801 586 c 0
 816 586 850 591 865 591 c 0
 880 591 900 585 900 573 c 0
 900 564 892 559 883 556 c 0
 837 541 819 508 803 463 c 2
 679 121 l 2
 662.321289062 74.92578125 626 -15 613 -15 c 0
 605 -15 590.481445312 12.8134765625 575 54 c 2
 454.159404389 375.181583072 l 1
 362 121 l 2
 345.32140204 74.9258817765 309 -15 296 -15 c 0
 288 -15 273.48103253 12.8133804275 258 54 c 2
 106 458 l 2
 89 504 79 535 16 556 c 0
 7 559 0 564 0 573 c 0
 0 585 20 591 35 591 c 0
 74 591 78 586 114 586 c 0
 149 586 204 591 238 591 c 0
 253 591 273 585 273 573 c 0
 273 564 267 559 258 556 c 0
 215 542 179 524 195 480 c 2
 315 161 l 2
 320.277624726 146.959106964 323.29011316 145.758617835 328 160 c 2
 429.529945055 440.644093407 l 1
 423 458 l 2
 406 504 393.699420524 541.795793337 351 556 c 0
 341.511239884 559.156490369 335 564 335 573 c 0
 335 585 355 591 370 591 c 0
 409 591 413 586 449 586 c 0
 484 586 521 591 555 591 c 0
 570 591 590 585 590 573 c 0
 590 564 584 559 575 556 c 0
 532 542 496 524 512 480 c 2
 632 161 l 2
 637.27734375 146.958984375 640.290039062 145.758789062 645 160 c 2
 751 453 l 1
 774 522 753 541 711 555 c 0
EndSplineSet
Substitution2: "c2sc subtable" W.sc
Substitution2: "sups subtable" W.sups
Substitution2: "sinf subtable" W.sinf
Substitution2: "ordn subtable" W.ordn
Substitution2: "subs subtable" W.subs
EndChar
StartChar: Y
Encoding: 89 89 57
Width: 521
VWidth: 982
Flags: MW
AnchorPoint: "top_accent" 284 670 basechar 0
AnchorPoint: "below_accent" 262 -80 basechar 0
AnchorPoint: "cedilla" 275 15 basechar 0
LayerCount: 2
Fore
SplineSet
325 130 m 6
 325 92 338 60 372 45 c 4
 394 35 427 30 427 15 c 4
 427 5 406 -1 395 -2 c 4
 388 -2 322 4 274 4 c 4
 227 4 168 -2 161 -2 c 4
 150 -1 128 5 128 15 c 4
 128 30 161 35 183 45 c 4
 217 60 230 92 230 130 c 6
 230 199 l 6
 230 260 204.296 294.495 188 326 c 6
 118 446 l 6
 77.1865 515.967 53 544 16 556 c 4
 7 559 0 564 0 573 c 4
 0 585 20 591 35 591 c 4
 74 591 78 586 114 586 c 4
 149 586 176 591 210 591 c 4
 225 591 245 585 245 573 c 4
 245 564 239 559 230 556 c 4
 201 546 195.426 521.293 206 502 c 6
 263 398 l 6
 274.723 374.793 292 345 298 345 c 4
 305 345 318.853 363.758 347 419 c 6
 396 515 l 6
 402.356 527.474 385 549 367 555 c 4
 358 558 350 564 350 573 c 4
 350 585 370 591 385 591 c 4
 400 591 442 586 457 586 c 4
 472 586 506 591 521 591 c 4
 536 591 556 585 556 573 c 4
 556 564 548 559 539 556 c 4
 479 536 455.211 523.352 420 456 c 6
 351 324 l 5
 330.595 289.991 325 268 325 254 c 6
 325 130 l 6
EndSplineSet
Validated: 33
Substitution2: "c2sc subtable" Y.sc
Substitution2: "sups subtable" Y.sups
Substitution2: "sinf subtable" Y.sinf
Substitution2: "ordn subtable" Y.ordn
Substitution2: "subs subtable" Y.subs
EndChar
StartChar: Z
Encoding: 90 90 58
Width: 591
VWidth: 982
Flags: HMW
AnchorPoint: "below_accent" 308 -80 basechar 0
AnchorPoint: "cedilla" 327 15 basechar 0
AnchorPoint: "top_accent" 294 670 basechar 0
LayerCount: 2
Fore
SplineSet
258 3 m 0
 182 3 121 -2 55 -2 c 0
 43 -2 37 6 37 26 c 0
 37 34 62 62 100 115 c 2
 386 520 l 2
 398.10507864 537.160042865 393 542 373 542 c 2
 178 542 l 2
 141 542 124 531 111 516 c 0
 92 494 64 454 55 454 c 0
 43 454 40 468 40 482 c 0
 40 490 44.7197265625 538.4140625 51 574 c 16
 54 591 62 596 74 596 c 0
 92 596 111 585 158 585 c 2
 340 585 l 2
 368 585 465 588 499 588 c 0
 521 588 538 590 538 565 c 0
 538 554 525 535 501 502 c 2
 189 65 l 2
 177.385940886 48.7176896329 183 45 203 45 c 2
 418 45 l 2
 495 45 508 105 537 166 c 0
 542 177 555 185 564 185 c 0
 574 185 582 166 582 138 c 0
 582 111 557 30 549 17 c 0
 541 2 538 -2 521 -2 c 0
 484 -2 288 3 258 3 c 0
EndSplineSet
Substitution2: "c2sc subtable" Z.sc
Substitution2: "sups subtable" Z.sups
Substitution2: "sinf subtable" Z.sinf
Substitution2: "ordn subtable" Z.ordn
Substitution2: "subs subtable" Z.subs
EndChar
StartChar: backslash
Encoding: 92 92 60
Width: 351
VWidth: 982
Flags: HW
HStem: 681 20G<14.5 31>
VStem: 2 58<655 696.152>
LayerCount: 2
Fore
SplineSet
22 701 m 0
 40 701 43 695 60 655 c 2
 337 3 l 2
 341 -7 346 -21 346 -32 c 0
 346 -40 343 -46 335 -46 c 0
 317 -46 310 -40 303 -24 c 2
 15 642 l 2
 11 650 2 676 2 677 c 0
 2 695 7 701 22 701 c 0
EndSplineSet
Substitution2: "sups subtable" backslash.sups
Substitution2: "sinf subtable" backslash.sinf
Substitution2: "ordn subtable" backslash.ordn
Substitution2: "subs subtable" backslash.subs
EndChar
StartChar: b
Encoding: 98 98 66
Width: 499
VWidth: 982
Flags: HMW
AnchorPoint: "below_accent" 255 -80 basechar 0
AnchorPoint: "top_accent" 122 785 basechar 0
LayerCount: 2
Fore
SplineSet
80 566 m 2
 80 585 64 604 40 613 c 0
 29 617 17 625 17 636 c 0
 17 647 32 655 46 657 c 0
 86 664 140 681 150 681 c 0
 162 681 163 673 163 653 c 2
 163 404 l 2
 163 390 169 388 184 399 c 0
 201 411 244 430 299 430 c 0
 401 430 476 324 476 224 c 0
 476 99 373 -8 247 -8 c 0
 147.140625 -8 80 35 80 50 c 2
 80 566 l 2
163 332 m 2
 163 124 l 2
 163 75 201 40 278 40 c 0
 351 40 384 111 384 192 c 0
 384 283 337 378 246 378 c 0
 188 378 163 339 163 332 c 2
EndSplineSet
Substitution2: "Smallcaps1 subtable" b.sc
Substitution2: "sups subtable" b.sups
Substitution2: "sinf subtable" b.sinf
Substitution2: "ordn subtable" b.ordn
Substitution2: "subs subtable" b.subs
EndChar
StartChar: c
Encoding: 99 99 67
Width: 389
VWidth: 982
Flags: HW
HStem: -8 68<175.302 303.97> 383 47<163.542 252.061>
VStem: 20 92<135.917 298.035>
AnchorPoint: "below_accent" 185 -80 basechar 0
AnchorPoint: "cedilla" 248 5 basechar 0
AnchorPoint: "top_accent" 223 596 basechar 0
LayerCount: 2
Fore
SplineSet
200 -8 m 4
 93 -8 20 89 20 195 c 4
 20 316 107 430 222 430 c 4
 292 430 323 410 339 397 c 4
 358 381 372 364 372 351 c 4
 372 327 353 312 330 312 c 4
 312 312 287 326 265 348 c 12
 248 365 235 383 214 383 c 4
 154 383 112 308 112 242 c 4
 112 154 151 60 236 60 c 4
 282 60 331 83 341 83 c 4
 351 83 356 79 356 69 c 4
 356 40 298 -8 200 -8 c 4
EndSplineSet
Substitution2: "Smallcaps subtable" c.sc
Substitution2: "sups subtable" c.sups
Substitution2: "sinf subtable" c.sinf
Substitution2: "ordn subtable" c.ordn
Substitution2: "subs subtable" c.subs
EndChar
StartChar: d
Encoding: 100 100 68
Width: 486
VWidth: 982
Flags: MW
AnchorPoint: "top_accent" 326 785 basechar 0
AnchorPoint: "below_accent" 226 -80 basechar 0
AnchorPoint: "top_right" 440 590 basechar 0
AnchorPoint: "cedilla" 366 5 basechar 0
LayerCount: 2
Fore
SplineSet
387 681 m 0
 399 681 399 673 399 654 c 2
 399 84 l 2
 399 61 405 56 415 56 c 0
 428 56 461 62 469 62 c 0
 474 62 482 53 482 46 c 0
 482 33 477 25 469 21 c 0
 451 12 352 -12 337 -12 c 0
 329 -12 324 -3 323 2 c 0
 320 12 317 25 314 40 c 0
 312 50 309 51 302 41 c 0
 279 8 240 -8 200 -8 c 0
 98 -8 17 80 17 182 c 0
 17 307 99 430 225 430 c 0
 257 430 289 418 303 404 c 0
 312 396 314 401 316 420 c 2
 316 567 l 2
 316 584 299 604 275 613 c 0
 264 617 252 625 252 636 c 0
 252 647 267 655 281 657 c 0
 321 664 377 681 387 681 c 0
109 233 m 0
 109 143 152 56 238 56 c 0
 277 56 316 78 316 118 c 2
 316 271 l 2
 316 334 266 387 204 387 c 0
 134 387 109 303 109 233 c 0
EndSplineSet
Validated: 1048577
Substitution2: "Smallcaps subtable" d.sc
Substitution2: "sups subtable" d.sups
Substitution2: "sinf subtable" d.sinf
Substitution2: "ordn subtable" d.ordn
Substitution2: "subs subtable" d.subs
EndChar
StartChar: e
Encoding: 101 101 69
Width: 391
VWidth: 982
Flags: HMW
AnchorPoint: "below_accent" 193 -80 basechar 0
AnchorPoint: "cedilla" 237 5 basechar 0
AnchorPoint: "ogonek" 254 5 basechar 0
AnchorPoint: "top_accent" 224 596 basechar 0
LayerCount: 2
Fore
SplineSet
371 326 m 0
 371 299 367 258 341 258 c 2
 130 258 l 2
 116 258 114 256 111 248 c 0
 107 237 107 235 107 218 c 0
 107 142 154 60 233 60 c 0
 283 60 327 83 337 83 c 0
 347 83 352 79 352 69 c 0
 352 40 294 -8 196 -8 c 0
 85 -8 23 100 23 213 c 0
 23 336 117 430 239 430 c 0
 307 430 371 377 371 326 c 0
124 315 m 8
 124 308.358398438 125 304 137 304 c 2
 269 304 l 2
 279 304 284 321 284 335 c 0
 284 364 254 384 225 384 c 0
 165 384 124 335 124 315 c 8
EndSplineSet
Substitution2: "Smallcaps1 subtable" e.sc
Substitution2: "sups subtable" e.sups
Substitution2: "sinf subtable" e.sinf
Substitution2: "ordn subtable" e.ordn
Substitution2: "subs subtable" e.subs
EndChar
StartChar: f
Encoding: 102 102 70
Width: 313
VWidth: 982
Flags: HMW
AnchorPoint: "below_accent" 141 -80 basechar 0
AnchorPoint: "top_accent" 270 785 basechar 0
LayerCount: 2
Fore
SplineSet
325 690 m 0
 376 690 441 642 441 605 c 0
 441 581 429 559 404 559 c 0
 380 559 367 586 352 607 c 0
 341 623 320 634 291 634 c 0
 223 634 183 584 183 525 c 2
 183 420 l 2
 183 405 192 410 205 410 c 2
 270 412 l 2
 286 412 293 399 293 389 c 0
 293 379 284 355 270 355 c 2
 199 355 l 2
 187 355 183 346 183 332 c 2
 183 108 l 2
 183 83 191 55 227 44 c 0
 254 36 271 28 271 18 c 0
 271 8 262 -2 236 -2 c 0
 214 -2 157 4 141 4 c 0
 121 4 75 -2 53 -2 c 0
 27 -2 18 8 18 18 c 0
 18 28 35 36 62 44 c 0
 89 52 100 83 100 108 c 2
 100 338 l 2
 100 346 95 352 58 352 c 0
 49 352 26 356 26 366 c 0
 26 380 59 396 87 406 c 0
 98 410 100 424 100 435 c 0
 100 573 187 690 325 690 c 0
EndSplineSet
Substitution2: "Single Substitution lookup 71 subtable" f.short
Substitution2: "Smallcaps1 subtable" f.sc
Substitution2: "sups subtable" f.sups
Substitution2: "sinf subtable" f.sinf
Substitution2: "ordn subtable" f.ordn
Substitution2: "subs subtable" f.subs
Substitution2: "loclDEU subtable" f.DEU
EndChar
StartChar: g
Encoding: 103 103 71
Width: 479
VWidth: 982
Flags: HMW
AnchorPoint: "top_accent" 208 596 basechar 0
LayerCount: 2
Fore
SplineSet
201 430 m 0
 254 430 276 421 291 413 c 0
 307 405 322 396 332 396 c 2
 436 398 l 2
 456 398 464 377 464 363 c 0
 464 345 454 332 428 332 c 0
 415 332 369 337 360 337 c 0
 353 337 349 332 351 326 c 0
 354 318 359 289 359 282 c 0
 359 209 281 121 191 121 c 0
 180 121 171 124 166 124 c 0
 165 124 158 123 153 119 c 0
 138 106 119 81 119 65 c 0
 119 51 146.984375 40.5673828125 194 39 c 2
 314 35 l 2
 358 33 415 -4 415 -59 c 0
 415 -189 291 -272 161 -272 c 0
 69 -272 -2 -238 -2 -160 c 0
 -2 -112 46 -66 94 -36 c 0
 99 -33 98 -28 88 -23 c 0
 55 -8 31 5 31 38 c 0
 31 47 37 54 45 61 c 0
 60 74 96 104 112 128 c 0
 115 132 119 137 112 141 c 0
 67 167 31 214 31 273 c 0
 31 363 111 430 201 430 c 0
119 289 m 0
 119 231 143 163 201 163 c 0
 257 163 281 227 281 286 c 0
 281 339 241 388 186 388 c 0
 140 388 119 335 119 289 c 0
81 -131 m 0
 81 -193 147 -216 206 -216 c 0
 279 -216 338 -179 338 -116 c 0
 338 -51 286 -33 185 -33 c 0
 159 -33 140 -42 118 -62 c 0
 93 -85 81 -109 81 -131 c 0
EndSplineSet
Substitution2: "Smallcaps1 subtable" g.sc
AlternateSubs2: "alternate_g subtable" g.01
Substitution2: "sups subtable" g.sups
Substitution2: "sinf subtable" g.sinf
Substitution2: "ordn subtable" g.ordn
Substitution2: "subs subtable" g.subs
EndChar
StartChar: o
Encoding: 111 111 79
Width: 487
VWidth: 982
Flags: HMW
AnchorPoint: "below_accent" 245 -80 basechar 0
AnchorPoint: "ogonek" 292 5 basechar 0
AnchorPoint: "top_accent" 242 596 basechar 0
LayerCount: 2
Fore
SplineSet
239 430 m 0
 355 430 464 346 464 230 c 0
 464 101 362 -8 234 -8 c 0
 112 -8 22 96 22 215 c 0
 22 335 131 430 239 430 c 0
122 237 m 0
 122 143 167 39 260 39 c 0
 334 39 365 129 365 203 c 0
 365 292 319 388 232 388 c 0
 160 388 122 309 122 237 c 0
EndSplineSet
Substitution2: "Smallcaps1 subtable" o.sc
Substitution2: "sups subtable" o.sups
Substitution2: "sinf subtable" o.sinf
Substitution2: "ordn subtable" o.ordn
Substitution2: "subs subtable" o.subs
EndChar
StartChar: p
Encoding: 112 112 80
Width: 448
VWidth: 982
Flags: HMW
AnchorPoint: "top_accent" 255 596 basechar 0
LayerCount: 2
Fore
SplineSet
65 -161 m 2
 65 302 l 2
 65 319 48 344 24 353 c 0
 13 357 3 363 3 374 c 0
 3 385 19 393 32 399 c 0
 43 405 126 438 136 438 c 0
 148 438 148 429 148 410 c 2
 148 392 l 2
 149 387 154 382 162 390 c 0
 178 406 230 430 275 430 c 0
 358 430 425 341 425 257 c 0
 425 121 330 -6 197 -6 c 0
 177 -6 162 6 158 6 c 0
 149 6 148 1 148 -8 c 2
 148 -169 l 2
 148 -204 162 -212 216 -227 c 0
 243 -235 259 -243 259 -253 c 0
 259 -263 251 -273 225 -273 c 0
 191 -273 131 -260 38 -260 c 0
 12 -260 3 -250 3 -240 c 0
 3 -230 20 -222 47 -214 c 0
 60 -210 65 -186 65 -161 c 2
148 307 m 2
 148 98 l 2
 148 61 183 45 220 45 c 0
 298 45 333 129 333 211 c 0
 333 294 310 378 223 378 c 0
 178 378 148 343 148 307 c 2
EndSplineSet
Substitution2: "Smallcaps1 subtable" p.sc
Substitution2: "sups subtable" p.sups
Substitution2: "sinf subtable" p.sinf
Substitution2: "ordn subtable" p.ordn
Substitution2: "subs subtable" p.subs
EndChar
StartChar: q
Encoding: 113 113 81
Width: 460
VWidth: 982
Flags: MW
AnchorPoint: "top_accent" 237 596 basechar 0
LayerCount: 2
Fore
SplineSet
325 18 m 12
 283 -5 250 -8 204 -8 c 4
 99 -8 22 94 22 199 c 4
 22 319 108 430 229 430 c 4
 291 430 315 422 353 400 c 4
 362 395 363 395 370 399 c 4
 381 406 398 417 408 417 c 4
 420 417 422 403 422 384 c 6
 422 -162 l 2
 422 -187 429 -207 446 -212 c 0
 473 -220 487 -228 487 -238 c 0
 487 -248 481 -258 455 -258 c 0
 373 -258 305 -272 282 -272 c 0
 256 -272 247 -262 247 -252 c 0
 247 -242 264 -234 291 -226 c 0
 318 -218 339 -187 339 -162 c 2
 339 10 l 6
 339 27 330 21 325 18 c 12
114 230 m 4
 114 133 170 37 271 37 c 4
 297 37 339 56 339 82 c 6
 339 266 l 6
 339 335 283 387 210 387 c 4
 140 387 114 303 114 230 c 4
EndSplineSet
Validated: 1
Substitution2: "Smallcaps subtable" q.sc
Substitution2: "sups subtable" q.sups
Substitution2: "sinf subtable" q.sinf
Substitution2: "ordn subtable" q.ordn
Substitution2: "subs subtable" q.subs
EndChar
StartChar: r
Encoding: 114 114 82
Width: 354
VWidth: 982
Flags: HMW
AnchorPoint: "below_accent" 142 -80 basechar 0
AnchorPoint: "top_accent" 189 596 basechar 0
LayerCount: 2
Fore
SplineSet
139 4 m 0
 120 4 72 -2 50 -2 c 0
 24 -2 20 8 20 18 c 0
 20 28 32 36 59 44 c 0
 86 52 97 83 97 108 c 2
 97 302 l 2
 97 319 80 344 56 353 c 0
 45 357 35 363 35 374 c 0
 35 385 51 393 64 399 c 0
 75 405 158 438 168 438 c 0
 180 438 180 429 180 410 c 2
 180 385 l 2
 180 370 195 385 200 391 c 0
 216 408 258 430 288 430 c 0
 329 430 345 411 345 388 c 0
 345 373 331 347 315 331 c 0
 312 328 304 322 299 322 c 0
 284 322 254 350 234 350 c 0
 211 350 182 329 182 303 c 2
 180 108 l 2
 180 83 202 52 229 44 c 0
 256 36 270 28 270 18 c 0
 270 8 262 -2 236 -2 c 0
 214 -2 155 4 139 4 c 0
EndSplineSet
Substitution2: "Smallcaps1 subtable" r.sc
Substitution2: "sups subtable" r.sups
Substitution2: "sinf subtable" r.sinf
Substitution2: "ordn subtable" r.ordn
Substitution2: "subs subtable" r.subs
EndChar
StartChar: s
Encoding: 115 115 83
Width: 301
VWidth: 982
Flags: HMW
AnchorPoint: "below_accent" 146 -80 basechar 0
AnchorPoint: "cedilla" 171 5 basechar 0
AnchorPoint: "top_accent" 166 596 basechar 0
LayerCount: 2
Fore
SplineSet
163 430 m 0
 194 430 215.59861443 419.221636029 247 406 c 24
 253.979492188 403.061523438 255 400 258 390 c 0
 261 379 263 350 263 341 c 0
 263 329 263 319 251 319 c 0
 241 319 226.814043872 324.863728319 221 344 c 0
 213.73244516 367.920339601 184 384 153 384 c 0
 128 384 107 366 107 341 c 0
 107 313 127.667649993 296.889823657 150 280 c 2
 232 218 l 2
 259.915437509 196.887720429 280 173 280 138 c 0
 280 53 211 -8 129 -8 c 0
 101 -8 73 -4 63 0 c 0
 48 6 43 7 38 20 c 0
 33 33 21 68 21 83 c 0
 21 100 22 115 32 115 c 0
 42 115 62 106 76 75 c 0
 89 48 120 37 153 37 c 0
 183.760742188 37 212 57 212 87 c 0
 212 131 191.484127702 141.664271268 167 159 c 2
 119 193 l 2
 74.4388875816 224.551026291 35 255 35 305 c 0
 35 373 93 430 163 430 c 0
EndSplineSet
Substitution2: "Smallcaps1 subtable" s.sc
Substitution2: "Single Substitution lookup 44 subtable" longs
Substitution2: "sups subtable" s.sups
Substitution2: "sinf subtable" s.sinf
Substitution2: "ordn subtable" s.ordn
Substitution2: "subs subtable" s.subs
EndChar
StartChar: t
Encoding: 116 116 84
Width: 325
VWidth: 982
Flags: HMW
AnchorPoint: "below_accent" 174 -80 basechar 0
AnchorPoint: "top_right" 260 580 basechar 0
AnchorPoint: "cedilla" 209 5 basechar 0
AnchorPoint: "top_accent" 155 596 basechar 0
LayerCount: 2
Fore
SplineSet
186 -8 m 0
 127 -8 78 21 78 106 c 2
 78 344 l 2
 78 353 84 358 47 358 c 0
 38 358 15 362 15 372 c 0
 15 386 57 414 82 435 c 0
 96 447 134 485 147 485 c 0
 159 485 161 477 161 460 c 2
 161 432 l 18
 161 422 170 417 183 417 c 2
 280 417 l 2
 296 417 300 404 300 394 c 0
 300 384 290 358 276 358 c 2
 177 358 l 2
 165 358 161 353 161 339 c 2
 161 152 l 2
 161 82 178 60 213 60 c 0
 250 60 275 78 285 78 c 0
 295 78 300 74 300 64 c 0
 300 41 246 -8 186 -8 c 0
EndSplineSet
Substitution2: "Smallcaps1 subtable" t.sc
Substitution2: "sups subtable" t.sups
Substitution2: "sinf subtable" t.sinf
Substitution2: "ordn subtable" t.ordn
Substitution2: "subs subtable" t.subs
EndChar

StartChar: u
Encoding: 117 117 85
Width: 474
VWidth: 982
Flags: HW
HStem: -12 21G<328 339.5> -4 62<132.051 256.119> 370 44<241.382 300.927> 410 20G<124 135 377 388>
VStem: 58 83<82.5002 363.626> 311 83<86.8377 359.609>
AnchorPoint: "below_accent" 227 -80 basechar 0
AnchorPoint: "ogonek" 377 5 basechar 0
AnchorPoint: "top_accent" 217 596 basechar 0
LayerCount: 2
Fore
SplineSet
311 324 m 6x5c
 311 341 292 366 264 370 c 4
 252 372 241 378 241 389 c 4
 241 400 256 412 270 414 c 4x6c
 306 419 372 430 382 430 c 4
 394 430 394 422 394 403 c 6
 394 84 l 6
 394 61 400 56 410 56 c 4
 423 56 444 62 452 62 c 4
 457 62 465 53 465 46 c 4
 465 33 455 25 447 21 c 4
 429 12 347 -12 332 -12 c 4x9c
 324 -12 319 -3 318 2 c 4
 315 12 315 26 312 40 c 4
 310 51 302 49 292 41 c 4
 246 6 215 -4 157 -4 c 4
 99 -4 58 60 58 118 c 6
 58 316 l 6
 58 333 55 357 31 366 c 4
 20 370 10 378 10 389 c 4
 10 400 23 408 37 410 c 4
 77 417 119 430 129 430 c 4
 141 430 141 422 141 403 c 6
 141 151 l 6
 141 103 166 58 211 58 c 20
 266 58 311 91 311 135 c 6
 311 324 l 6x5c
EndSplineSet
Substitution2: "Smallcaps subtable" u.sc
Substitution2: "Single Substitution lookup 36 subtable" u.LAT
Substitution2: "sups subtable" u.sups
Substitution2: "sinf subtable" u.sinf
Substitution2: "ordn subtable" u.ordn
Substitution2: "subs subtable" u.subs
Substitution2: "loclLAT subtable" u.LAT
EndChar
StartChar: v
Encoding: 118 118 86
Width: 419
VWidth: 982
Flags: HMW
AnchorPoint: "below_accent" 211 -80 basechar 0
AnchorPoint: "top_accent" 231 596 basechar 0
LayerCount: 2
Fore
SplineSet
306 380 m 0
 291 383 278 393 278 403 c 0
 278 413 287 423 303 423 c 0
 318 423 343 417 358 417 c 0
 373 417 391 423 406 423 c 0
 422 423 430 413 430 403 c 0
 430 393 411 385 396 380 c 0
 385 376 367 358 353 323 c 2
 274 123 l 2
 257 81 229 -14 211 -14 c 0
 201 -14 192 9 186 26 c 2
 75 317 l 2
 65 343 51 375 36 380 c 0
 21 385 3 393 3 403 c 0
 3 413 11 423 27 423 c 0
 42 423 76 417 91 417 c 0
 106 417 148 423 163 423 c 0
 179 423 188 413 188 403 c 0
 188 393 176 385 154 378 c 0
 149 377 145 364 149 354 c 2
 231 139 l 2
 234.567379993 129.657955257 238.055003579 131.561788113 241 139 c 2
 313 321 l 2
 321 341 323 355 323 362 c 0
 323 372 312 379 306 380 c 0
EndSplineSet
Substitution2: "Smallcaps1 subtable" v.sc
Substitution2: "Single Substitution lookup 40 subtable" v.LATmedi
Substitution2: "sups subtable" v.sups
Substitution2: "sinf subtable" v.sinf
Substitution2: "ordn subtable" v.ordn
Substitution2: "subs subtable" v.subs
Substitution2: "loclLAT subtable" v.LAT
EndChar

StartChar: w
Encoding: 119 119 87
Width: 628
VWidth: 982
Flags: W
HStem: 380 43<3.20581 56.1256 147.768 187.86 212.206 265.126 487.15 531.992 581.751 638.783>
AnchorPoint: "below_accent" 310 -80 basechar 0
AnchorPoint: "top_accent" 325 596 basechar 0
LayerCount: 2
Fore
SplineSet
515 380 m 0
 500 383 487 393 487 403 c 0
 487 413 496 423 512 423 c 0
 527 423 552 417 567 417 c 0
 582 417 600 423 615 423 c 0
 631 423 639 413 639 403 c 0
 639 393 620 385 605 380 c 0
 594 376 576 358 562 323 c 2
 483 123 l 2
 466 81 438 -14 420 -14 c 0
 410 -14 401 9 395 26 c 2
 317 231 l 1
 274 123 l 2
 257 81 229 -14 211 -14 c 0
 201 -14 192 9 186 26 c 2
 75 317 l 2
 65 343 51 375 36 380 c 0
 21 385 3 393 3 403 c 0
 3 413 11 423 27 423 c 0
 42 423 76 417 91 417 c 0
 106 417 148 423 163 423 c 0
 179 423 188 413 188 403 c 0
 188 393 176 385 154 378 c 0
 149 377 145 364 149 354 c 2
 220 171 l 2
 224 161 233 145 239 145 c 0
 246 145 253 161 257 171 c 2
 298 281 l 1
 284 317 l 2
 274 343 260 375 245 380 c 0
 230 385 212 393 212 403 c 0
 212 413 220 423 236 423 c 0
 251 423 285 417 300 417 c 0
 315 417 369 423 384 423 c 0
 400 423 409 413 409 403 c 0
 409 393 397 383 380 375 c 0
 368 370 357 357 365 336 c 2
 429 171 l 2
 433 161 442 145 448 145 c 0
 455 145 462 161 466 171 c 2
 522 321 l 2
 530 341 532 355 532 362 c 0
 532 372 521 379 515 380 c 0
EndSplineSet
Validated: 33
EndChar
StartChar: y
Encoding: 121 121 89
Width: 419
VWidth: 982
Flags: HMW
AnchorPoint: "below_accent" 278 -122 basechar 0
AnchorPoint: "top_accent" 225 596 basechar 0
LayerCount: 2
Fore
SplineSet
187 35 m 2
 75 317 l 2
 65 343 51 375 36 380 c 0
 21 385 3 393 3 403 c 0
 3 413 11 423 27 423 c 0
 42 423 76 417 91 417 c 0
 106 417 148 423 163 423 c 0
 179 423 188 413 188 403 c 0
 188 393 176 385 154 378 c 0
 149 377 145 364 149 354 c 2
 230 150 l 2
 237.394935145 131.417348569 241.318288601 132.042789178 247 147 c 2
 313 321 l 2
 321 341 323 355 323 362 c 0
 323 372 312 379 306 380 c 0
 291 383 278 393 278 403 c 0
 278 413 287 423 303 423 c 0
 318 423 343 417 358 417 c 0
 373 417 391 423 406 423 c 0
 422 423 430 413 430 403 c 0
 430 393 411 385 396 380 c 0
 385 376 365.783850647 356.65372435 353 323 c 2
 160 -186 l 2
 150.767218977 -210.305467586 117 -261 71 -261 c 0
 39 -261 20 -232 20 -204 c 0
 20 -174 50 -148 80 -148 c 0
 118 -148 140 -128 151 -105 c 0
 174 -56 192 -12 192 10 c 0
 192 19 190 28 187 35 c 2
EndSplineSet
Substitution2: "Smallcaps1 subtable" y.sc
Substitution2: "sups subtable" y.sups
Substitution2: "sinf subtable" y.sinf
Substitution2: "ordn subtable" y.ordn
Substitution2: "subs subtable" y.subs
EndChar
StartChar: z
Encoding: 122 122 90
Width: 432
VWidth: 982
Flags: HMW
AnchorPoint: "below_accent" 205 -80 basechar 0
AnchorPoint: "top_accent" 239 596 basechar 0
LayerCount: 2
Fore
SplineSet
84 422 m 0
 96 422 114 417 134 417 c 2
 322 417 l 2
 363 417 386 421 399 421 c 0
 413 421 411 407 411 399 c 0
 411 387 384.251953125 362.810546875 367 340 c 2
 143 61 l 2
 134.227539062 50.0888671875 146 47 160 47 c 2
 281 47 l 2
 309 47 320 51 352 90 c 0
 374 117 391 146 401 146 c 0
 410 146 415 138 415 121 c 0
 415 71 378 -2 364 -2 c 0
 327 -2 282 4 225 4 c 0
 170 4 120 -2 51 -2 c 0
 34 -2 19 11 19 23 c 0
 19 37 30 50 48 73 c 2
 271 350 l 2
 284.158680039 366.366097264 283 368 267 368 c 2
 143 368 l 2
 115 368 103.066712317 360.936389698 81 330 c 0
 69.3859408858 313.717689633 56 303 49 303 c 0
 39 303 34 308 34 325 c 0
 34 360 66 422 84 422 c 0
EndSplineSet
Substitution2: "Smallcaps1 subtable" z.sc
Substitution2: "sups subtable" z.sups
Substitution2: "sinf subtable" z.sinf
Substitution2: "ordn subtable" z.ordn
Substitution2: "subs subtable" z.subs
EndChar

StartChar: braceright
Encoding: 125 125 93
Width: 373
Flags: W
HStem: -154 27<35.1033 124.219> 688 27<35.1033 124.219>
VStem: 166 76<-20.282 210.046 350.809 581.282> 179 76<-85.2919 149.197 411.803 646.292>
LayerCount: 2
Fore
SplineSet
272 279 m 0xe0
 274 280 277 281 274 283 c 0
 232 300 166 348 166 414 c 0xe0
 166 472 179 519 179 587 c 0
 179 660 125 688 61 688 c 0
 50 688 35 689 35 700 c 0
 35 709 44 715 53 715 c 0
 147 715 255 676 255 582 c 0xd0
 255 512 242 466 242 404 c 0
 242 346 282 308 337 288 c 0
 342 286 348 288 348 282 c 0
 348 276 342 275 337 273 c 0
 282 253 242 215 242 157 c 0xe0
 242 95 255 49 255 -21 c 0
 255 -115 147 -154 53 -154 c 0
 44 -154 35 -148 35 -139 c 0
 35 -128 50 -127 61 -127 c 0
 125 -127 179 -99 179 -26 c 0xd0
 179 42 166 89 166 147 c 0
 166 213 239 270 272 279 c 0xe0
EndSplineSet
Validated: 1
EndChar
StartChar: exclamdown
Encoding: 161 161 95
Width: 207
VWidth: 982
Flags: MW
LayerCount: 2
Fore
SplineSet
87 -200 m 0
 62 -200 42 -187 42 -155 c 0
 42 -71 51 28 58 62 c 0
 70 125 82 163 95 163 c 0
 105 163 115 151 119 125 c 0
 124 89 142 -68 142 -145 c 0
 142 -174 117 -200 87 -200 c 0
101 288 m 0
 72 288 43 309 43 338 c 0
 43 372 68 405 102 405 c 0
 131 405 156 382 156 353 c 0
 156 320 134 288 101 288 c 0
EndSplineSet
Validated: 1
EndChar
StartChar: cent
Encoding: 162 162 2138
Width: 389
VWidth: 982
Flags: MW
LayerCount: 2
Fore
SplineSet
198 491 m 2
 198 511 218 527 235 527 c 0
 244 527 245 520 245 491 c 2
 245 429.222384195 l 1
 299.04649063 425.417249106 324.871405204 408.479483271 339 397 c 0
 358 381 372 364 372 351 c 0
 372 327 353 312 330 312 c 0
 312 312 287 326 265 348 c 0
 257.914054863 355.085945137 251.538265166 362.324572009 245 368.366225477 c 1
 245 60.3201059045 l 1
 289.255474936 63.358328447 340.642556626 87 350 87 c 0
 360 87 365 83 365 73 c 0
 365 48.6941948139 317.934916641 8.2317192211 245 -4.23065578573 c 1
 245 -83 l 2
 245 -100 226 -113 210 -113 c 0
 200 -113 198 -105 198 -85 c 2
 198 -7.98867987762 l 1
 92.0913753721 -6.78851818656 20 89.6617520139 20 195 c 0
 20 307.427372222 95.1091127761 413.811482497 198 428.321395212 c 1
 198 491 l 2
198 67.0878086298 m 1
 198 381.18048064 l 1
 146.665415275 369.349924081 112 301.960810404 112 242 c 0
 112 168.373764697 139.300113439 90.5475119413 198 67.0878086298 c 1
EndSplineSet
Validated: 1
EndChar
StartChar: yen
Encoding: 165 165 2137
Width: 521
VWidth: 982
Flags: MW
LayerCount: 2
Fore
SplineSet
140 148 m 2
 119 148 87 153 87 178 c 0
 87 196 108 214 140 214 c 2
 229.464061724 214 l 1
 227.866267476 235.988712584 222.847220055 254.287047534 216.458864596 270.269221354 c 1
 140 270 l 2
 119 270 87 275 87 300 c 0
 87 318 108 336 140 336 c 2
 182.166666667 336 l 1
 118 446 l 2
 77.1865 515.967 53 544 16 556 c 0
 7 559 0 564 0 573 c 0
 0 585 20 591 35 591 c 0
 74 591 78 586 114 586 c 0
 149 586 176 591 210 591 c 0
 225 591 245 585 245 573 c 0
 245 564 239 559 230 556 c 0
 201 546 195.426 521.293 206 502 c 2
 263 398 l 2
 274.723 374.793 292 345 298 345 c 0
 305 345 318.853 363.758 347 419 c 2
 396 515 l 2
 402.356 527.474 385 549 367 555 c 0
 358 558 350 564 350 573 c 0
 350 585 370 591 385 591 c 0
 400 591 442 586 457 586 c 0
 472 586 506 591 521 591 c 0
 536 591 556 585 556 573 c 0
 556 564 548 559 539 556 c 0
 479 536 455.211 523.352 420 456 c 2
 357.272727273 336 l 1
 425 336 l 2
 450 336 467 323 467 308 c 0
 467 293 454 271 424 271 c 2
 327.169459985 270.659047394 l 1
 325.612024415 264.134786397 325 258.630334477 325 254 c 2
 325 214 l 1
 425 214 l 2
 450 214 467 201 467 186 c 0
 467 171 454 149 424 149 c 2
 325 148.651408451 l 1
 325 130 l 2
 325 92 338 60 372 45 c 0
 394 35 427 30 427 15 c 0
 427 5 406 -1 395 -2 c 0
 388 -2 322 4 274 4 c 0
 227 4 168 -2 161 -2 c 0
 150 -1 128 5 128 15 c 0
 128 30 161 35 183 45 c 0
 217 60 230 92 230 130 c 2
 230 148.316901408 l 1
 140 148 l 2
EndSplineSet
Validated: 33
EndChar

StartChar: dieresis
Encoding: 168 168 99
Width: 326
VWidth: 982
Flags: HW
HStem: 548 106<35.2479 120.03 205.97 290.752>
VStem: 25 106<559.388 642.612> 195 106<559.388 642.612>
LayerCount: 2
Fore
SplineSet
249 654 m 0
 278 654 301 630 301 601 c 0
 301 572 278 548 249 548 c 0
 220 548 195 572 195 601 c 0
 195 630 220 654 249 654 c 0
77 654 m 0
 106 654 131 630 131 601 c 0
 131 572 106 548 77 548 c 0
 48 548 25 572 25 601 c 0
 25 630 48 654 77 654 c 0
EndSplineSet
EndChar
StartChar: copyright
Encoding: 169 169 100
Width: 724
VWidth: 982
Flags: W
HStem: -5 35<261.699 466.149> 104 42<319.767 452.555> 457 42<309.524 449.698> 569 35<262.81 465.903>
VStem: 40 35<209.579 390.314> 157 90<228.734 382.044> 479 54<369.51 431.202> 657 35<212.691 390.63>
LayerCount: 2
Fore
SplineSet
366 569 m 0
 211.44921875 569 75 459 75 300 c 0
 75 141 207 30 366 30 c 0
 520.81640625 30 657 145.18359375 657 300 c 0
 657 454.55078125 520.55078125 569 366 569 c 0
366 604 m 0
 540 604 692 474 692 300 c 0
 692 125 541 -5 366 -5 c 0
 191 -5 40 125 40 300 c 0
 40 474 192 604 366 604 c 0
391 499 m 4
 435 499 476 482 503 469 c 4
 523 460 533 442 533 391 c 4
 533 374 526 363 515 363 c 4
 500 363 485 386 479 406 c 4
 472 429 423 457 379 457 c 4
 305 457 247 396 247 322 c 4
 247 234 300 146 388 146 c 4
 439 146 472 177 500 219 c 4
 504 225 522 254 528 254 c 4
 537 254 539 244 539 226 c 4
 539 218 532 186 523 167 c 4
 518 156 501 141 477 129 c 4
 458 120 413 104 372 104 c 4
 259 104 157 186 157 299 c 4
 157 419 270.948242188 499 391 499 c 4
EndSplineSet
EndChar
StartChar: ordfeminine
Encoding: 170 170 2139
Width: 1000
VWidth: 0
Flags: M
LayerCount: 2
Fore
SplineSet
49 212 m 2
 255 212 l 2
 261 212 269 207 269 201 c 0
 269 200 268 199 268 198 c 0
 261 185 252 177 237 177 c 2
 39 177 l 2
 32 177 25 183 25 189 c 0
 25 198 36 212 49 212 c 2
80 358 m 0
 80 335 99 324 112 324 c 0
 126 324 142 335 152 343 c 0
 156 346 160 351 160 366 c 2
 160 395 l 2
 160 407 156 409 145 406 c 0
 95 392 80 372 80 358 c 0
219 284 m 0
 182 284 169 315 164 315 c 0
 155 315 137 284 84 284 c 0
 57 284 25 320 25 343 c 0
 25 368 31 384 63 396 c 2
 142 424 l 2
 159 430 160 432 160 448 c 2
 160 471 l 2
 160 491 147 507 123 507 c 0
 107 507 84 501 79 493 c 0
 76 487 78 472 78 469 c 0
 78 461 36 450 33 450 c 0
 29 450 28 452 28 455 c 0
 28 463 38 485 54 498 c 0
 74 515 120 540 154 540 c 0
 185 540 215 515 215 487 c 2
 215 363 l 2
 215 346 215 324 234 324 c 0
 252 324 257 334 259 334 c 0
 262 334 268 327 268 318 c 0
 268 314 243 284 219 284 c 0
EndSplineSet
Validated: 1
EndChar
StartChar: uni00AD
Encoding: 173 173 2136
Width: 386
VWidth: 982
Flags: HMW
LayerCount: 2
Fore
SplineSet
320 271 m 6
 334 272 351 266 351 243 c 12
 351 220 341 195 318 194 c 6
 99 176 l 6
 65 173 45 175 45 195 c 4
 45 214 56 249 82 252 c 6
 320 271 l 6
EndSplineSet
EndChar
StartChar: registered
Encoding: 174 174 1412
Width: 665
Flags: HW
LayerCount: 2
UndoRedoHistory
Layer: 1
Undoes
EndUndoes
Redoes
EndRedoes
EndUndoRedoHistory
Fore
SplineSet
410 413 m 0
 410 445 377 467 342 467 c 0
 312 467 304 455 304 437 c 2
 304 372 l 2
 304 353 317 352 331 352 c 0
 370 352 410 374 410 413 c 0
342 498 m 0
 431 498 474 468 474 417 c 0
 474 376 445 349 421 339 c 0
 412 335 417 329 421 322 c 2
 487 211 l 2
 495 197 506 194 518 194 c 0
 522 194 534 198 534 190 c 0
 534 172 509 163 490 163 c 0
 466 163 443.8114 173.2645 432 193 c 2
 374 290 l 2
 363 308 345 320 320 320 c 0
 312 320 304 316 304 309 c 2
 305 233 l 2
 305 211 323 206 339 201 c 0
 348 198 358 191 358 183 c 0
 358 177 348 172 342 172 c 0
 310 172 305 176 277 176 c 0
 249 176 244 172 212 172 c 0
 206 172 196 177 196 183 c 0
 196 191 206 198 215 201 c 0
 231 206 240 211 240 233 c 2
 240 422 l 2
 240 463 237 459 217 464 c 0
 203 468 198 477 198 482 c 0
 198 487 205 496 214 496 c 0
 242 496 310 498 342 498 c 0
346 590 m 0
 201 590 83 472 83 327 c 0
 83 181 199 58 345 58 c 0
 492 58 609 180 609 327 c 0
 609 472 491 590 346 590 c 0
346 630 m 0
 513 630 649 494 649 327 c 0
 649 160 512 24 345 24 c 0
 178 24 43 160 43 327 c 0
 43 494 179 630 346 630 c 0
EndSplineSet
EndChar
StartChar: uni00B2
Encoding: 178 178 105
Width: 311
Flags: MW
LayerCount: 2
Fore
SplineSet
70.5 665.400390625 m 0
 62.6091591517 659.257538624 53.25 645.4375 50.765625 645.4375 c 0
 43.3125 645.4375 36 652.75 36 664 c 0
 36 694 96 750 157 750 c 0
 208 750 262 719 262 664 c 0
 262 602 212.856445312 577.946289062 166 537.400390625 c 2
 117 495 l 2
 104.563476562 483.41015625 107 477 121 477 c 2
 225 477 l 2
 255 477 260.941962133 487.941962133 270 497 c 0
 273.535533906 500.535533906 280 513 289 513 c 0
 295 513 299 503 299 500 c 0
 299 499 298 497 298 496 c 0
 285 460 284 459 278 428 c 0
 276 417 271 416 266 416 c 2
 65 416 l 2
 42 416 23 424 23 438 c 0
 23 450 28 456 39 465 c 1
 135 549 l 2
 164.344181447 574.688888945 190 600 190 638 c 0
 190 669 166 694 135 694 c 0
 100 694 87.8598498664 678.914665027 70.5 665.400390625 c 0
EndSplineSet
Validated: 1
EndChar

StartChar: uni00B5
Encoding: 181 181 107
Width: 510
Flags: HW
HStem: -266 21G<93 118.5> -8 85<378.929 462.136> -6 71<129.848 240.897> 409 20G<63.5 97.5 345 379>
VStem: 31 99<209.618 416.034> 31 37<-98.7732 83.2413> 38 61<89.4308 282.001> 305 100<279.319 407.481>
LayerCount: 2
Fore
SplineSet
420 77 m 0xd3
 457 77 485 116 493 116 c 0
 498 116 504 112 504 107 c 0
 504 32 449 -8 406 -8 c 0xd3
 373 -8 359 7 339 55 c 0
 337 61 328 88 326 109 c 1
 319 93 260 -6 210 -6 c 0
 105 -6 93 69 78 69 c 0
 71 69 68 56 68 35 c 0
 68 6 74 -36 80 -71 c 0
 93 -149 141 -206 141 -224 c 0
 141 -244 128 -266 109 -266 c 0
 77 -266 58 -246 46 -215 c 0
 37 -191 31 -68 31 7 c 0xb5
 31 24 38 67 38 99 c 0xb3
 38 132 31 299 31 343 c 0
 31 385 44 429 83 429 c 0
 112 429 130 402 130 354 c 0xb9
 130 312 99 179 99 139 c 0
 99 113 125 65 169 65 c 0xb3
 222 65 249 84 273 129 c 0
 311 202 305 263 305 343 c 0
 305 382 328 426 362 426 c 0
 396 426 405 385 405 363 c 0
 405 326 357 222 357 169 c 0
 357 132 375 77 420 77 c 0xd3
EndSplineSet
EndChar

StartChar: paragraph
Encoding: 182 182 793
Width: 586
Flags: W
HStem: -269 35<223.335 308.635> -169 92<210.259 273.954> 550 56<416.006 551.203>
VStem: 46 370<237.073 435.608> 162 48<-225.171 -169.355> 360 56<-165.117 76.9891>
LayerCount: 2
Fore
SplineSet
210 -183 m 0xec
 210 -209 231 -234 258 -234 c 0
 328 -234 360 -158 360 -88 c 2
 360 52 l 2xec
 360 62 358 77 347 77 c 0
 186 77 46 179 46 340 c 0xf0
 46 513 225 608 398 606 c 2
 538 606 l 2
 549 606 553 593 553 584 c 0
 553 575 547 550 539 550 c 2
 434 550 l 2
 424 550 416 541 416 532 c 2
 416 -59 l 2
 416 -159 361 -269 262 -269 c 0
 208 -269 162 -227 162 -172 c 0
 162 -123 195 -77 244 -77 c 0
 281 -77 310 -105 310 -142 c 0
 310 -169 290 -192 263 -192 c 0
 243 -192 228 -169 219 -169 c 0
 213 -169 210 -176 210 -183 c 0xec
EndSplineSet
Validated: 33
EndChar
StartChar: periodcentered
Encoding: 183 183 745
Width: 204
VWidth: 982
Flags: MW
LayerCount: 2
Fore
SplineSet
102 434 m 0
 136 434 164 406 164 372 c 0
 164 338 136 310 102 310 c 0
 68 310 40 338 40 372 c 0
 40 406 68 434 102 434 c 0
EndSplineSet
Validated: 1
Substitution2: "Single Substitution lookup 4 subtable" periodcentered.CATuc
Substitution2: "Single Substitution lookup 3 subtable" periodcentered.CAT
EndChar
StartChar: onehalf
Encoding: 189 189 2144
Width: 699
Flags: MW
LayerCount: 2
Fore
SplineSet
443 232 m 1
 438 222 427 226 427 237 c 0
 427 257 474 324 544 324 c 0
 595 324 635 282 635 231 c 0
 635 197 618 177 601 152 c 0
 579 119 509 60 502 52 c 0
 498 48 510 46 514 46 c 2
 583 46 l 2
 613 46 642 66 657 96 c 0
 659 101 666 105 672 104 c 0
 675 104 676 102 676 99 c 0
 676 98 675 96 675 95 c 0
 662 59 654 35 648 4 c 0
 646 -10 640 -10 636 -9 c 0
 585 -6 585 -6 552 -6 c 0
 504 -6 480 -6 429 -8 c 0
 424 -9 422 1 429 8 c 2
 468 48 l 2
 484 64 579 142 579 207 c 0
 579 244 552 270 522 270 c 0
 486 270 471 262 443 232 c 1
121 -11 m 2
 533 638 l 2
 542 652 555 655 572 655 c 0
 579 655 586 648 586 642 c 0
 586 641 586 639 585 638 c 2
 173 -11 l 2
 165 -24 152 -26 137 -26 c 0
 128 -26 116 -18 121 -11 c 2
154 626 m 0
 157 627 159 628 161 628 c 0
 167 628 171 622 170 614 c 0
 168 600 166 576 166 544 c 0
 166 500 165 464 165 433 c 0
 165 403 166 378 166 354 c 0
 167 315 172 314 216 308 c 0
 224 307 228 301 228 295 c 0
 228 289 224 283 216 283 c 0
 159 283 166 288 134 288 c 0
 102 288 106 283 52 283 c 0
 45 283 41 290 41 297 c 0
 41 303 44 308 52 308 c 0
 79 310 106 313 106 354 c 2
 106 507 l 2
 106 534 69 548 52 554 c 0
 44 557 41 562 41 567 c 0
 41 574 46 580 51 581 c 0
 102 586 142 620 154 626 c 0
EndSplineSet
Validated: 1
EndChar
StartChar: Eth
Encoding: 208 208 127
Width: 716
VWidth: 982
Flags: HMW
AnchorPoint: "below_accent" 364 -80 basechar 0
AnchorPoint: "cedilla" 360 15 basechar 0
AnchorPoint: "ogonek" 394 15 basechar 0
AnchorPoint: "top_accent" 346 670 basechar 0
LayerCount: 2
Fore
SplineSet
337 598 m 4
 505 598 671 489 671 319 c 4
 671 146 574 -7 359 -7 c 4
 264 -7 211 4 165 4 c 4
 119 4 60 -2 53 -2 c 4
 42 -1 20 4 20 15 c 4
 20 30 53 35 75 45 c 4
 108 60 122 92 122 129 c 6
 122 482 l 6
 122 539 97 539 40 556 c 4
 31 559 24 564 24 573 c 4
 24 585 38 591 59 591 c 4
 90 591 109 590 139 590 c 4
 201 590 275 598 337 598 c 4
217 521 m 6
 217 167 l 6
 217 61 289 38 377 38 c 4
 496 38 559 172 559 299 c 4
 559 445 446 553 304 553 c 4
 261 553 217 543 217 521 c 6
EndSplineSet
Substitution2: "c2sc subtable" Eth.sc
EndChar
StartChar: multiply
Encoding: 215 215 134
Width: 376
VWidth: 982
Flags: HW
HStem: 61 289<59 83 291 312>
VStem: 47 284
LayerCount: 2
Fore
SplineSet
331 93 m 0
 331 78 312 61 299 61 c 0
 289 61 280 67 271 76 c 2
 188 159 l 1
 113 85 l 2
 102 74 87 61 72 61 c 0
 57 61 47 73 47 89 c 0
 47 102 53 117 67 131 c 2
 141 206 l 1
 67 280 l 2
 52 295 45 310 45 322 c 0
 45 338 59 350 74 350 c 0
 83 350 93 346 105 334 c 2
 187 252 l 1
 268 333 l 2
 279 344 291 349 301 349 c 0
 319 349 327 335 327 318 c 0
 327 308 323 296 313 286 c 2
 233 206 l 1
 316 123 l 2
 324 115 331 104 331 93 c 0
EndSplineSet
Substitution2: "Smallcaps subtable" multiply.sc
EndChar
StartChar: Oslash
Encoding: 216 216 135
Width: 713
VWidth: 982
Flags: HMW
AnchorPoint: "below_accent" 324 -80 basechar 0
AnchorPoint: "cedilla" 146 15 basechar 0
AnchorPoint: "ogonek" 410 15 basechar 0
AnchorPoint: "top_accent" 362 670 basechar 0
LayerCount: 2
Fore
SplineSet
562 524 m 1
 598 560 l 2
 627 589 638 598 652 598 c 0
 663 598 663 593 663 583 c 0
 663 573 657 563 650 556 c 2
 589 496 l 1
 634 444 663 377 663 310 c 0
 663 139 537 -12 366 -12 c 0
 281 -12 206 16 150 65 c 1
 103 18 l 2
 89 4 75 -12 63 -12 c 0
 54 -12 50 -8 50 1 c 0
 50 11 55 27 69 40 c 2
 122 93 l 1
 76 145 50 214 50 295 c 0
 50 484 192 598 390 598 c 0
 451 598 513 569 562 524 c 1
198 167 m 1
 501 464 l 1
 467 516 417 552 352 552 c 0
 242 552 162 440 162 330 c 0
 162 275 174 217 198 167 c 1
218 131 m 1
 255 74 310 34 380 34 c 0
 499 34 551 161 551 280 c 0
 551 331 540 383 520 428 c 1
 218 131 l 1
EndSplineSet
Substitution2: "c2sc subtable" Oslash.sc
EndChar
StartChar: germandbls
Encoding: 223 223 142
Width: 552
VWidth: 982
Flags: MW
LayerCount: 2
Fore
SplineSet
299 636 m 4
 201 636 180 513 180 425 c 6
 180 108 l 6
 180 72 186 49 203 44 c 4
 226 37 236 28 236 18 c 4
 236 8 228 -2 202 -2 c 4
 180 -2 155 4 139 4 c 4
 119 4 72 -2 50 -2 c 4
 24 -2 15 8 15 18 c 4
 15 28 32 36 59 44 c 4
 86 52 97 83 97 108 c 6
 98 362 l 5
 50 362 l 6
 40 363 23 365 23 375 c 4
 23 389 56 418 84 428 c 4
 95 432 97 438 97 449 c 4
 97 508 186 690 337 690 c 4
 402 690 484 652 484 590 c 4
 484 554 470 534 450 510 c 6
 376 421 l 6
 365 408 352 393 352 376 c 4
 352 358 365 344 378 332 c 6
 483 240 l 6
 518 210 531 189 531 151 c 4
 531 57 468 -8 380 -8 c 4
 352 -8 324 -4 314 0 c 4
 299 6 294 7 289 20 c 4
 284 33 272 68 272 83 c 4
 272 100 273 115 283 115 c 4
 293 115 313 106 327 75 c 4
 340 48 371 37 404 37 c 4
 432 37 465 74 465 100 c 4
 465 132 427 162 418 170 c 6
 354 226 l 6
 318 258 280 293 280 330 c 4
 280 374 305 403 337 438 c 6
 380 492 l 6
 400 517 405 537 405 568 c 4
 405 612 345 636 299 636 c 4
EndSplineSet
Validated: 1
Substitution2: "Smallcaps subtable" germandbls.sc
AlternateSubs2: "germandbls_variants subtable" germandbls.alt1 germandbls.alt2
EndChar
StartChar: thorn
Encoding: 254 254 173
Width: 445
VWidth: 982
Flags: MW
AnchorPoint: "top_accent" 110 785 basechar 0
LayerCount: 2
Fore
SplineSet
65 564 m 2
 65 584 50 604 26 613 c 0
 15 617 3 625 3 636 c 0
 3 647 18 655 32 657 c 0
 72 664 126 681 136 681 c 0
 148 681 148 673 148 651 c 2
 148 392 l 2
 148 387 154 382 162 390 c 0
 178 406 230 430 275 430 c 0
 358 430 425 341 425 257 c 0
 425 121 330 -6 197 -6 c 0
 177 -6 162 6 158 6 c 0
 149 6 148 1 148 -8 c 2
 148 -169 l 2
 148 -204 162 -212 216 -227 c 0
 243 -235 259 -243 259 -253 c 0
 259 -263 251 -273 225 -273 c 0
 191 -273 131 -260 38 -260 c 0
 12 -260 3 -250 3 -240 c 0
 3 -230 20 -222 47 -214 c 0
 60 -210 65 -186 65 -161 c 2
 65 564 l 2
148 294 m 2
 148 107 l 2
 148 70 183 45 220 45 c 0
 298 45 333 129 333 211 c 0
 333 294 310 378 223 378 c 0
 178 378 148 338 148 294 c 2
EndSplineSet
Validated: 1
Substitution2: "Smallcaps1 subtable" thorn.sc
EndChar
StartChar: Dcroat
Encoding: 272 272 750
Width: 716
VWidth: 982
Flags: HMW
LayerCount: 2
Fore
SplineSet
36 302 m 2
 22 302 0 303 0 314 c 0
 0 332 21 350 53 350 c 2
 359 350 l 2
 384 350 401 348 401 340 c 0
 401 325 388 302 358 302 c 2
 36 302 l 2
EndSplineSet
Refer: 36 68 N 1 0 0 1 0 0 2
Substitution2: "c2sc subtable" Dcroat.sc
EndChar
StartChar: Hbar
Encoding: 294 294 751
Width: 725
VWidth: 982
Flags: HMW
LayerCount: 2
Fore
SplineSet
36 413 m 2
 22 413 0 414 0 425 c 0
 0 443 21 461 53 461 c 2
 683 461 l 2
 708 461 725 459 725 451 c 0
 725 436 712 413 682 413 c 2
 36 413 l 2
EndSplineSet
Refer: 40 72 N 1 0 0 1 0 0 2
Substitution2: "c2sc subtable" Hbar.sc
EndChar
StartChar: hbar
Encoding: 295 295 752
Width: 543
VWidth: 982
Flags: HMW
LayerCount: 2
Fore
SplineSet
36 495 m 2
 22 495 0 496 0 507 c 0
 0 525 21 543 53 543 c 2
 306 543 l 2
 331 543 348 541 348 533 c 0
 348 518 335 495 305 495 c 2
 36 495 l 2
EndSplineSet
Refer: 72 104 N 1 0 0 1 0 0 2
Substitution2: "Smallcaps1 subtable" hbar.sc
EndChar
StartChar: OE
Encoding: 338 338 214
Width: 892
VWidth: 982
Flags: HMW
LayerCount: 2
Fore
SplineSet
366 -12 m 0
 187 -12 50 113 50 295 c 0
 50 484 192 598 390 598 c 0
 424 598 442 591 476 591 c 2
 676 591 l 2
 718 591 777 596 795 596 c 0
 811 596 819 591 821 582 c 0
 825 566 830 511 830 500 c 0
 830 488 826 474 814 474 c 0
 802 474 787 492 778 512 c 0
 770 529 745 545 697 545 c 2
 612 545 l 2
 585 545 581 537 581 524 c 2
 581 356 l 2
 581 332 590 325 604 325 c 2
 656 325 l 2
 688 325 699 336 717 353 c 0
 728 363 737 378 748 378 c 0
 757 378 759 370 759 358 c 0
 759 350 755 315 755 300 c 0
 755 285 756 254 756 243 c 0
 756 233 753 217 743 217 c 0
 730 217 717 245 711 255 c 0
 704 266 697 276 676 276 c 2
 605 276 l 2
 586 276 581 271 581 252 c 2
 581 140 l 2
 581 88 602 45 650 45 c 2
 725 45 l 2
 802 45 815 77 844 138 c 0
 849 149 862 157 871 157 c 0
 881 157 885 147 885 132 c 0
 885 104 855 30 847 17 c 0
 839 2 837 -2 820 -2 c 0
 783 -2 685 3 579 3 c 0
 532 3 475 -2 468 -2 c 0
 457 -1 406 -12 366 -12 c 0
352 552 m 0
 242 552 162 440 162 330 c 0
 162 191 241 34 380 34 c 0
 455 34 486 92 486 129 c 2
 486 482 l 2
 486 535 400 552 352 552 c 0
EndSplineSet
Substitution2: "c2sc subtable" OE.sc
EndChar
StartChar: Tbar
Encoding: 358 358 759
Width: 592
VWidth: 982
Flags: HMW
LayerCount: 2
Fore
SplineSet
157 304 m 2
 143 304 121 305 121 316 c 0
 121 334 142 352 174 352 c 2
 472 352 l 2
 497 352 514 350 514 342 c 0
 514 327 501 304 471 304 c 2
 157 304 l 2
EndSplineSet
Refer: 52 84 N 1 0 0 1 0 0 2
Substitution2: "c2sc subtable" Tbar.sc
EndChar
StartChar: tbar
Encoding: 359 359 760
Width: 325
VWidth: 982
Flags: HMW
LayerCount: 2
Fore
SplineSet
52 222 m 2
 38 222 16 223 16 234 c 0
 16 252 37 270 69 270 c 2
 240 270 l 2
 265 270 282 268 282 260 c 0
 282 245 269 222 239 222 c 2
 52 222 l 2
EndSplineSet
Refer: 84 116 N 1 0 0 1 0 0 2
Substitution2: "Smallcaps1 subtable" tbar.sc
EndChar
StartChar: uni01DD
Encoding: 477 477 1419
Width: 389
VWidth: 982
Flags: HMW
AnchorPoint: "below_accent" 192 -80 basechar 0
AnchorPoint: "ogonek" 253 5 basechar 0
AnchorPoint: "cedilla" 236 5 basechar 0
AnchorPoint: "top_accent" 223 596 basechar 0
LayerCount: 2
Fore
SplineSet
22 96 m 4
 22 123 43 164 69 164 c 6
 263 164 l 6
 277 164 279 166 282 174 c 4
 286 185 286 187 286 204 c 4
 286 280 239 362 160 362 c 4
 110 362 66 339 56 339 c 4
 46 339 41 343 41 353 c 4
 41 382 99 430 197 430 c 4
 308 430 370 322 370 209 c 4
 370 86 276 -8 154 -8 c 4
 86 -8 22 45 22 96 c 4
265 107 m 12
 265 114 264 118 252 118 c 6
 137 118 l 6
 118 118 109 101 109 87 c 4
 109 58 139 38 168 38 c 4
 228 38 265 87 265 107 c 12
EndSplineSet
EndChar
StartChar: uni01E4
Encoding: 484 484 761
Width: 710
VWidth: 982
Flags: HMW
LayerCount: 2
Fore
SplineSet
433 107 m 2
 419 107 397 108 397 119 c 0
 397 137 418 155 450 155 c 2
 668 155 l 2
 693 155 710 153 710 145 c 0
 710 130 697 107 667 107 c 2
 433 107 l 2
EndSplineSet
Refer: 39 71 N 1 0 0 1 0 0 2
EndChar
StartChar: uni01E5
Encoding: 485 485 762
Width: 479
VWidth: 982
Flags: HMW
LayerCount: 2
Fore
SplineSet
-37 -149 m 2
 -51 -149 -73 -148 -73 -137 c 0
 -73 -119 -52 -101 -20 -101 c 2
 432 -101 l 2
 457 -101 474 -103 474 -111 c 0
 474 -126 461 -149 431 -149 c 2
 -37 -149 l 2
EndSplineSet
Refer: 71 103 N 1 0 0 1 0 0 2
EndChar
StartChar: uni0237
Encoding: 567 567 253
Width: 231
VWidth: 982
Flags: HW
HStem: -267 21G<6.5 15>
VStem: 93 83<-87.8934 341.568>
AnchorPoint: "top_accent" 133 596 basechar 0
LayerCount: 2
Fore
SplineSet
93 302 m 2
 93 320 76 344 52 353 c 0
 41 357 31 363 31 374 c 0
 31 385 47 393 60 399 c 0
 71 405 154 438 164 438 c 0
 176 438 176 429 176 410 c 2
 176 27 l 2
 176 -95 107 -187 52 -242 c 0
 28 -266 18 -267 12 -267 c 0
 1 -267 -5 -258 -5 -246 c 256
 -5 -241 -2 -231 7 -225 c 0
 22 -215 43 -190 50 -178 c 0
 71 -144 93 -86 93 -9 c 2
 93 302 l 2
EndSplineSet
EndChar
StartChar: uni0251
Encoding: 593 593 2154
Width: 515
VWidth: 982
Flags: HW
AnchorPoint: "below_accent" 229 -80 basechar 0
AnchorPoint: "ogonek" 437 5 basechar 0
AnchorPoint: "top_accent" 237 596 basechar 0
LayerCount: 2
Fore
SplineSet
327 31 m 4
 296.563214114 6.61553640291 263 -8 195 -8 c 4
 90 -8 22 94 22 199 c 4
 22 319 127 430 251 430 c 4
 287 430 334.269670224 415.005823752 353 400 c 4
 361.038433196 393.56000064 363 395 370 399 c 4
 381 406 398 417 408 417 c 4
 420 417 422 404 422 384 c 6
 422 91 l 6
 422 76 442 63 458 63 c 4
 472 63 487 76 494 76 c 4
 500 76 503 65 503 54 c 4
 503 18 453 -8 413 -8 c 4
 380 -8 356.733396887 14.8148246168 344 33 c 4
 339.984964946 38.73406431 331.682582444 34.751455938 327 31 c 4
114 230 m 4
 114 133 156 37 257 37 c 4
 293 37 339 72 339 115 c 6
 339 266 l 6
 339 335 290.568359375 387 226 387 c 4
 156 387 114 303 114 230 c 4
EndSplineSet
EndChar
StartChar: uni02BF
Encoding: 703 703 2155
Width: 231
VWidth: 0
Flags: W
HStem: 392 30<143.37 195.32> 578 38<121.75 195.523>
VStem: 24 74<455.4 556.977>
LayerCount: 2
Fore
SplineSet
155 392 m 0
 90 392 24 429 24 494 c 0
 24 571 101 616 178 616 c 0
 186 616 197 610 197 604 c 0
 197 590 182 578 168 578 c 0
 138 578 98 551 98 513 c 0
 98 464 133.936523438 430.651367188 183 422 c 0
 192.84765625 420.263671875 197 419 197 413 c 0
 197 399 173 392 155 392 c 0
EndSplineSet
EndChar
StartChar: gravecomb
Encoding: 768 768 265
Width: 0
Flags: MW
AnchorPoint: "top_accent" 124 596 mark 0
LayerCount: 2
Fore
SplineSet
126 512 m 0
 95 545 8 646 8 660 c 0
 8 676 38 683 63 683 c 0
 73 683 84 675 90 665 c 0
 109 632 165 518 165 503 c 0
 165 494 165 490 156 490 c 0
 148 490 134 503 126 512 c 0
EndSplineSet
Validated: 1
Substitution2: "Smallcaps1 subtable" gravecomb.sc
Substitution2: "Single Substitution lookup 24 subtable" gravecomb.grkstack
Substitution2: "Single Substitution lookup 22 subtable" gravecomb.grk
Substitution2: "Single Substitution lookup 17 subtable" gravecomb.stack
Substitution2: "Single Substitution lookup 15 subtable" gravecomb.flat
Substitution2: "Single Substitution lookup 13 subtable" gravecomb.flat
Substitution2: "'case' Case-Sensitive Forms lookup 8 subtable" gravecomb.cap
EndChar
StartChar: acutecomb
Encoding: 769 769 266
Width: 0
Flags: MW
AnchorPoint: "top_accent" 54 596 mark 0
LayerCount: 2
Fore
SplineSet
53 512 m 0
 45 503 31 490 23 490 c 0
 14 490 14 494 14 503 c 0
 14 518 71 632 90 665 c 0
 96 675 107 683 117 683 c 0
 142 683 171 676 171 660 c 0
 171 646 84 545 53 512 c 0
EndSplineSet
Validated: 1
Substitution2: "Smallcaps1 subtable" acutecomb.sc
Substitution2: "Single Substitution lookup 24 subtable" acutecomb.grkstack
Substitution2: "Single Substitution lookup 22 subtable" acutecomb.grk
Substitution2: "Single Substitution lookup 17 subtable" acutecomb.stack
Substitution2: "Single Substitution lookup 15 subtable" acutecomb.flat
Substitution2: "Single Substitution lookup 13 subtable" acutecomb.flat
Substitution2: "'case' Case-Sensitive Forms lookup 8 subtable" acutecomb.cap
EndChar
StartChar: tildecomb
Encoding: 771 771 268
Width: 0
Flags: MW
AnchorPoint: "top_stack" 148 644 basemark 0
AnchorPoint: "top_accent" 166 596 mark 0
LayerCount: 2
Fore
SplineSet
40 489 m 0
 30 489 26 499 26 509 c 0
 26 519 89 593 114 593 c 0
 139 593 196 591 221 591 c 0
 256 591 279 635 287 635 c 0
 297 635 303 628 303 618 c 0
 303 608 234 517 209 517 c 0
 184 517 122 518 97 518 c 0
 72 518 48 489 40 489 c 0
EndSplineSet
Validated: 1
Substitution2: "Smallcaps1 subtable" tildecomb.sc
Substitution2: "Single Substitution lookup 17 subtable" tildecomb.stack
Substitution2: "Single Substitution lookup 15 subtable" tildecomb.stack
Substitution2: "'case' Case-Sensitive Forms lookup 8 subtable" tildecomb.cap
EndChar
StartChar: uni0306
Encoding: 774 774 271
Width: 0
Flags: MW
AnchorPoint: "top_accent" 170 596 mark 0
LayerCount: 2
Fore
SplineSet
92 615 m 0
 97 590 121 572 171 572 c 0
 221 572 241 590 246 615 c 0
 248 625 251 636 261 636 c 0
 271 636 276 625 276 612 c 0
 276 562 229 506 159 506 c 0
 89 506 62 562 62 612 c 0
 62 625 67 636 77 636 c 0
 87 636 90 625 92 615 c 0
EndSplineSet
Validated: 1
Substitution2: "Smallcaps1 subtable" uni0306.sc
Substitution2: "Single Substitution lookup 17 subtable" uni0306.stack
Substitution2: "Single Substitution lookup 15 subtable" uni0306.stack
Substitution2: "'case' Case-Sensitive Forms lookup 8 subtable" uni0306.cap
EndChar
StartChar: uni0307
Encoding: 775 775 252
Width: 0
VWidth: 982
Flags: MW
AnchorPoint: "top_accent" 85 596 mark 0
LayerCount: 2
Fore
SplineSet
85 645 m 0
 115 645 140 621 140 591 c 0
 140 560 116 535 85 535 c 0
 54 535 30 560 30 591 c 0
 30 621 55 645 85 645 c 0
EndSplineSet
Validated: 1
Substitution2: "Smallcaps1 subtable" uni0307.sc
Substitution2: "Single Substitution lookup 17 subtable" uni0307.stack
Substitution2: "Single Substitution lookup 15 subtable" uni0307.stack
Substitution2: "'case' Case-Sensitive Forms lookup 8 subtable" uni0307.cap
EndChar
StartChar: uni0308
Encoding: 776 776 272
Width: 0
Flags: MW
AnchorPoint: "top_stack" 148 474 mark 0
AnchorPoint: "top_stack" 148 636 basemark 0
AnchorPoint: "gravestack" 143 570 basemark 0
AnchorPoint: "acutestack" 152 570 basemark 0
AnchorPoint: "top_accent" 152 596 mark 0
LayerCount: 2
Fore
SplineSet
238 625 m 0
 267 625 291 601 291 572 c 0
 291 543 267 519 238 519 c 0
 209 519 185 543 185 572 c 0
 185 601 209 625 238 625 c 0
67 625 m 0
 96 625 120 601 120 572 c 0
 120 543 96 519 67 519 c 0
 38 519 14 543 14 572 c 0
 14 601 38 625 67 625 c 0
EndSplineSet
Validated: 1
Substitution2: "Smallcaps1 subtable" uni0308.sc
Substitution2: "Single Substitution lookup 19 subtable" uni0308.grkstack
Substitution2: "'case' Case-Sensitive Forms lookup 8 subtable" uni0308.cap
EndChar
StartChar: hookabovecomb
Encoding: 777 777 273
Width: 0
Flags: MW
AnchorPoint: "top_accent" 114 596 mark 0
LayerCount: 2
Fore
SplineSet
37 601 m 0
 19 601 13 626 13 640 c 0
 13 650 17 659 26 664 c 0
 46 676 81 690 120 690 c 0
 156 690 194 672 194 636 c 0
 194 602 171 578 138 564 c 0
 126 559 126 549 126 543 c 0
 126 539 128 534 131 528 c 0
 136 519 115 517 105 517 c 0
 92 517 81 543 81 557 c 0
 81 569 100 582 111 592 c 0
 125 604 133 608 133 624 c 0
 133 640 120 652 104 652 c 0
 85 652 70 641 55 610 c 0
 52 604 43 601 37 601 c 0
EndSplineSet
Validated: 1
Substitution2: "Smallcaps1 subtable" hookabovecomb.sc
Substitution2: "Single Substitution lookup 17 subtable" hookabovecomb.stack
Substitution2: "Single Substitution lookup 15 subtable" hookabovecomb.stack
EndChar
StartChar: uni030A
Encoding: 778 778 274
Width: 0
Flags: MW
AnchorPoint: "top_accent" 114 596 mark 0
LayerCount: 2
Fore
SplineSet
115 692 m 0
 159 692 196 658 196 614 c 0
 196 562 153 525 109 525 c 0
 65 525 28 564 28 608 c 0
 28 652 71 692 115 692 c 0
74 613 m 0
 74 585 88 555 116 555 c 0
 140 555 150 583 150 607 c 0
 150 634 133 660 106 660 c 0
 84 660 74 635 74 613 c 0
EndSplineSet
Validated: 1
Substitution2: "Smallcaps1 subtable" uni030A.sc
Substitution2: "Single Substitution lookup 17 subtable" uni030A.stack
Substitution2: "Single Substitution lookup 15 subtable" uni030A.stack
Substitution2: "'case' Case-Sensitive Forms lookup 8 subtable" uni030A.cap
EndChar

StartChar: uni030B
Encoding: 779 779 275
Width: 0
Flags: W
HStem: 501 193<138 143>
VStem: 14 281
AnchorPoint: "top_accent" 133 596 mark 0
LayerCount: 2
Fore
SplineSet
177 523 m 0
 169 514 155 501 147 501 c 0
 138 501 138 505 138 514 c 0
 138 529 196 643 215 676 c 0
 221 686 232 694 242 694 c 0
 267 694 295 687 295 671 c 0
 295 657 208 556 177 523 c 0
53 523 m 0
 45 514 31 501 23 501 c 0
 14 501 14 505 14 514 c 0
 14 529 72 643 91 676 c 0
 97 686 108 694 118 694 c 0
 143 694 171 687 171 671 c 0
 171 657 84 556 53 523 c 0
EndSplineSet
Validated: 1
EndChar
StartChar: uni030C
Encoding: 780 780 276
Width: 0
Flags: MW
AnchorPoint: "top_accent" 140 596 mark 0
LayerCount: 2
Fore
SplineSet
148 590 m 0
 171 622 195 649 208 664 c 0
 216 673 230 686 238 686 c 0
 247 686 247 682 247 673 c 0
 247 658 179 536 159 503 c 0
 154 494 147 485 139 485 c 0
 131 485 124 494 119 503 c 0
 99 536 30 658 30 673 c 0
 30 682 30 686 39 686 c 0
 47 686 61 673 69 664 c 0
 82 649 108 620 130 590 c 0
 136 582 142 582 148 590 c 0
EndSplineSet
Validated: 1
Substitution2: "Smallcaps1 subtable" uni030C.sc
Substitution2: "Single Substitution lookup 17 subtable" uni030C.stack
Substitution2: "Single Substitution lookup 15 subtable" uni030C.stack
Substitution2: "Single Substitution lookup 13 subtable" uni030C.flat
Substitution2: "Single Substitution lookup 12 subtable" uni030C.alt
Substitution2: "'case' Case-Sensitive Forms lookup 8 subtable" uni030C.cap
EndChar

StartChar: uni030F
Encoding: 783 783 683
Width: 0
Flags: W
HStem: 490 193<159 165>
VStem: 8 278
AnchorPoint: "top_accent" 184 596 mark 0
LayerCount: 2
Fore
SplineSet
247 512 m 0
 216 545 129 646 129 660 c 0
 129 676 159 683 184 683 c 0
 194 683 205 675 211 665 c 0
 230 632 286 518 286 503 c 0
 286 494 286 490 277 490 c 0
 269 490 255 503 247 512 c 0
126 512 m 0
 95 545 8 646 8 660 c 0
 8 676 38 683 63 683 c 0
 73 683 84 675 90 665 c 0
 109 632 165 518 165 503 c 0
 165 494 165 490 156 490 c 0
 148 490 134 503 126 512 c 0
EndSplineSet
Validated: 1
EndChar

StartChar: uni0311
Encoding: 785 785 277
Width: 0
Flags: W
HStem: 570 66<106.404 234.61>
VStem: 62 30<506.008 553.265> 246 30<506.008 551.277>
AnchorPoint: "top_accent" 171 596 mark 0
LayerCount: 2
Fore
SplineSet
246 527 m 0
 241 552 217 570 167 570 c 0
 117 570 97 552 92 527 c 0
 90 517 87 506 77 506 c 0
 67 506 62 517 62 530 c 0
 62 580 105 636 175 636 c 0
 245 636 276 580 276 530 c 0
 276 517 271 506 261 506 c 0
 251 506 248 517 246 527 c 0
EndSplineSet
Validated: 1
EndChar
StartChar: uni0313
Encoding: 787 787 684
Width: 0
VWidth: 982
Flags: MW
AnchorPoint: "top_accent" 93 596 mark 0
LayerCount: 2
Fore
SplineSet
62 690 m 0
 107 690 149 656 149 610 c 0
 149 548 100 490 44 490 c 0
 33 490 28 493 28 503 c 0
 28 515 83 536 83 568 c 0
 83 597 71 612 47 619 c 0
 29 625 15 639 15 659 c 0
 15 681 39 690 62 690 c 0
EndSplineSet
Validated: 1
Substitution2: "Smallcaps1 subtable" uni0313.sc
Substitution2: "Single Substitution lookup 21 subtable" uni0313.grkstack
Substitution2: "Single Substitution lookup 20 subtable" uni0313.grk
EndChar
StartChar: uni0314
Encoding: 788 788 685
Width: 0
VWidth: 982
Flags: MW
AnchorPoint: "top_accent" 93 596 mark 0
LayerCount: 2
Fore
SplineSet
102 690 m 0
 125 690 149 681 149 659 c 0
 149 639 135 625 117 619 c 0
 93 612 81 597 81 568 c 0
 81 536 136 515 136 503 c 0
 136 493 131 490 120 490 c 0
 64 490 15 548 15 610 c 0
 15 656 57 690 102 690 c 0
EndSplineSet
Validated: 1
Substitution2: "Smallcaps1 subtable" uni0314.sc
Substitution2: "Single Substitution lookup 21 subtable" uni0314.grkstack
Substitution2: "Single Substitution lookup 20 subtable" uni0314.grk
EndChar
StartChar: Kappa
Encoding: 922 922 876
Width: 681
Flags: HW
LayerCount: 2
Fore
SplineSet
659 -5 m 0
 600 -5 575 0 520 0 c 0
 495 0 484 -1 439 -1 c 0
 422 -1 410 2 410 10 c 0
 410 19 418 23 437 27 c 0
 457 32 465 39 465 47 c 0
 465 55 458 63 450 72 c 2
 238 306 l 2
 230 314 220 323 215 323 c 0
 210 323 211 309 211 302 c 0
 211 239 213 190 216 110 c 0
 218 67 230 33 280 24 c 0
 303 20 313 15 313 6 c 0
 313 -2 301 -5 284 -5 c 0
 230 -5 224 2 186 2 c 0
 137 2 114 -5 60 -5 c 0
 43 -5 31 -2 31 6 c 0
 31 15 41 20 64 24 c 0
 114 33 131 51 131 101 c 2
 131 551 l 2
 131 597 114 613 64 622 c 0
 41 626 31 633 31 642 c 0
 31 650 43 653 60 653 c 0
 114 653 128 651 172 651 c 0
 210 651 215 653 269 653 c 0
 286 653 298 650 298 642 c 0
 298 633 288 626 265 622 c 0
 215 613 211 590 211 551 c 2
 211 364 l 2
 211 359 211 345 216 345 c 0
 223 345 236 355 243 363 c 2
 443 567 l 2
 453 577 458 588 458 597 c 0
 458 608 451 617 439 620 c 0
 416 626 408 631 408 640 c 0
 408 648 420 651 437 651 c 2
 491 651 l 2
 544 651 614 652 646 655 c 1
 653 655 l 2
 666 655 675 651 675 644 c 0
 675 635 665 628 642 624 c 0
 592 615 536 597 490 558 c 0
 418 497 368 448 298 371 c 0
 293 366 296 360 303 353 c 2
 545 95 l 1
 588 47 598 36 655 24 c 0
 678 19 688 15 688 6 c 0
 688 -2 676 -5 659 -5 c 0
EndSplineSet
Substitution2: "c2sc subtable" Kappa.sc
EndChar

StartChar: Upsilon
Encoding: 933 933 886
Width: 739
Flags: HW
LayerCount: 2
Fore
SplineSet
592 650 m 0
 653 650 690 616 717 589 c 0
 721 585 728 577 728 573 c 0
 728 569 722 565 719 567 c 0
 688 589 646 600 605 600 c 0
 471 600 405 450 405 288 c 2
 405 108 l 2
 405 63 434 33 484 24 c 0
 507 20 517 15 517 6 c 0
 517 -2 505 -5 488 -5 c 0
 434 -5 417 0 371 0 c 0
 321 0 297 -5 243 -5 c 0
 226 -5 214 -2 214 6 c 0
 214 15 224 20 247 24 c 0
 297 33 325 60 325 108 c 2
 325 287 l 2
 325 405 276 600 150 600 c 0
 101 600 55 573 30 549 c 0
 27 546 20 549 20 553 c 1
 20 553 19 560 32 575 c 0
 45 591 107 650 170 650 c 0
 320 650 361 452 365 452 c 0
 369 452 442 650 592 650 c 0
EndSplineSet
Substitution2: "c2sc subtable" Upsilon.sc
EndChar
StartChar: Phi
Encoding: 934 934 887
Width: 703
Flags: HW
LayerCount: 2
Fore
SplineSet
311 76 m 2
 311 82 l 1
 170 94 35 177 35 317 c 0
 35 464 168 556 311 572 c 1
 311 583 l 2
 311 603 294 614 244 623 c 0
 221 627 211 634 211 643 c 0
 211 651 223 654 240 654 c 0
 294 654 311 651 357 651 c 0
 400 651 412 654 466 654 c 0
 483 654 495 651 495 643 c 0
 495 634 485 627 462 623 c 0
 412 614 391 603 391 583 c 2
 391 572 l 1
 536 560 668 478 668 338 c 0
 668 191 537 98 391 82 c 1
 391 76 l 2
 391 36 420 33 470 24 c 0
 493 20 503 15 503 6 c 0
 503 -2 491 -5 474 -5 c 0
 420 -5 403 0 357 0 c 0
 307 0 283 -5 229 -5 c 0
 212 -5 200 -2 200 6 c 0
 200 15 210 20 233 24 c 0
 283 33 311 36 311 76 c 2
391 541 m 1
 391 113 l 1
 490 130 576 221 576 322 c 0
 576 450 498 525 391 541 c 1
311 115 m 1
 311 541 l 1
 211 527 127 452 127 350 c 0
 127 236 205 138 311 115 c 1
EndSplineSet
Substitution2: "c2sc subtable" Phi.sc
EndChar

StartChar: alpha
Encoding: 945 945 843
Width: 502
Flags: HW
LayerCount: 2
Fore
SplineSet
317 119 m 1
 295 62 234 -14 140 -14 c 0
 73 -14 35 51 35 142 c 0
 35 252 116 394 199 394 c 0
 269 394 300 337 318 279 c 0
 320 273 322 265 324 265 c 0
 325 265 328 275 329 279 c 0
 345 343 355 414 400 414 c 0
 424 414 433 394 433 381 c 0
 433 345 380 266 356 213 c 0
 349 198 347 183 347 162 c 0
 347 112 371 58 421 58 c 0
 458 58 492 111 494 111 c 0
 503 111 505 105 505 96 c 0
 505 25 446 -15 407 -15 c 0
 361 -15 323 55 317 119 c 1
299 193 m 0
 299 254 245 323 205 323 c 0
 158 323 75 238 75 141 c 0
 75 68 100 42 133 42 c 0
 163 42 222 74 256 107 c 0
 290 140 299 156 299 193 c 0
EndSplineSet
Substitution2: "Smallcaps subtable" alpha.sc
EndChar

StartChar: gamma
Encoding: 947 947 845
Width: 430
Flags: HW
LayerCount: 2
Fore
SplineSet
237 100 m 0
 286 192 334 341 352 406 c 0
 354 414 359 426 367 426 c 0
 389 426 415 398 415 363 c 0
 415 327 310 165 237 19 c 0
 232 8 230 -7 230 -11 c 0
 229 -40 215 -232 211 -254 c 0
 208 -273 194 -285 183 -285 c 0
 161 -285 132 -254 132 -228 c 0
 132 -160 176 -54 188 -26 c 0
 202 7 199 53 197 84 c 0
 186 231 117 328 64 328 c 0
 33 328 10 301 3 301 c 0
 -4 301 -7 303 -7 313 c 0
 -7 345 33 414 94 414 c 0
 154 414 223 226 223 107 c 0
 223 102 223 94 228 94 c 0
 232 94 235 96 237 100 c 0
EndSplineSet
Substitution2: "Smallcaps subtable" gamma.sc
EndChar

StartChar: zeta
Encoding: 950 950 848
Width: 329
Flags: HW
LayerCount: 2
Fore
SplineSet
35 163 m 0
 35 243 73 388 157 520 c 0
 169 539 169 542 169 547 c 0
 169 553 164 552 155 552 c 0
 109 552 56 577 56 636 c 0
 56 682 109 714 152 714 c 0
 159 714 160 714 160 704 c 0
 160 694 125 684 125 642 c 0
 125 605 143 579 176 579 c 0
 185 579 187 580 194 588 c 0
 251 659 292 690 303 690 c 0
 326 690 334 678 334 639 c 0
 334 622 320 611 301 598 c 0
 185 519 75 355 75 177 c 1
 74 127 102 75 154 75 c 0
 165 75 253 78 265 78 c 0
 290 78 314 62 314 1 c 0
 314 -96 252 -190 191 -190 c 0
 170 -190 138 -161 138 -141 c 0
 138 -123 147 -118 160 -118 c 0
 232 -118 279 -65 279 -26 c 0
 279 -8 264 0 240 0 c 0
 225 0 152 -5 132 -5 c 0
 56 -5 35 86 35 163 c 0
EndSplineSet
Substitution2: "Smallcaps subtable" zeta.sc
EndChar
StartChar: eta
Encoding: 951 951 849
Width: 460
Flags: HW
LayerCount: 2
Fore
SplineSet
122 256 m 0
 122 277 120 328 74 328 c 0
 43 328 34 315 27 315 c 0
 20 315 17 317 17 327 c 0
 17 359 60 414 95 414 c 0
 144 414 157 376 157 307 c 0
 157 255 154 238 149 201 c 0
 148 197 151 194 154 194 c 0
 157 194 159 193 164 205 c 0
 219 341 287 414 338 414 c 0
 388 414 392 341 392 278 c 2
 392 -235 l 2
 392 -265 384 -285 368 -285 c 0
 334 -285 299 -266 300 -231 c 0
 300 -217 309 -191 316 -161 c 0
 329 -108 354 161 354 257 c 0
 354 281 351 334 313 334 c 0
 268 334 198 211 145 28 c 0
 139 8 133 -14 119 -14 c 0
 109 -14 83 1 83 20 c 0
 83 41 93 80 104 119 c 0
 114 156 122 204 122 256 c 0
EndSplineSet
Substitution2: "Smallcaps subtable" eta.sc
EndChar

StartChar: theta
Encoding: 952 952 850
Width: 430
Flags: HW
LayerCount: 2
Fore
SplineSet
314 338 m 2
 102 339 l 2
 94 339 90 331 90 324 c 0
 90 235 102 56 201 56 c 0
 280 56 316 198 327 323 c 0
 328 334 326 338 314 338 c 2
225 623 m 0
 161 623 116 495 101 401 c 0
 100 395 104 388 111 388 c 2
 325 387 l 2
 332 387 337 393 337 400 c 0
 333 515 309 623 225 623 c 0
225 697 m 0
 315 697 385 497 385 386 c 0
 385 262 331 -14 207 -14 c 0
 115 -14 45 196 45 331 c 0
 45 484 129 697 225 697 c 0
EndSplineSet
Substitution2: "Smallcaps subtable" theta.sc
EndChar
StartChar: xi
Encoding: 958 958 856
Width: 359
Flags: HW
LayerCount: 2
Fore
SplineSet
145 588 m 0
 99 588 46 600 46 659 c 0
 46 705 99 737 142 737 c 0
 149 737 150 737 150 727 c 0
 150 717 115 707 115 665 c 0
 115 628 133 610 166 610 c 0
 170 610 182 616 186 619 c 0
 220 646 281 685 303 685 c 0
 330 685 337 671 337 656 c 0
 337 646 320 618 301 611 c 0
 260 596 222 574 200 557 c 0
 140 510 110 470 110 423 c 0
 110 388 141 360 177 360 c 0
 224 360 281 407 303 407 c 0
 330 407 337 395 337 378 c 0
 337 355 320 340 301 333 c 0
 260 318 223 305 183 280 c 0
 127 244 74 200 74 124 c 0
 74 102 99 59 132 59 c 0
 167 59 235 82 270 82 c 0
 295 82 354 62 354 1 c 0
 354 -96 292 -190 231 -190 c 0
 210 -190 178 -161 178 -141 c 0
 178 -123 187 -118 200 -118 c 0
 272 -118 319 -65 319 -26 c 0
 319 -8 301 0 277 0 c 0
 262 0 161 -17 141 -17 c 0
 67 -17 35 56 35 109 c 0
 35 197 92 272 144 316 c 0
 152 322 160 326 144 332 c 0
 99 350 60 370 60 437 c 0
 60 477 100 541 139 576 c 0
 149 585 151 588 145 588 c 0
EndSplineSet
Substitution2: "Smallcaps subtable" xi.sc
EndChar
StartChar: pi
Encoding: 960 960 858
Width: 521
Flags: HW
LayerCount: 2
Fore
SplineSet
506 430 m 0
 516 430 521 422 521 399 c 0
 521 370 493 332 469 332 c 0
 442 332 411 336 397 336 c 0
 375 336 365 333 363 305 c 0
 360 261 360 159 360 99 c 0
 360 74 378 64 392 64 c 0
 413 64 424 78 427 78 c 0
 436 78 437 73 437 62 c 0
 437 28 417 -14 367 -14 c 0
 333 -14 313 19 313 86 c 0
 313 136 322 262 322 312 c 0
 322 324 318 337 308 337 c 2
 241 340 l 2
 224 341 217 329 212 299 c 2
 172 34 l 2
 167 3 159 -17 149 -17 c 0
 135 -17 110 10 110 20 c 0
 110 32 113 47 119 70 c 2
 171 284 l 2
 177 307 178 319 178 329 c 0
 178 341 169 345 149 345 c 0
 103 345 68 318 45 247 c 0
 43 242 39 236 31 236 c 0
 23 236 15 250 15 276 c 0
 15 331 55 410 185 410 c 0
 266 410 357 400 423 400 c 0
 508 400 496 430 506 430 c 0
EndSplineSet
Substitution2: "Smallcaps subtable" pi.sc
EndChar
StartChar: sigma1
Encoding: 962 962 2014
Width: 340
Flags: HW
LayerCount: 2
Fore
SplineSet
260 413 m 0
 277 413 309 402 309 371 c 0
 309 340 296 325 261 325 c 0
 167 325 70 272 70 178 c 0
 70 127 98 75 150 75 c 0
 161 75 249 78 261 78 c 0
 286 78 310 62 310 1 c 0
 310 -96 248 -190 187 -190 c 0
 166 -190 134 -161 134 -141 c 0
 134 -123 143 -118 156 -118 c 0
 228 -118 275 -65 275 -26 c 0
 275 -8 260 0 236 0 c 0
 221 0 148 -5 128 -5 c 0
 52 -5 30 87 30 163 c 0
 30 272 160 413 260 413 c 0
EndSplineSet
Substitution2: "Smallcaps subtable" sigma1.sc
EndChar

StartChar: upsilon
Encoding: 965 965 862
Width: 424
Flags: HW
LayerCount: 2
Fore
SplineSet
120 256 m 0
 120 277 118 328 72 328 c 0
 41 328 32 315 25 315 c 0
 18 315 15 317 15 327 c 0
 15 359 58 414 93 414 c 0
 142 414 165 376 165 307 c 0
 165 255 131 166 131 140 c 0
 131 81 148 62 194 62 c 0
 264 62 334 155 334 249 c 0
 334 343 292 409 292 416 c 0
 292 421 296 424 300 424 c 0
 347 424 389 300 389 227 c 0
 389 109 297 -14 198 -14 c 0
 129 -14 82 45 82 106 c 0
 82 132 120 204 120 256 c 0
EndSplineSet
Substitution2: "Smallcaps subtable" upsilon.sc
EndChar
StartChar: chi
Encoding: 967 967 864
Width: 438
Flags: HW
LayerCount: 2
Fore
SplineSet
108 -161 m 2
 63 -247 70 -290 51 -290 c 0
 43 -290 22 -288 22 -225 c 0
 22 -211 29 -177 40 -157 c 2
 201 129 l 1
 200 133 200 141 199 145 c 0
 186 234 149 340 69 340 c 0
 43 340 7 301 0 301 c 0
 -7 301 -10 303 -10 313 c 0
 -10 345 30 414 91 414 c 0
 159 414 194 322 207 252 c 0
 211 229 218 189 223 158 c 1
 329 381 l 2
 335 393 343 414 352 414 c 0
 364 414 397 383 397 354 c 0
 397 344 383 321 371 299 c 1
 239 82 l 1
 245 50 252 7 261 -27 c 0
 295 -163 325 -191 357 -191 c 0
 393 -191 429 -157 437 -157 c 0
 442 -157 448 -161 448 -166 c 0
 448 -241 393 -271 350 -271 c 0
 317 -271 280 -258 265 -208 c 0
 245 -144 225 -28 216 42 c 1
 108 -161 l 2
EndSplineSet
Substitution2: "Smallcaps subtable" chi.sc
EndChar

StartChar: uni0401
Encoding: 1025 1025 2021
Width: 535
Flags: HW
LayerCount: 2
Fore
SplineSet
384 795 m 0
 412 795 434 773 434 745 c 0
 434 717 412 695 384 695 c 0
 356 695 334 717 334 745 c 0
 334 773 356 795 384 795 c 0
189 795 m 0
 217 795 239 773 239 745 c 0
 239 717 217 695 189 695 c 0
 161 695 139 717 139 745 c 0
 139 773 161 795 189 795 c 0
210 102 m 2
 210 51 231 35 276 35 c 2
 380 35 l 2
 430 35 443 43 456 53 c 0
 474 67 490 99 498 116 c 0
 502 124 505 127 512 126 c 0
 519 125 525 123 525 115 c 0
 525 97 515 38 508 12 c 0
 506 3 502 -5 494 -5 c 0
 366 -5 267 1 167 1 c 0
 122 1 106 -5 52 -5 c 0
 35 -5 23 -2 23 6 c 0
 23 15 33 20 56 24 c 0
 106 33 130 51 130 99 c 2
 130 549 l 2
 130 597 113 613 63 622 c 0
 40 626 30 633 30 642 c 0
 30 650 42 653 59 653 c 0
 134 653 166 650 236 650 c 0
 327 650 448 653 458 653 c 0
 465 653 475 651 476 644 c 0
 483 606 491 568 491 541 c 0
 491 529 483 526 477 526 c 0
 470 526 468 529 466 536 c 0
 459 558 453 581 444 591 c 0
 425 612 402 618 377 618 c 2
 246 618 l 2
 235 618 210 605 210 586 c 2
 210 374 l 2
 210 362 218 352 228 352 c 2
 324 352 l 2
 353 352 375 368 385 391 c 0
 387 396 398 408 403 408 c 0
 408 408 416 402 416 392 c 0
 416 383 413 353 413 337 c 0
 413 317 415 277 415 269 c 0
 415 260 414 252 406 252 c 0
 393 252 385 268 383 275 c 0
 373 306 354 320 337 320 c 2
 244 320 l 2
 221 320 210 317 210 294 c 2
 210 102 l 2
EndSplineSet
EndChar
StartChar: uni0404
Encoding: 1028 1028 2024
Width: 642
Flags: HW
LayerCount: 2
Fore
SplineSet
360 632 m 0
 247 632 150 522 143 374 c 0
 142 366 147 350 150 353 c 0
 172 374 228 398 259 398 c 0
 294 398 356 354 413 354 c 0
 441 354 461 361 483 373 c 0
 488 376 494 368 494 362 c 0
 494 359 449 300 404 300 c 0
 338 300 285 338 240 338 c 0
 204 338 170 319 151 306 c 0
 147 303 143 304 143 296 c 0
 145 190 223 19 359 19 c 0
 450 19 499 51 521 72 c 0
 541 92 555 121 563 143 c 0
 567 155 578 168 584 168 c 0
 592 167 596 154 596 143 c 0
 596 117 587 74 580 51 c 0
 572 26 543 18 518 9 c 0
 481 -5 417 -15 345 -15 c 0
 192 -16 45 131 45 311 c 0
 45 497 179 664 365 664 c 0
 414 664 439 660 482 651 c 0
 501 647 541 634 558 633 c 0
 566 633 568 617 571 603 c 0
 577 574 585 526 586 494 c 0
 586 485 585 470 575 471 c 0
 564 472 561 489 558 502 c 0
 550 534 519 570 507 581 c 0
 497 591 452 632 360 632 c 0
EndSplineSet
EndChar

StartChar: uni040E
Encoding: 1038 1038 2033
Width: 637
Flags: HW
LayerCount: 2
Fore
SplineSet
179 795 m 0
 179 825 202 857 229 857 c 0
 249 857 277 846 277 819 c 0
 277 800 261 783 261 767 c 0
 261 749 282 731 323 731 c 0
 397 731 428 778 444 834 c 0
 446 842 454 846 456 846 c 0
 462 846 464 836 464 829 c 0
 464 751 400 692 320 692 c 0
 252 692 179 732 179 795 c 0
230 48 m 0
 240 48 257 55 282 106 c 0
 286 113 291 123 291 132 c 0
 291 143 285 153 279 166 c 2
 114 522 l 2
 88 578 69 614 27 620 c 0
 4 623 -6 633 -6 642 c 0
 -6 650 6 653 23 653 c 0
 53 653 94 650 140 650 c 0
 171 650 199 652 220 652 c 0
 237 652 249 649 249 641 c 0
 249 632 238 628 216 621 c 0
 206 618 178 612 178 584 c 0
 178 567 194 541 212 504 c 2
 327 269 l 1
 335 250 338 240 343 240 c 0
 348 240 354 249 363 269 c 2
 484 543 l 2
 486 548 491 563 491 569 c 0
 491 596 460 613 437 620 c 0
 423 624 404 631 404 640 c 0
 404 648 416 651 433 651 c 0
 463 651 479 650 508 650 c 0
 545 650 581 653 604 653 c 0
 621 653 633 650 633 642 c 0
 633 633 623 627 600 622 c 0
 565 615 544 584 529 547 c 1
 384 222 l 2
 299 32 247 -40 194 -40 c 0
 147 -40 116 -15 116 18 c 0
 116 45 133 73 156 73 c 0
 192 73 190 48 230 48 c 0
EndSplineSet
EndChar
StartChar: uni040F
Encoding: 1039 1039 2034
Width: 793
Flags: HW
LayerCount: 2
Fore
SplineSet
629 0 m 1
 457 0 l 2
 417 0 433 -214 398 -214 c 0
 363 -214 377 0 337 0 c 2
 176 0 l 2
 126 0 102 -5 48 -5 c 0
 31 -5 19 -2 19 6 c 0
 19 15 29 20 52 24 c 0
 102 33 130 51 130 98 c 2
 130 550 l 2
 130 597 113 613 63 622 c 0
 40 626 30 633 30 642 c 0
 30 650 42 653 59 653 c 0
 113 653 130 650 176 650 c 0
 219 650 231 653 285 653 c 0
 302 653 314 650 314 642 c 0
 314 633 304 626 281 622 c 0
 231 613 210 597 210 550 c 2
 210 98 l 2
 210 67 233 41 264 41 c 2
 531 41 l 2
 566 41 583 77 583 106 c 2
 583 549 l 2
 583 597 566 613 516 622 c 0
 493 626 483 633 483 642 c 0
 483 650 495 653 512 653 c 0
 566 653 583 650 629 650 c 0
 669 650 678 653 732 653 c 0
 749 653 761 650 761 642 c 0
 761 633 751 626 728 622 c 0
 678 613 663 597 663 550 c 2
 663 98 l 2
 663 51 686 33 736 24 c 0
 759 20 769 15 769 6 c 0
 769 -2 757 -5 740 -5 c 0
 686 -5 672 -2 629 0 c 1
EndSplineSet
EndChar

StartChar: uni041B
Encoding: 1051 1051 1986
Width: 709
Flags: HW
LayerCount: 2
Fore
SplineSet
322 608 m 2
 301 608 293 596 293 564 c 0
 293 51 152 -14 93 -14 c 0
 46 -14 22 11 22 44 c 0
 22 71 39 99 62 99 c 0
 98 99 89 74 129 74 c 0
 196 74 248 192 248 557 c 0
 248 595 234 613 184 622 c 0
 161 626 151 633 151 642 c 0
 151 650 163 653 180 653 c 0
 200 653 238 649 275 649 c 0
 369 649 449 649 542 650 c 0
 585 650 597 653 651 653 c 0
 668 653 680 650 680 642 c 0
 680 633 670 626 647 622 c 0
 597 613 576 597 576 550 c 2
 576 98 l 2
 576 51 605 33 655 24 c 0
 678 20 688 15 688 6 c 0
 688 -2 676 -5 659 -5 c 0
 605 -5 588 0 542 0 c 0
 492 0 468 -5 414 -5 c 0
 397 -5 385 -2 385 6 c 0
 385 15 395 20 418 24 c 0
 468 33 496 57 496 99 c 2
 496 552 l 2
 496 586 489 608 464 608 c 2
 322 608 l 2
EndSplineSet
Substitution2: "cyrillic_DLLj subtable" uni041B.alt
EndChar

StartChar: uni041F
Encoding: 1055 1055 2048
Width: 804
Flags: HW
LayerCount: 2
Fore
SplineSet
593 99 m 2
 593 601 l 2
 593 608 589 608 585 608 c 0
 502 609 449 611 384 611 c 0
 332 611 282 610 215 608 c 0
 210 608 210 605 210 597 c 2
 210 99 l 2
 210 57 239 33 289 24 c 0
 312 20 322 15 322 6 c 0
 322 -2 310 -5 293 -5 c 0
 239 -5 222 0 176 0 c 0
 126 0 102 -5 48 -5 c 0
 31 -5 19 -2 19 6 c 0
 19 15 29 20 52 24 c 0
 102 33 130 51 130 98 c 2
 130 550 l 2
 130 597 113 613 63 622 c 0
 40 626 30 633 30 642 c 0
 30 650 42 653 59 653 c 0
 113 653 124 649 165 649 c 0
 259 649 328 648 402 648 c 0
 475 648 547 649 640 650 c 0
 683 650 695 653 749 653 c 0
 766 653 778 650 778 642 c 0
 778 633 768 626 745 622 c 0
 695 613 674 597 674 550 c 2
 674 98 l 2
 674 51 703 33 753 24 c 0
 776 20 786 15 786 6 c 0
 786 -2 774 -5 757 -5 c 0
 703 -5 686 0 640 0 c 0
 590 0 566 -5 512 -5 c 0
 495 -5 483 -2 483 6 c 0
 483 15 493 20 516 24 c 0
 566 33 593 57 593 99 c 2
EndSplineSet
EndChar

StartChar: uni0435
Encoding: 1077 1077 2068
Width: 388
Flags: HW
LayerCount: 2
Fore
SplineSet
229 414 m 0
 310 414 358 376 358 323 c 0
 358 290 351 275 337 268 c 0
 323 261 303 257 281 257 c 2
 117 257 l 2
 101 257 92 254 92 220 c 0
 92 130 153 46 243 46 c 0
 268 46 311 56 337 90 c 0
 340 93 345 97 348 97 c 0
 355 97 356 85 354 77 c 0
 344 42 290 -14 198 -14 c 0
 107 -14 30 70 30 203 c 0
 30 316 116 414 229 414 c 0
213 383 m 0
 157 383 111 329 111 303 c 0
 111 295 116 288 130 288 c 2
 212 288 l 2
 241 288 264 289 285 293 c 0
 292 294 295 310 295 321 c 0
 295 361 252 383 213 383 c 0
EndSplineSet
EndChar

StartChar: uni0437
Encoding: 1079 1079 2070
Width: 367
Flags: HW
LayerCount: 2
Fore
SplineSet
250 218 m 0
 244 215 243 213 250 211 c 0
 289 201 332 178 332 120 c 0
 332 13 213 -8 148 -8 c 0
 116 -8 40 11 31 46 c 0
 25 73 25 84 25 105 c 0
 25 121 31 130 40 130 c 0
 45 130 52 114 58 100 c 0
 83 44 122 24 159 24 c 0
 212 24 251 55 251 115 c 0
 251 154 234 196 194 196 c 0
 179 196 169 190 147 190 c 0
 131 190 113 196 113 212 c 0
 113 231 130 237 154 237 c 0
 167 237 178 231 197 231 c 0
 220 231 247 255 247 295 c 0
 247 334 230 381 174 381 c 0
 136 381 107 358 82 317 c 0
 71 299 68 271 55 271 c 0
 44 271 44 281 44 294 c 0
 44 320 46 321 50 351 c 0
 51 361 55 376 64 380 c 0
 88 391 146 411 187 411 c 0
 258 411 318 386 318 311 c 0
 318 251 283 232 250 218 c 0
EndSplineSet
EndChar
StartChar: uni0440
Encoding: 1088 1088 2078
Width: 519
Flags: HW
LayerCount: 2
Fore
SplineSet
85 -220 m 2
 85 287 l 2
 85 302 72 353 39 360 c 0
 34 361 31 367 31 373 c 0
 31 379 34 384 38 385 c 0
 89 397 122 412 154 425 c 0
 155 425 155 426 156 426 c 0
 159 426 162 421 162 417 c 0
 162 405 157 373 157 357 c 0
 157 353 157 349 158 348 c 1
 177 367 257 414 320 414 c 0
 423 414 484 319 484 225 c 0
 484 106 385 -14 259 -14 c 0
 231 -14 179 0 159 18 c 1
 156 18 155 -27 155 -33 c 2
 155 -220 l 2
 155 -247 193 -252 213 -258 c 0
 224 -262 236 -266 236 -276 c 0
 236 -284 222 -285 214 -285 c 0
 175 -285 155 -280 120 -280 c 0
 85 -280 79 -285 40 -285 c 0
 33 -285 19 -284 19 -276 c 0
 19 -266 31 -262 42 -258 c 0
 62 -252 85 -247 85 -220 c 2
274 17 m 0
 313 17 404 59 404 193 c 0
 404 347 311 369 268 369 c 0
 234 369 207 359 182 340 c 0
 167 329 158 310 156 269 c 0
 156 252 155 229 155 205 c 0
 155 171 156 136 157 115 c 0
 158 97 162 60 181 42 c 0
 196 28 230 17 274 17 c 0
EndSplineSet
EndChar
StartChar: uni0441
Encoding: 1089 1089 2079
Width: 377
Flags: HW
LayerCount: 2
Fore
SplineSet
333 319 m 0
 324 319 313 324 308 329 c 0
 275 365 264 376 214 376 c 0
 141 376 104 299 104 226 c 0
 104 130 167 38 263 38 c 0
 305 38 325 54 351 88 c 0
 354 91 357 93 360 93 c 0
 366 93 372 86 372 79 c 0
 372 42 292 -14 206 -14 c 0
 105 -14 35 77 35 180 c 0
 35 303 123 413 246 413 c 0
 289 413 336 402 366 365 c 0
 369 361 371 357 371 353 c 0
 371 336 343 319 333 319 c 0
EndSplineSet
EndChar
StartChar: uni0443
Encoding: 1091 1091 2081
Width: 438
Flags: HW
LayerCount: 2
Fore
SplineSet
28 378 m 0
 17 382 5 386 5 396 c 0
 5 404 18 405 25 405 c 2
 28 405 l 2
 67 405 63 400 98 400 c 0
 133 400 132 405 171 405 c 2
 174 405 l 2
 182 405 194 404 194 396 c 0
 194 386 182 382 171 378 c 0
 157 374 149 354 149 335 c 0
 149 327 150 319 153 312 c 2
 232 116 l 2
 238 102 242 103 247 117 c 2
 314 295 l 2
 318 304 319 315 319 325 c 0
 319 350 310 374 296 378 c 0
 285 382 273 386 273 396 c 0
 273 404 286 405 293 405 c 2
 296 405 l 2
 311 405 329 400 364 400 c 0
 399 400 401 405 420 405 c 2
 423 405 l 2
 430 405 443 404 443 396 c 0
 443 386 431 382 420 378 c 0
 400 372 374 343 361 311 c 2
 225 -13 l 2
 221 -22 172 -148 131 -244 c 0
 119 -271 100 -285 71 -285 c 0
 48 -285 28 -265 28 -243 c 0
 28 -218 52 -194 71 -194 c 0
 81 -194 93 -213 104 -213 c 0
 107 -213 111 -211 114 -206 c 0
 135 -170 161 -93 190 -16 c 0
 192 -10 193 -2 193 7 c 0
 193 18 192 28 189 36 c 2
 73 329 l 2
 63 353 48 372 28 378 c 0
EndSplineSet
EndChar
StartChar: uni0444
Encoding: 1092 1092 2082
Width: 585
Flags: HW
LayerCount: 2
Fore
SplineSet
327 -205 m 2
 327 -232 350 -237 370 -243 c 0
 381 -247 393 -251 393 -261 c 0
 393 -269 380 -270 373 -270 c 2
 370 -270 l 2
 331 -270 327 -265 292 -265 c 0
 257 -265 253 -270 214 -270 c 2
 211 -270 l 2
 204 -270 191 -269 191 -261 c 0
 191 -251 203 -247 214 -243 c 0
 234 -237 257 -232 257 -205 c 2
 257 -14 l 1
 140 -14 35 70 35 187 c 0
 35 311 133 414 257 414 c 1
 257 521 l 2
 257 560 244 579 211 586 c 0
 206 587 203 593 203 599 c 0
 203 605 206 610 210 611 c 0
 261 623 294 639 326 651 c 0
 327 651 327 652 328 652 c 0
 331 652 334 648 334 645 c 0
 334 633 327 599 327 509 c 2
 327 414 l 1
 444 414 550 330 550 213 c 0
 550 89 451 -14 327 -14 c 1
 327 -205 l 2
327 17 m 1
 414 17 468 102 468 189 c 0
 468 282 420 382 327 382 c 1
 327 17 l 1
257 382 m 1
 171 382 117 296 117 210 c 0
 117 118 165 19 257 19 c 1
 257 382 l 1
EndSplineSet
EndChar

StartChar: uni0445
Encoding: 1093 1093 2083
Width: 430
Flags: HW
LayerCount: 2
Fore
SplineSet
220 8 m 0
 220 32 276 24 276 52 c 0
 276 57 274 63 270 70 c 2
 216 162 l 2
 213 167 210 168 208 165 c 2
 141 67 l 2
 139 64 136 56 136 48 c 0
 136 39 140 29 150 26 c 0
 161 22 173 18 173 8 c 0
 173 -2 155 -1 150 -1 c 0
 139 -1 113 1 97 1 c 0
 60 1 48 -4 30 -4 c 0
 22 -4 10 -3 10 5 c 0
 10 16 22 20 33 23 c 0
 53 29 69 43 100 80 c 1
 185 186 l 2
 194 197 192 201 187 209 c 2
 106 335 l 2
 90 361 80 371 60 377 c 0
 49 380 37 384 37 395 c 0
 37 405 55 404 60 404 c 0
 99 404 90 400 139 400 c 0
 163 400 167 402 190 402 c 0
 195 402 213 403 213 393 c 0
 213 376 174 382 174 362 c 0
 174 355 179 343 187 330 c 2
 227 268 l 2
 232 260 233 260 235 263 c 2
 284 338 l 2
 289 345 292 353 292 360 c 0
 292 367 289 373 279 376 c 0
 268 380 256 384 256 394 c 0
 256 404 274 403 279 403 c 0
 289 403 313 400 329 400 c 0
 366 400 375 405 392 405 c 0
 400 405 412 404 412 396 c 0
 412 386 400 382 389 378 c 0
 369 372 337 358 318 331 c 2
 253 239 l 2
 251 236 251 230 254 226 c 2
 351 65 l 2
 367 39 377 29 397 23 c 0
 408 20 420 16 420 5 c 0
 420 -3 408 -4 400 -4 c 0
 359 -4 366 0 316 0 c 0
 292 0 266 -1 243 -1 c 0
 238 -1 220 -2 220 8 c 0
EndSplineSet
EndChar
StartChar: uni0446
Encoding: 1094 1094 2084
Width: 514
Flags: HW
LayerCount: 2
Fore
SplineSet
467 39 m 0
 475 39 488 42 498 42 c 0
 506 42 512 40 512 34 c 0
 512 32 512 30 511 28 c 0
 503 8 488 -14 484 -108 c 0
 483 -124 471 -139 464 -139 c 0
 447 -139 443 -121 443 -103 c 0
 443 -88 444 -72 444 -58 c 0
 444 -5 434 0 403 0 c 2
 107 0 l 2
 84 0 93 -3 54 -3 c 0
 49 -3 31 -4 31 6 c 0
 31 16 43 20 54 24 c 0
 74 30 90 35 90 62 c 2
 90 338 l 2
 90 365 74 370 54 376 c 0
 43 380 31 384 31 394 c 0
 31 403 46 403 54 403 c 0
 93 403 93 398 128 398 c 0
 163 398 162 403 201 403 c 0
 210 403 224 403 224 394 c 0
 224 384 212 380 201 376 c 0
 181 370 160 365 160 338 c 2
 160 77 l 2
 160 66 160 39 177 39 c 2
 338 39 l 2
 354 39 354 66 354 77 c 2
 354 338 l 2
 354 365 333 370 313 376 c 0
 302 380 290 384 290 394 c 0
 290 403 304 403 313 403 c 0
 352 403 352 398 387 398 c 0
 422 398 421 403 460 403 c 0
 468 403 483 403 483 394 c 0
 483 384 471 380 460 376 c 0
 440 370 424 365 424 338 c 2
 424 52 l 2
 424 43 449 39 467 39 c 0
EndSplineSet
EndChar
StartChar: uni0451
Encoding: 1105 1105 2095
Width: 388
Flags: HW
LayerCount: 2
Fore
SplineSet
312 593 m 0
 337 593 362 568 362 543 c 0
 362 518 337 493 312 493 c 0
 287 493 262 518 262 543 c 0
 262 568 287 593 312 593 c 0
135 593 m 0
 160 593 185 568 185 543 c 0
 185 518 160 493 135 493 c 0
 110 493 85 518 85 543 c 0
 85 568 110 593 135 593 c 0
229 414 m 0
 310 414 358 376 358 323 c 0
 358 290 351 275 337 268 c 0
 323 261 303 257 281 257 c 2
 117 257 l 2
 101 257 92 254 92 220 c 0
 92 130 153 46 243 46 c 0
 268 46 311 56 337 90 c 0
 340 93 345 97 348 97 c 0
 355 97 356 85 354 77 c 0
 344 42 290 -14 198 -14 c 0
 107 -14 30 70 30 203 c 0
 30 316 116 414 229 414 c 0
213 383 m 0
 157 383 111 329 111 303 c 0
 111 295 116 288 130 288 c 2
 212 288 l 2
 241 288 264 289 285 293 c 0
 292 294 295 310 295 321 c 0
 295 361 252 383 213 383 c 0
EndSplineSet
EndChar
StartChar: uni0452
Encoding: 1106 1106 2096
Width: 469
Flags: HW
LayerCount: 2
Fore
SplineSet
369 169 m 0
 369 330 322 373 256 373 c 0
 231 373 199 366 180 351 c 0
 159 334 153 307 153 266 c 2
 153 65 l 1
 154 38 171 30 191 24 c 0
 202 20 214 16 214 6 c 0
 214 -3 200 -3 191 -3 c 0
 152 -3 153 2 118 2 c 0
 83 2 79 -3 40 -3 c 0
 32 -3 17 -3 17 6 c 0
 17 16 29 20 40 24 c 0
 60 30 83 38 83 65 c 2
 83 508 l 1
 29 508 l 2
 20 508 15 517 15 523 c 0
 15 532 27 541 39 541 c 2
 83 541 l 1
 82 608 70 632 38 639 c 0
 33 640 30 646 30 652 c 0
 30 658 33 663 37 664 c 0
 88 676 121 692 153 704 c 0
 154 704 155 705 155 705 c 1
 159 705 162 702 162 698 c 0
 162 688 154 654 153 541 c 1
 314 541 l 2
 321 541 329 539 329 531 c 0
 329 524 311 508 296 508 c 2
 153 508 l 1
 153 401 l 2
 153 389 154 370 159 364 c 1
 173 379 223 414 286 414 c 0
 382 414 439 329 439 191 c 0
 439 -73 243 -216 208 -216 c 0
 195 -216 183 -215 183 -207 c 0
 183 -199 189 -196 196 -193 c 0
 297 -150 369 7 369 169 c 0
EndSplineSet
EndChar

StartChar: uni0453
Encoding: 1107 1107 2097
Width: 354
Flags: HW
LayerCount: 2
Fore
SplineSet
187 478 m 0
 179 469 165 456 157 456 c 0
 148 456 148 460 148 469 c 0
 148 484 210 598 229 631 c 0
 235 641 246 649 256 649 c 0
 281 649 305 642 305 626 c 0
 305 612 218 511 187 478 c 0
160 62 m 2
 160 35 186 30 206 24 c 0
 217 20 229 16 229 6 c 0
 229 -3 214 -3 206 -3 c 0
 167 -3 163 2 128 2 c 0
 93 2 87 -3 47 -3 c 0
 40 -3 27 -2 27 6 c 0
 27 16 39 20 50 24 c 0
 70 30 90 35 90 62 c 2
 90 300 l 2
 90 339 77 366 44 373 c 0
 38 374 27 380 27 390 c 0
 27 398 45 403 49 403 c 0
 74 403 84 400 107 400 c 2
 274 400 l 2
 313 400 326 405 336 405 c 0
 337 405 344 401 344 395 c 0
 344 377 340 331 340 310 c 0
 340 292 339 269 327 269 c 0
 319 269 314 281 308 307 c 0
 303 329 280 360 259 360 c 0
 245 360 203 361 182 361 c 0
 164 361 160 334 160 323 c 2
 160 62 l 2
EndSplineSet
EndChar
StartChar: uni0454
Encoding: 1108 1108 2098
Width: 402
Flags: HW
LayerCount: 2
Fore
SplineSet
105 173 m 0
 135 90 176 38 263 38 c 0
 305 38 325 54 351 88 c 0
 354 91 357 93 360 93 c 0
 367 93 372 86 372 77 c 0
 372 54 305 -14 206 -14 c 0
 105 -14 35 77 35 180 c 0
 35 303 123 413 246 413 c 0
 289 413 331 402 361 365 c 0
 366 359 368 355 368 350 c 0
 368 338 342 319 332 319 c 0
 323 319 312 323 308 329 c 0
 291 355 254 376 214 376 c 0
 146 376 112 313 105 236 c 0
 105 231 104 214 107 218 c 0
 117 232 157 246 173 246 c 0
 188 246 251 225 269 225 c 0
 284 225 295 234 302 234 c 0
 307 234 307 229 307 224 c 0
 307 213 272 181 258 181 c 0
 217 181 187 197 156 197 c 0
 138 197 126 198 113 187 c 0
 110 184 104 177 105 173 c 0
EndSplineSet
EndChar
StartChar: uni0457
Encoding: 1111 1111 2101
Width: 245
Flags: HW
LayerCount: 2
Fore
SplineSet
208 593 m 0
 233 593 258 568 258 543 c 0
 258 518 233 493 208 493 c 0
 183 493 158 518 158 543 c 0
 158 568 183 593 208 593 c 0
31 593 m 0
 56 593 81 568 81 543 c 0
 81 518 56 493 31 493 c 0
 6 493 -19 518 -19 543 c 0
 -19 568 6 593 31 593 c 0
162 434 m 0
 166 434 169 432 169 429 c 0
 165 388 160 339 160 294 c 2
 160 62 l 2
 160 35 183 30 203 24 c 0
 214 20 226 16 226 6 c 0
 226 -2 215 -3 206 -3 c 0
 168 -3 160 2 125 2 c 0
 90 2 83 -3 44 -3 c 0
 36 -3 24 -2 24 6 c 0
 24 16 36 20 47 24 c 0
 67 30 90 35 90 62 c 2
 90 279 l 2
 90 315 77 345 43 352 c 0
 38 353 35 359 35 365 c 0
 35 370 38 376 42 377 c 0
 109 393 154 434 162 434 c 0
EndSplineSet
EndChar

StartChar: uni0458
Encoding: 1112 1112 2102
Width: 213
Flags: HW
LayerCount: 2
Fore
SplineSet
51 563 m 0
 51 592 73 614 101 614 c 0
 130 614 152 592 152 563 c 0
 152 535 130 513 101 513 c 0
 73 513 51 535 51 563 c 0
144 275 m 2
 144 91 l 2
 144 29 143 -72 114 -152 c 0
 89 -220 26 -287 -14 -287 c 0
 -21 -287 -35 -284 -35 -277 c 0
 -35 -269 -26 -261 -24 -260 c 0
 0 -254 23 -237 42 -197 c 0
 71 -136 71 0 71 69 c 2
 71 279 l 2
 71 315 59 345 25 352 c 0
 20 353 17 359 17 365 c 0
 17 370 20 376 24 377 c 0
 91 393 136 434 144 434 c 0
 148 434 151 432 151 429 c 0
 147 388 144 320 144 275 c 2
EndSplineSet
EndChar
StartChar: uni04D8
Encoding: 1240 1240 2172
Width: 665
VWidth: 0
Flags: HW
AnchorPoint: "top_accent" 310 710 basechar 0
LayerCount: 2
Fore
SplineSet
296 24 m 4
 398 24 493 97 514 233 c 4
 515 238 515 242 515 246 c 4
 515 258 512 266 503 266 c 6
 164 266 l 6
 130 266 109 240 109 206 c 4
 109 108 177 24 296 24 c 4
28 212 m 4
 28 259 90 317 164 317 c 6
 503 317 l 6
 518 317 521 334 521 350 c 4
 521 356 520 361 520 366 c 4
 503 527 424 628 283 628 c 4
 171 628 111 549 83 498 c 4
 78 488 69 479 56 479 c 4
 52 479 49 488 49 497 c 4
 49 500 50 503 50 505 c 4
 54 530 68 586 83 609 c 4
 88 617 107 620 132 630 c 4
 168 644 230 663 306 663 c 4
 473 663 620 538 620 341 c 4
 620 128 468 -15 270 -15 c 4
 238 -15 176 -9 158 -3 c 4
 77 24 28 108 28 212 c 4
EndSplineSet
EndChar
StartChar: uni04E8
Encoding: 1256 1256 2186
Width: 763
VWidth: 0
Flags: HW
AnchorPoint: "cedilla" 412 8 basechar 0
AnchorPoint: "below_accent" 370 -100 basechar 0
AnchorPoint: "top_accent" 383 710 basechar 0
LayerCount: 2
Fore
SplineSet
45 320 m 4
 45 501 166 664 390 664 c 4
 564 664 717 532 717 335 c 4
 717 155 601 -14 382 -14 c 4
 205 -14 45 130 45 320 c 4
617 371 m 5
 599 524 516 625 375 625 c 4
 234 625 151 503 143 371 c 5
 617 371 l 5
621 301 m 5
 145 301 l 5
 163 151 261 25 395 25 c 4
 544 25 620 132 621 301 c 5
EndSplineSet
EndChar
StartChar: uni1DD3
Encoding: 7635 7635 261
Width: 0
VWidth: 982
Flags: HW
HStem: 516 53<349.324 420.905> 628 49<61.1217 158.908>
VStem: 10 42<535.357 620.508> 429 39<578.501 653.929>
AnchorPoint: "top_accent" 239 596 mark 0
LayerCount: 2
Fore
SplineSet
432 675 m 0
 459 675 468 648 468 626 c 0
 468 561 421 516 356 516 c 0
 304 516 281 590 265 590 c 0
 260 590 194 516 189 516 c 0
 166 516 136 628 97 628 c 0
 66 628 52 601 52 573 c 0
 52 545 80 541 80 514 c 0
 80 501 68 499 59 499 c 0
 33 499 10 530 10 562 c 0
 10 633 61 677 131 677 c 0
 190 677 199 603 219 603 c 0
 229 603 286 674 296 674 c 0
 324 674 336 569 381 569 c 0
 409 569 429 589 429 617 c 0
 429 629 409 640 409 660 c 0
 409 670 416 675 432 675 c 0
EndSplineSet
EndChar
StartChar: uni2011
Encoding: 8209 8209 814
Width: 386
VWidth: 982
Flags: MW
LayerCount: 2
Fore
SplineSet
320 271 m 6
 334 272 351 266 351 243 c 12
 351 220 341 195 318 194 c 6
 99 176 l 6
 65 173 45 175 45 195 c 4
 45 214 56 249 82 252 c 6
 320 271 l 6
EndSplineSet
Validated: 33
Substitution2: "'case' Case-Sensitive Forms lookup 8 subtable" uni2011.cap
EndChar
StartChar: figuredash
Encoding: 8210 8210 817
Width: 500
VWidth: 982
Flags: HW
LayerCount: 2
Fore
SplineSet
424 235 m 2
 454 235 460 233 460 218 c 0
 460 204 447 167 417 167 c 2
 69 167 l 2
 46 167 40 169 40 185 c 0
 40 201 59 235 89 235 c 2
 424 235 l 2
EndSplineSet
Substitution2: "'case' Case-Sensitive Forms lookup 6 subtable" figuredash.cap
EndChar
StartChar: emdash
Encoding: 8212 8212 186
Width: 1000
VWidth: 982
Flags: HW
HStem: 167 68<51.7004 950.395>
LayerCount: 2
Fore
SplineSet
924 235 m 2
 954 235 960 233 960 218 c 0
 960 204 947 167 917 167 c 2
 69 167 l 2
 46 167 40 169 40 185 c 0
 40 201 59 235 89 235 c 2
 924 235 l 2
EndSplineSet
Substitution2: "'case' Case-Sensitive Forms lookup 6 subtable" emdash.cap
EndChar
StartChar: uni2015
Encoding: 8213 8213 1377
Width: 2000
VWidth: 0
Flags: MW
LayerCount: 2
Fore
SplineSet
45 175 m 1
 45 261 l 1
 1965 261 l 1
 1965 175 l 1
 45 175 l 1
EndSplineSet
Validated: 1
EndChar
StartChar: dagger
Encoding: 8224 8224 1007
Width: 440
Flags: MW
LayerCount: 2
Fore
SplineSet
220 640 m 0
 238.847760945 640 260 628.303596155 260 601 c 0
 260 536.699507295 240 502.699757148 240 441 c 0
 240 438.231186371 242.136286884 436 246 436 c 0
 286.225554007 436 318.491631035 456 369 456 c 0
 394.254954996 456 410 441.60181005 410 416 c 0
 410 396.131350524 397.385098103 376 373 376 c 0
 322.506836786 376 289.243995918 396 249 396 c 0
 244.65098286 396 240 387.738565286 240 384 c 0
 240 359.284509167 271 338.698943673 271 318 c 0
 271 296.750348182 244 289.866486094 244 -68 c 0
 244 -85.8445431703 243.629095886 -122 220 -122 c 0
 193.820215215 -122 194 -88.0368133013 194 -70 c 0
 194 302.958306666 169 295.689664605 169 318 c 0
 169 338.297906126 200 357.805687425 200 383 c 0
 200 385.546029448 195.164820914 394.794074055 193.570078366 396.0008428 c 1
 145.307965875 395.690893544 119.703985588 376 69 376 c 0
 47.0682076101 376 30 394.400969635 30 416 c 0
 30 437.599054176 47.0681237312 456 69 456 c 0
 112.78717655 456 143.552003582 436 190 436 c 0
 196.661978918 436 200 438.825202317 200 441 c 0
 200 504.684143649 180 534.684456671 180 601 c 0
 180 623.17889464 200.45205219 640 220 640 c 0
EndSplineSet
Validated: 33
Substitution2: "sups subtable" dagger.sups
Substitution2: "sinf subtable" dagger.sinf
Substitution2: "ordn subtable" dagger.ordn
Substitution2: "subs subtable" dagger.subs
EndChar
StartChar: daggerdbl
Encoding: 8225 8225 1008
Width: 440
Flags: MW
LayerCount: 2
Fore
SplineSet
271 163 m 0
 271 142.77735887 240 122.23425216 240 97 c 0
 240 94.4539705521 244.835179086 85.2059259451 246.429921634 83.9991572003 c 1
 294.692034125 84.3091064558 320.296014412 104 371 104 c 0
 392.635933071 104 405 84.6504797512 405 64 c 0
 405 44.3819594703 392.769371163 24 371 24 c 0
 327.21282345 24 296.447996418 44 250 44 c 0
 243.338021082 44 240 41.1747976828 240 39 c 0
 240 -24.1662155328 260 -21.1666171042 260 -88 c 0
 260 -109.735391524 238.81250908 -123 220 -123 c 0
 202.118226933 -123 180 -115.854999209 180 -88 c 0
 180 -36.3753083961 200 -9.37563280921 200 39 c 0
 200 41.7688136292 197.863713116 44 194 44 c 0
 153.800461582 44 123.597625693 24 75 24 c 0
 49.6137167492 24 35 38.5951646905 35 64 c 0
 35 83.6385465085 46.4718104425 104 71 104 c 0
 119.580944607 104 150.780301895 84 191 84 c 0
 195.34901714 84 200 92.2614347141 200 96 c 0
 200 121.7940957 169 142.301720846 169 163 c 0
 169 178.618721706 196 198.469328024 196 232 c 0
 196 285 l 0
 196 312.889422325 169 337.922784737 169 350 c 0
 169 370.256472855 200 390.655523696 200 417 c 0
 200 419.546029448 195.164820914 428.794074055 193.570078366 430.0008428 c 1
 145.307965875 429.690893544 119.703985588 410 69 410 c 0
 47.3640669289 410 35 429.349520249 35 450 c 0
 35 469.61804053 47.2306288371 490 69 490 c 0
 112.78717655 490 143.552003582 470 190 470 c 0
 196.661978918 470 200 472.825202317 200 475 c 0
 200 538.143711983 180 534.144702385 180 601 c 0
 180 622.885022028 201.420541692 635 220 635 c 0
 237.619140907 635 260 628.995247767 260 601 c 0
 260 549.358719445 240 523.358196059 240 475 c 0
 240 472.231186371 242.136286884 470 246 470 c 0
 286.262735439 470 320.521088975 490 371 490 c 0
 397.225119096 490 405 474.040484725 405 450 c 0
 405 432.971244731 400.550047755 410 375 410 c 0
 323.547903498 410 289.256486423 430 249 430 c 0
 244.65098286 430 240 421.738565286 240 418 c 0
 240 392.193095341 271 370.587807746 271 350 c 0
 271 334.041441279 244 318.384163031 244 285 c 0
 244 232 l 0
 244 204.194335951 271 174.496915563 271 163 c 0
EndSplineSet
Validated: 1
Substitution2: "sups subtable" daggerdbl.sups
Substitution2: "sinf subtable" daggerdbl.sinf
Substitution2: "ordn subtable" daggerdbl.ordn
Substitution2: "subs subtable" daggerdbl.subs
EndChar

StartChar: guilsinglleft
Encoding: 8249 8249 790
Width: 430
Flags: W
VStem: 100 228
LayerCount: 2
Fore
SplineSet
212 217 m 0
 206 211 206 209 212 203 c 0
 254 161 288 115 324 50 c 0
 326 47 328 41 328 38 c 0
 328 32 323 19 318 19 c 0
 305 19 293 32 288 37 c 0
 243 84 185 137 118 182 c 0
 109 188 100 202 100 211 c 0
 100 214 101 217 103 218 c 0
 180 270 231 318 296 388 c 0
 301 393 308 400 320 400 c 0
 324 400 330 386 330 381 c 0
 330 376 327 370 324 365 c 0
 268 280 249 254 212 217 c 0
EndSplineSet
Validated: 1
EndChar

StartChar: guilsinglright
Encoding: 8250 8250 788
Width: 430
Flags: HW
VStem: 102 228
LayerCount: 2
Fore
SplineSet
218 202 m 0
 224 208 224 210 218 216 c 0
 176 258 142 304 106 369 c 0
 104 372 102 378 102 381 c 0
 102 387 107 400 112 400 c 0
 125 400 137 387 142 382 c 0
 187 335 245 282 312 237 c 0
 321 231 330 217 330 208 c 0
 330 205 329 202 327 201 c 0
 250 149 199 101 134 31 c 0
 129 26 122 19 110 19 c 0
 106 19 100 33 100 38 c 0
 100 43 103 49 106 54 c 0
 162 139 181 165 218 202 c 0
EndSplineSet
Substitution2: "guillemet_var subtable" guilsinglright.alt
EndChar

StartChar: uni2123
Encoding: 8483 8483 249
Width: 558
VWidth: 982
Flags: W
HStem: 411 42<16.2131 68.2393 175.625 222.78 471.953 529.645> 671 20G<365 376>
VStem: 338 84<542.107 636.812> 418 112<394.5 439>
LayerCount: 2
Fore
SplineSet
83 -80 m 2xe0
 69 -107 52 -135 36 -135 c 0
 30 -135 14 -123 14 -119 c 0
 14 -102 29 -80 49 -42 c 2
 327 498 l 2
 336 516 338 529 338 546 c 0
 338 572 319 585 319 612 c 0
 319 632 359 691 371 691 c 0
 381 691 422 636 422 613 c 0
 422 590 404 548 384 509 c 2
 83 -80 l 2xe0
407 414 m 0
 396 416 388 424 388 434 c 0
 388 444 395 453 412 453 c 0
 428 453 438 449 454 449 c 0
 470 449 488 453 504 453 c 0
 521 453 530 444 530 434 c 0
 530 424 510 416 494 411 c 0
 482 407 450 366 435 329 c 2
 328 119 l 2
 306 77 277 -25 258 -25 c 0
 248 -25 238 -1 231 17 c 2
 103 323 l 2
 86 363 75 399 38 411 c 0
 28 414 16 424 16 434 c 0
 16 444 25 453 42 453 c 0
 58 453 105 449 121 449 c 0
 137 449 180 453 196 453 c 0
 213 453 223 444 223 434 c 0
 223 424 211 413 187 408 c 8
 169 404 176 379 183 361 c 2
 265 157 l 2
 270 147 274 136 280 136 c 0
 287 136 293 148 298 157 c 2
 389 327 l 2
 400 347 418 391 418 398 c 0xd0
 418 405 416 413 407 414 c 0
EndSplineSet
Validated: 37
EndChar
StartChar: uniE01C
Encoding: 57372 57372 236
Width: 656
VWidth: 982
Flags: HMW
LayerCount: 2
Fore
SplineSet
522 115 m 0
 584 115 636 65 636 5 c 0
 636 -61 559 -174 500 -174 c 0
 491 -174 486 -169 486 -161 c 0
 486 -144 559 -99 559 -50 c 0
 559 -13 542 21 510 27 c 0
 485 31 466 40 466 63 c 0
 466 94 493 115 522 115 c 0
548 353 m 0
 580 353 602 323 602 291 c 0
 602 256 570 232 535 232 c 0
 504 232 479 257 479 288 c 0
 479 325 511 353 548 353 c 0
EndSplineSet
Refer: 81 113 N 1 0 0 1 0 0 2
EndChar
StartChar: uniFB00
Encoding: 64256 64256 195
Width: 584
VWidth: 982
Flags: HW
HStem: -2 46<16.002 85.6687 186.499 241.552 289.763 345.182 444.331 513.065> 355 55<180.004 349.958 433.026 540.437> 559 21G<646 670.5> 593 56<224.982 335.944> 634 56<489.829 601.851>
VStem: 97 83<53.0419 351.063 410 519.357> 350 83<53.0419 355 410.087 575.15>
LayerCount: 2
Fore
SplineSet
334 355 m 2xee
 204 355 l 2
 178 355 180 346 180 332 c 2
 180 108 l 2
 180 61 194 49 209 44 c 0
 236 36 242 28 242 18 c 0
 242 8 239 -2 213 -2 c 0
 191 -2 154 4 138 4 c 0
 118 4 72 -2 50 -2 c 0
 24 -2 15 8 15 18 c 0
 15 28 32 36 59 44 c 0
 86 52 97 83 97 108 c 2
 97 338 l 2
 97 346 92 352 55 352 c 0
 46 352 23 356 23 366 c 0
 23 380 57 396 84 406 c 0
 95 410 97 424 97 435 c 0
 97 536 195 649 313 649 c 0xf6
 332 649 354 644 384 630 c 0
 396 624 411 615 416 615 c 0
 421 615 431 628 444 639 c 0
 487 675 536 690 597 690 c 0
 648 690 695 642 695 605 c 0
 695 581 683 559 658 559 c 0
 634 559 621 586 606 607 c 0
 595 623 571 634 542 634 c 0
 474 634 433 557 433 498 c 2
 433 420 l 2
 433 405 442 410 455 410 c 2
 520 412 l 2
 536 412 543 399 543 389 c 0
 543 379 534 355 520 355 c 2
 449 355 l 2
 437 355 433 346 433 332 c 2
 433 108 l 2
 433 83 444 52 471 44 c 0
 498 36 514 28 514 18 c 0
 514 8 506 -2 480 -2 c 0
 458 -2 407 4 391 4 c 0
 371 4 341 -2 319 -2 c 0
 293 -2 289 8 289 18 c 0
 289 28 301 36 328 44 c 0
 347 50 350 83 350 108 c 2
 350 332 l 2
 350 352 344 355 334 355 c 2xee
180 426 m 2
 180 406 185 410 193 410 c 2
 333 410 l 2
 354 410 350 412 350 420 c 0
 350 472 356 506 358 511 c 0
 362 524 361 526 357 535 c 0
 339 578 319 593 279 593 c 0
 219 593 180 552 180 473 c 2
 180 426 l 2
EndSplineSet
LCarets2: 1 275 
EndChar
StartChar: .notdef
Encoding: 1114112 -1 0
Width: 416
VWidth: 982
Flags: HW
HStem: -73 42<90 326> 424 42<90 326>
VStem: 48 42<-31 424> 326 42<-31 424>
LayerCount: 2
Fore
SplineSet
90 -31 m 1
 326 -31 l 1
 326 424 l 1
 90 424 l 1
 90 -31 l 1
368 -73 m 1
 48 -73 l 1
 48 466 l 1
 368 466 l 1
 368 -73 l 1
EndSplineSet
EndChar
StartChar: Adieresis.DEU
Encoding: 1114179 -1 790
Width: 649
VWidth: 982
Flags: MW
LayerCount: 2
Fore
SplineSet
452 714 m 0
 480 714 506 688 506 660 c 0
 506 632 480 606 452 606 c 0
 424 606 398 632 398 660 c 0
 398 688 424 714 452 714 c 0
215 714 m 0
 243 714 269 688 269 660 c 0
 269 632 243 606 215 606 c 0
 187 606 161 632 161 660 c 0
 161 688 187 714 215 714 c 0
EndSplineSet
Refer: 33 65 N 1 0 0 1 0 0 3
Validated: 32769
EndChar

StartChar: B.subs
Encoding: 1114351 -1 1034
Width: 369
Flags: HW
LayerCount: 2
Fore
SplineSet
158 223 m 2
 201 223 260 233 260 297 c 0
 260 331 245 376 172 376 c 0
 136 376 132 367 131 349 c 0
 130 319 128 303 128 280 c 0
 128 270 128 259 129 245 c 0
 130 224 137 224 148 223 c 1
 158 223 l 2
78 329 m 2
 78 358 66 368 34 373 c 0
 19 375 13 380 13 385 c 0
 13 390 21 392 32 392 c 0
 67 392 72 391 99 391 c 0
 124 391 134 394 172 394 c 0
 267 394 316 370 316 305 c 0
 316 278 304 256 294 247 c 0
 280 235 271 229 250 221 c 0
 247 220 246 216 250 215 c 0
 289 204 343 186 343 116 c 0
 343 50 302 31 275 18 c 0
 248 5 214 -2 171 -2 c 0
 160 -2 138 0 113 0 c 2
 101 0 l 1
 71 -1 60 -3 25 -3 c 0
 14 -3 6 -1 6 4 c 0
 6 9 12 12 27 14 c 0
 59 19 78 30 78 59 c 2
 78 329 l 2
281 113 m 0
 281 159 251 182 233 191 c 0
 221 197 198 206 166 206 c 0
 154 206 142 203 136 199 c 0
 129 194 128 182 128 169 c 2
 128 148 l 2
 128 119 129 87 130 65 c 0
 131 54 133 41 141 34 c 0
 148 27 164 22 180 22 c 0
 231 22 281 61 281 113 c 0
EndSplineSet
EndChar

StartChar: E.subs
Encoding: 1114354 -1 1037
Width: 369
Flags: HW
LayerCount: 2
Fore
SplineSet
130 224 m 0
 130 217 130 211 136 211 c 2
 204 211 l 2
 223 211 238 220 244 235 c 0
 245 238 252 245 255 245 c 0
 258 245 265 240 264 235 c 0
 263 221 262 211 262 201 c 0
 262 189 263 178 264 161 c 0
 264 156 263 151 258 151 c 0
 250 151 244 161 243 165 c 0
 237 184 223 187 213 188 c 0
 203 189 183 192 166 192 c 0
 146 192 129 189 130 175 c 1
 130 138 131 102 132 68 c 0
 133 37 144 21 173 21 c 2
 240 21 l 2
 243 21 282 26 290 32 c 0
 302 40 312 60 317 70 c 0
 320 75 322 76 326 76 c 0
 330 76 335 73 335 69 c 0
 335 47 329 25 324 7 c 0
 323 2 321 -3 315 -3 c 0
 232 -3 167 1 102 1 c 0
 73 1 62 -3 27 -3 c 0
 16 -3 8 -1 8 4 c 0
 8 9 15 12 30 14 c 0
 62 19 78 30 78 59 c 2
 78 329 l 2
 78 358 66 368 34 373 c 0
 19 375 13 380 13 385 c 0
 13 390 21 392 32 392 c 0
 67 392 73 392 99 391 c 0
 115 391 131 390 148 390 c 0
 204 390 261 392 285 392 c 2
 294 392 l 2
 299 392 305 390 306 386 c 0
 311 363 312 346 313 325 c 0
 313 321 308 319 304 319 c 0
 299 319 298 321 297 325 c 0
 292 338 288 349 282 355 c 0
 270 368 255 371 239 371 c 2
 153 371 l 2
 146 371 134 363 133 353 c 0
 132 348 130 253 130 224 c 0
EndSplineSet
EndChar
StartChar: J.subs
Encoding: 1114359 -1 1042
Width: 229
Flags: HW
LayerCount: 2
Fore
SplineSet
86 331 m 1
 87 359 76 368 44 373 c 0
 29 375 22 380 22 385 c 0
 22 390 30 392 41 392 c 0
 76 392 87 390 117 390 c 0
 145 390 153 392 188 392 c 0
 199 392 207 390 207 385 c 0
 207 380 200 375 185 373 c 0
 153 368 139 359 138 331 c 1
 138 114 l 2
 138 81 136 21 133 11 c 0
 126 -17 120 -38 98 -60 c 0
 78 -80 50 -91 31 -91 c 2
 27 -91 l 2
 3 -91 -36 -90 -36 -66 c 0
 -36 -59 -28 -55 -21 -54 c 0
 -12 -53 -6 -56 0 -63 c 0
 5 -68 15 -73 27 -73 c 0
 59 -73 76 -43 81 -17 c 1
 86 19 86 66 86 79 c 2
 86 331 l 1
EndSplineSet
EndChar
StartChar: Odieresis.deu
Encoding: 1115007 -1 1714
Width: 713
VWidth: 982
Flags: HMW
LayerCount: 2
Fore
SplineSet
551 714 m 0
 579 714 605 688 605 660 c 0
 605 632 579 606 551 606 c 0
 523 606 497 632 497 660 c 0
 497 688 523 714 551 714 c 0
148 714 m 0
 176 714 202 688 202 660 c 0
 202 632 176 606 148 606 c 0
 120 606 94 632 94 660 c 0
 94 688 120 714 148 714 c 0
EndSplineSet
Refer: 47 79 N 1 0 0 1 0 0 3
EndChar
StartChar: Q.long
Encoding: 1114191 -1 824
Width: 721
VWidth: 982
Flags: HMW
AnchorPoint: "top_accent" 375 670 basechar 0
LayerCount: 2
Fore
SplineSet
382 605 m 0
 541 605 671 470 671 311 c 0
 671 207 630 121 552 64 c 0
 499 25 484 19 484 3 c 0
 484 -29 618 -106 667 -126 c 0
 860 -206 965 -250 1152 -250 c 0
 1328 -250 1411 -238 1453 -116 c 0
 1459 -98 1475 -83 1491 -83 c 0
 1514 -83 1523 -101 1523 -118 c 0
 1523 -246 1273 -320 1130 -320 c 0
 861 -320 776 -268 602 -195 c 0
 521 -160 460 -120 392 -85 c 0
 337 -58 280 -26 232 1 c 0
 127 62 50 152 50 281 c 0
 50 461 204 605 382 605 c 0
162 325 m 0
 162 181 225 21 369 21 c 0
 415 21 465 55 499 89 c 0
 547 137 559 201 559 276 c 0
 559 421 483 560 347 560 c 0
 233 560 162 439 162 325 c 0
EndSplineSet
Substitution2: "c2sc subtable" Q.sc
EndChar
StartChar: T_h
Encoding: 1114193 -1 826
Width: 1060
VWidth: 982
Flags: MW
AnchorPoint: "below_accent" 312 -80 basechar 0
AnchorPoint: "cedilla" 332 15 basechar 0
AnchorPoint: "top_accent" 315 670 basechar 0
LayerCount: 2
Fore
SplineSet
685 681 m 0
 697 681 697 673 697 654 c 2
 697 406 l 2
 697 379 709 384 717 391 c 0
 750 418 789 430 841 430 c 0
 911 430 966 364 966 291 c 2
 966 110 l 1
 967 84 977 52 1004 44 c 0
 1031 36 1040 28 1040 18 c 0
 1040 8 1039 -2 1013 -2 c 0
 991 -2 941 4 925 4 c 0
 905 4 873 -2 851 -2 c 0
 825 -2 821 8 821 18 c 0
 821 28 833 36 860 44 c 0
 878 49 883 83 883 108 c 2
 883 261 l 2
 883 320 848 378 796 378 c 0
 738 378 698 344 698 268 c 2
 697 108 l 2
 697 83 701 50 720 44 c 0
 747 36 758 28 758 18 c 0
 758 8 755 -2 729 -2 c 0
 707 -2 672 4 656 4 c 0
 636 4 589 -2 567 -2 c 0
 541 -2 537 8 537 18 c 0
 537 28 549 36 576 44 c 0
 603 52 614 83 614 108 c 2
 614 476 l 2
 614 493 608 536 580 536 c 2
 373 536 l 2
 363 536 361 515 361 505 c 2
 361 129 l 2
 361 92 374 60 408 45 c 0
 430 35 463 30 463 15 c 0
 463 5 442 -1 431 -2 c 0
 424 -2 358 4 310 4 c 0
 263 4 204 -2 197 -2 c 0
 186 -1 164 5 164 15 c 0
 164 30 197 35 219 45 c 0
 253 60 266 92 266 129 c 2
 266 505 l 2
 266 525 260 536 250 536 c 2
 128 536 l 2
 102 536 95 524 85 506 c 8
 74.0732 486.333 67 458 53 458 c 0
 40 458 35 472 35 481 c 0
 35 504 40 512 40 544 c 0
 40 560 38 579 38 589 c 0
 38 602 45 614 55 614 c 0
 65 614 73 602 91 591 c 1
 123 588 142 584 150 584 c 2
 509 584 l 2
 628 584 658 681 685 681 c 0
EndSplineSet
Validated: 1
Ligature2: "Th_lig subtable" T h
LCarets2: 1 508 
EndChar

StartChar: Udieresis.DEU
Encoding: 1114183 -1 794
Width: 617
VWidth: 982
Flags: HW
HStem: -6 50<248.099 419.105> 556 35<0.0203552 60.1516 189.32 226.983 469.023 500.342 576.362 631.977> 606 108<217.08 300.92 388.08 471.92>
VStem: 86 95<124.215 536.82> 205 108<618.08 701.92> 376 108<618.08 701.92> 503 57<144.609 541.768>
LayerCount: 2
Fore
SplineSet
560 492 m 2
 560 250 l 2
 560 95 458 -6 311 -6 c 0
 132 -6 86 103 86 256 c 2
 86 482 l 2
 86 530 79 535 16 556 c 0
 7 559 0 564 0 573 c 0
 0 585 20 591 35 591 c 0
 74 591 78 586 114 586 c 0
 149 586 158 591 192 591 c 0
 207 591 227 585 227 573 c 0
 227 564 221 559 212 556 c 0
 184 547 181 524 181 484 c 2
 181 284 l 2
 181 124 210 44 332 44 c 0
 469 44 503 148 503 304 c 2
 503 490 l 2
 503 542 501 550 486 555 c 0
 477 558 469 564 469 573 c 0
 469 585 482 591 497 591 c 0
 512 591 518 586 533 586 c 0
 548 586 582 591 597 591 c 0
 612 591 632 585 632 573 c 0
 632 564 624 559 615 556 c 0
 569 541 560 531 560 492 c 2
430 714 m 0
 458 714 484 688 484 660 c 0
 484 632 458 606 430 606 c 0
 402 606 376 632 376 660 c 0
 376 688 402 714 430 714 c 0
259 714 m 0
 287 714 313 688 313 660 c 0
 313 632 287 606 259 606 c 0
 231 606 205 632 205 660 c 0
 205 688 231 714 259 714 c 0
EndSplineSet
EndChar
StartChar: a.01
Encoding: 1115076 -1 2147
Width: 515
VWidth: 982
Flags: HMW
AnchorPoint: "below_accent" 229 -80 basechar 0
AnchorPoint: "ogonek" 437 5 basechar 0
AnchorPoint: "top_accent" 237 596 basechar 0
LayerCount: 2
Fore
SplineSet
327 31 m 0
 296.563214114 6.61553640291 263 -8 195 -8 c 0
 90 -8 22 94 22 199 c 0
 22 319 127 430 251 430 c 0
 287 430 334.269670224 415.005823752 353 400 c 0
 361.038433196 393.56000064 363 395 370 399 c 0
 381 406 398 417 408 417 c 0
 420 417 422 404 422 384 c 2
 422 91 l 2
 422 76 442 63 458 63 c 0
 472 63 487 76 494 76 c 0
 500 76 503 65 503 54 c 0
 503 18 453 -8 413 -8 c 0
 380 -8 356.733396887 14.8148246168 344 33 c 0
 339.984964946 38.73406431 331.682582444 34.751455938 327 31 c 0
114 230 m 0
 114 133 156 37 257 37 c 0
 293 37 339 72 339 115 c 2
 339 266 l 2
 339 335 290.568359375 387 226 387 c 0
 156 387 114 303 114 230 c 0
EndSplineSet
EndChar

StartChar: acutecomb.flat
Encoding: 1114165 -1 733
Width: 0
Flags: HW
HStem: 499 121
VStem: 0 220
AnchorPoint: "top_accent" 121 590 mark 0
AnchorPoint: "top_stack" 93 515 mark 0
AnchorPoint: "top_stack" 98 649 basemark 0
LayerCount: 2
Fore
SplineSet
41 504 m 0
 33 502 23 499 14 499 c 0
 7 499 0 502 0 507 c 0
 0 510 1 513 4 517 c 0
 22 536 125 600 159 614 c 0
 166 617 173 620 180 620 c 0
 204 620 220 582 220 570 c 0
 220 567 219 563 216 561 c 0
 194 549 85 516 41 504 c 0
EndSplineSet
EndChar
StartChar: acutecomb.stacksc
Encoding: 1114985 -1 1693
Width: 1000
Flags: MW
LayerCount: 2
Fore
SplineSet
43 471 m 0
 37 465 26 456 21 456 c 0
 16 456 16 459 16 464 c 0
 16 479 54 596 59 605 c 0
 65 615 72 623 82 623 c 0
 92 623 125 608 125 593 c 0
 125 581 50 478 43 471 c 0
EndSplineSet
Validated: 1
EndChar
StartChar: alpha.sc
Encoding: 1114210 -1 891
Width: 549
Flags: HW
LayerCount: 2
Fore
SplineSet
508 27 m 0
 519 25 531 19 531 9 c 0
 531 1 518 -3 511 -3 c 0
 472 -3 458 2 423 2 c 0
 388 2 367 -3 328 -3 c 0
 321 -3 308 1 308 9 c 0
 308 19 320 24 331 27 c 0
 359 34 370 36 370 58 c 0
 370 71 358 106 348 132 c 0
 346 138 343 139 329 139 c 2
 183 139 l 2
 175 139 171 136 167 127 c 0
 153 91 147 81 147 65 c 0
 147 39 164 33 184 27 c 0
 195 23 207 19 207 9 c 0
 207 1 194 -3 187 -3 c 0
 148 -3 141 2 106 2 c 0
 71 2 69 -3 30 -3 c 0
 23 -3 10 1 10 9 c 0
 10 19 22 23 33 26 c 0
 64 33 90 36 114 92 c 2
 230 360 l 2
 244 393 239 407 242 410 c 0
 251 419 275 444 281 451 c 0
 289 460 294 463 297 463 c 0
 301 463 302 460 304 454 c 2
 439 107 l 2
 452 73 468 35 508 27 c 0
257 337 m 0
 240 295 213 233 191 185 c 0
 187 176 192 175 204 175 c 2
 320 175 l 2
 330 175 331 175 328 185 c 0
 321 212 282 306 271 337 c 0
 265 352 263 352 257 337 c 0
EndSplineSet
EndChar
StartChar: asciicircum.subs
Encoding: 1114379 -1 1062
Width: 325
Flags: HW
LayerCount: 2
Fore
SplineSet
162 362 m 1
 179 340 265 225 292 183 c 0
 294 181 295 179 295 177 c 0
 295 173 286 170 283 170 c 0
 275 170 256 178 253 181 c 0
 230 204 185 267 165 293 c 0
 162 297 162 297 159 293 c 0
 139 267 90 199 72 181 c 0
 68 178 50 170 42 170 c 0
 39 170 31 173 31 177 c 0
 31 179 31 181 33 183 c 0
 58 221 144 339 162 362 c 1
EndSplineSet
EndChar
StartChar: at.subs
Encoding: 1114349 -1 1032
Width: 566
Flags: HW
LayerCount: 2
Fore
SplineSet
371 12 m 0
 340 12 338 40 330 40 c 0
 322 40 291 12 244 12 c 0
 194 12 155 42 155 94 c 0
 155 185 226 243 308 243 c 0
 331 243 365 232 365 232 c 1
 372 239 375 247 383 247 c 0
 386 247 414 244 412 241 c 0
 405 223 397 193 395 181 c 2
 379 82 l 2
 374 54 380 43 390 43 c 0
 442 43 487 90 487 142 c 0
 487 244 402 323 298 323 c 0
 182 323 79 247 79 120 c 0
 79 3 180 -87 297 -87 c 0
 346 -87 421 -57 448 -33 c 0
 454 -28 462 -26 466 -26 c 0
 473 -26 476 -29 476 -36 c 0
 476 -54 369 -121 288 -121 c 0
 155 -121 40 -25 40 113 c 0
 40 273 169 357 312 357 c 0
 424 357 526 265 526 153 c 0
 526 65 451 12 371 12 c 0
297 213 m 0
 254 213 212 182 212 108 c 0
 212 54 242 44 270 44 c 0
 304 44 327 63 332 91 c 2
 346 168 l 2
 352 202 328 213 297 213 c 0
EndSplineSet
EndChar

StartChar: b.subs
Encoding: 1114383 -1 1066
Width: 319
Flags: HW
LayerCount: 2
Fore
SplineSet
87 9 m 0
 81 9 72 4 68 2 c 0
 63 -1 46 3 47 8 c 0
 49 25 51 50 51 65 c 2
 51 337 l 2
 51 346 42 377 21 381 c 0
 17 382 14 388 14 393 c 0
 14 398 16 402 20 403 c 0
 53 410 85 420 106 427 c 1
 107 427 l 2
 109 427 111 425 111 423 c 0
 111 420 109 394 109 360 c 2
 109 247 l 2
 109 234 111 227 117 227 c 1
 137 241 168 249 190 249 c 0
 258 249 309 196 309 131 c 0
 309 61 244 -7 173 -7 c 0
 132 -7 96 9 87 9 c 0
248 119 m 0
 248 166 231 220 168 220 c 0
 150 220 132 211 122 200 c 1
 112 191 109 174 109 154 c 2
 109 80 l 2
 109 49 146 19 182 18 c 1
 184 18 l 2
 213 18 248 46 248 119 c 0
EndSplineSet
EndChar

StartChar: braceleft.subs
Encoding: 1114408 -1 1091
Width: 242
Flags: HW
LayerCount: 2
Fore
SplineSet
62 167 m 0
 83 162 134 130 134 88 c 2
 134 -8 l 2
 134 -52 167 -68 203 -68 c 0
 210 -68 220 -74 220 -83 c 0
 220 -88 214 -92 208 -92 c 0
 151 -92 84 -69 84 -13 c 2
 84 94 l 2
 84 128 58 144 23 156 c 0
 18 158 16 162 16 169 c 0
 16 176 18 179 23 181 c 0
 58 193 84 208 84 242 c 0
 84 279 83 307 83 349 c 0
 83 405 150 429 208 429 c 0
 214 429 220 425 220 420 c 0
 220 411 210 405 203 405 c 0
 167 405 133 388 133 344 c 0
 133 307 134 283 134 248 c 0
 134 206 88 180 61 170 c 0
 58 169 60 168 62 167 c 0
EndSplineSet
EndChar

StartChar: braceright.subs
Encoding: 1114410 -1 1093
Width: 242
Flags: HW
LayerCount: 2
Fore
SplineSet
180 167 m 0
 182 168 184 169 181 170 c 0
 154 180 108 206 108 248 c 0
 108 283 109 307 109 344 c 0
 109 388 75 405 39 405 c 0
 32 405 22 411 22 420 c 0
 22 425 28 429 34 429 c 0
 92 429 159 405 159 349 c 0
 159 307 158 279 158 242 c 0
 158 208 184 193 219 181 c 0
 224 179 226 176 226 169 c 0
 226 162 224 158 219 156 c 0
 184 144 158 128 158 94 c 2
 158 -13 l 2
 158 -69 91 -92 34 -92 c 0
 28 -92 22 -88 22 -83 c 0
 22 -74 32 -68 39 -68 c 0
 75 -68 108 -52 108 -8 c 2
 108 88 l 2
 108 130 159 162 180 167 c 0
EndSplineSet
EndChar
StartChar: bracketleft.subs
Encoding: 1114376 -1 1059
Width: 242
Flags: HW
LayerCount: 2
Fore
SplineSet
73 398 m 2
 73 410 75 421 89 421 c 2
 205 421 l 2
 211 421 216 415 216 410 c 0
 216 401 199 399 186 399 c 2
 128 399 l 2
 118 399 113 390 113 381 c 2
 113 -71 l 2
 113 -99 117 -100 131 -100 c 2
 200 -100 l 2
 209 -100 216 -103 216 -111 c 0
 216 -119 208 -122 200 -122 c 2
 93 -122 l 2
 77 -122 73 -117 73 -102 c 2
 73 398 l 2
EndSplineSet
EndChar

StartChar: bracketright.subs
Encoding: 1114378 -1 1061
Width: 242
Flags: HW
LayerCount: 2
Fore
SplineSet
169 398 m 2
 169 -102 l 2
 169 -117 165 -122 149 -122 c 2
 42 -122 l 2
 34 -122 26 -119 26 -111 c 0
 26 -103 33 -100 42 -100 c 2
 111 -100 l 2
 125 -100 129 -99 129 -71 c 2
 129 381 l 2
 129 390 124 399 114 399 c 2
 56 399 l 2
 43 399 26 401 26 410 c 0
 26 415 31 421 37 421 c 2
 153 421 l 2
 167 421 169 410 169 398 c 2
EndSplineSet
EndChar

StartChar: brokenbar.subs
Encoding: 1114412 -1 1095
Width: 169
Flags: HW
LayerCount: 2
Fore
SplineSet
61 191 m 2
 61 380 l 2
 61 395 91 399 95 399 c 0
 100 399 108 397 108 391 c 2
 108 197 l 2
 108 182 79 183 73 183 c 0
 69 183 61 185 61 191 c 2
108 100 m 2
 108 -94 l 2
 108 -109 79 -108 73 -108 c 0
 69 -108 61 -106 61 -100 c 2
 61 89 l 2
 61 104 91 108 95 108 c 0
 100 108 108 106 108 100 c 2
EndSplineSet
EndChar
StartChar: c.subs
Encoding: 1114384 -1 1067
Width: 239
Flags: HW
LayerCount: 2
Fore
SplineSet
12 116 m 0
 12 191 74 251 149 251 c 0
 177 251 207 244 227 222 c 0
 229 219 230 217 230 214 c 0
 230 205 217 184 204 184 c 0
 198 184 194 190 192 193 c 0
 179 214 166 222 134 222 c 0
 92 222 66 180 66 138 c 0
 66 80 97 40 147 40 c 0
 174 40 191 47 208 67 c 0
 209 68 211 69 213 69 c 0
 220 69 231 60 231 54 c 0
 231 32 179 -2 123 -2 c 0
 60 -2 12 54 12 116 c 0
EndSplineSet
EndChar

StartChar: colon.subs
Encoding: 1114343 -1 1026
Width: 162
Flags: HW
LayerCount: 2
Fore
SplineSet
81 70 m 0
 103 70 120 53 120 31 c 0
 120 9 103 -8 81 -8 c 0
 59 -8 42 9 42 31 c 0
 42 53 59 70 81 70 c 0
81 224 m 0
 103 224 120 207 120 185 c 0
 120 163 103 146 81 146 c 0
 59 146 42 163 42 185 c 0
 42 207 59 224 81 224 c 0
EndSplineSet
EndChar

StartChar: delta.sc
Encoding: 1114213 -1 894
Width: 434
Flags: HW
LayerCount: 2
Fore
SplineSet
116 2 m 2
 96 2 63 -3 40 -3 c 0
 26 -3 17 9 17 17 c 0
 17 26 32 49 50 92 c 2
 166 360 l 2
 180 393 175 407 178 410 c 0
 187 419 211 444 217 451 c 0
 225 460 230 463 233 463 c 0
 237 463 238 460 240 454 c 2
 375 107 l 2
 386 79 410 30 410 17 c 0
 410 10 395 -3 381 -3 c 0
 359 -3 325 2 290 2 c 2
 116 2 l 2
311 58 m 2
 207 337 l 2
 201 352 199 352 193 337 c 2
 83 65 l 2
 76 48 86 48 86 48 c 1
 294 48 l 1
 294 48 315 47 311 58 c 2
EndSplineSet
EndChar

StartChar: dollar.subs
Encoding: 1114331 -1 1014
Width: 297
Flags: HW
LayerCount: 2
Fore
SplineSet
172 162 m 2
 152 16 l 2
 151 11 154 10 157 10 c 0
 206 13 229 33 229 89 c 0
 229 119 190 155 174 165 c 0
 172 166 173 165 172 162 c 2
190 220 m 0
 223 198 287 164 287 103 c 0
 287 55 251 -11 153 -11 c 0
 151 -11 149 -12 148 -15 c 2
 142 -61 l 2
 141 -68 133 -70 125 -70 c 0
 120 -70 114 -66 115 -61 c 2
 122 -13 l 2
 122 -11 120 -9 118 -9 c 0
 95 -5 80 1 64 5 c 0
 55 7 56 9 55 12 c 0
 48 26 35 73 34 95 c 0
 34 100 40 104 47 104 c 0
 53 104 73 38 120 16 c 0
 122 15 125 15 125 17 c 2
 147 178 l 2
 147 180 147 183 139 188 c 0
 94 217 54 250 54 298 c 0
 54 333 89 390 170 395 c 0
 174 396 176 397 176 399 c 2
 179 415 l 2
 181 423 190 425 198 425 c 0
 203 425 207 420 206 415 c 2
 204 404 l 2
 203 398 204 396 207 395 c 0
 233 393 249 388 259 386 c 0
 266 385 269 379 270 373 c 0
 274 353 280 330 280 309 c 0
 280 304 276 294 273 294 c 0
 270 294 259 300 256 309 c 0
 246 345 224 363 203 371 c 0
 201 372 200 369 200 368 c 2
 181 232 l 2
 180 223 182 225 190 220 c 0
168 376 m 0
 130 373 104 341 104 310 c 0
 104 285 125 264 150 247 c 0
 151 246 152 246 153 246 c 0
 155 246 156 247 156 248 c 2
 173 371 l 2
 173 374 171 376 168 376 c 0
EndSplineSet
EndChar
StartChar: e.fina
Encoding: 1114124 -1 250
Width: 1175
VWidth: 982
Flags: HW
HStem: -65 81<314.66 633.199> 258 46<127.109 281.698> 384 46<161.2 272.609>
VStem: 23 83<144.613 257.816> 283 87<305.087 372.712> 1105 53<248.302 370.238>
LayerCount: 2
Fore
SplineSet
127 315 m 8
 127 308 128 304 140 304 c 2
 255 304 l 2
 274 304 283 321 283 335 c 0
 283 364 253 384 224 384 c 0
 164 384 127 335 127 315 c 8
23 213 m 0
 23 336 116 430 238 430 c 0
 306 430 370 377 370 326 c 0
 370 299 349 258 323 258 c 2
 129 258 l 2
 115 258 113 256 110 248 c 0
 106 237 106 235 106 218 c 0
 106 33 426 16 495 16 c 0
 701 16 1105 95 1105 324 c 0
 1105 334 1097 353 1077 380 c 0
 1062 402 1052 419 1052 430 c 0
 1052 445 1062 455 1083 455 c 0
 1115 455 1158 418 1158 351 c 0
 1158 67 732 -65 401 -65 c 0
 211 -65 23 22 23 213 c 0
EndSplineSet
EndChar

StartChar: e.sc
Encoding: 1114719 -1 1426
Width: 443
Flags: W
HStem: -2 63<205.407 347.046> -2 51<38.3252 109.177> 205 51<202.749 307.377> 406 47<202.015 328.279> 414 39<34.1293 103.475>
VStem: 116 86<63.6299 205 256 400.417> 362 47<73.077 137.62>
AnchorPoint: "ogonek" 319 15 basechar 0
AnchorPoint: "below_accent" 222 -80 basechar 0
AnchorPoint: "top_accent" 222 630 basechar 0
AnchorPoint: "cedilla" 235 15 basechar 0
LayerCount: 2
Fore
SplineSet
156 4 m 0x66
 131 4 83 -2 63 -2 c 0
 51 -2 30 5 30 15 c 0
 30 30 63 39 85 49 c 0
 119 64 116 92 116 129 c 2
 116 344 l 2
 116 401 107 398 50 414 c 0
 41 417 34 426 34 435 c 0
 34 447 54 453 69 453 c 0
 108 453 124 449 160 449 c 0
 195 449 308 453 350 453 c 0x6e
 366 453 365 454 371 434 c 0
 374 425 377 395 377 385 c 0
 377 374 373 354 360 354 c 0
 347 354 336 364 327 388 c 0
 324 396 311 406 296 406 c 2
 226 406 l 2
 204 406 202 401 202 382 c 2
 202 296 l 2
 202 276 203 256 218 256 c 2
 268 256 l 2
 312 256 312 296 332 296 c 0
 342 296 344 275 344 229 c 0
 344 184 344 161 330 161 c 4
 311 161 312 205 266 205 c 2
 220 205 l 2
 207 205 202 208 202 172 c 2
 202 104 l 2
 202 81 212 61 237 61 c 2
 321 61 l 2xb6
 341 61 352 92 362 116 c 0
 366 127 377 138 387 138 c 0
 399 138 409 126 409 101 c 0
 409 68 382 -2 365 -2 c 0
 298 -2 227 4 156 4 c 0x66
EndSplineSet
EndChar

StartChar: e.subs
Encoding: 1114386 -1 1069
Width: 232
Flags: HW
LayerCount: 2
Fore
SplineSet
9 117 m 0
 9 192 71 251 145 251 c 0
 184 251 223 225 223 185 c 0
 223 152 219 143 200 143 c 2
 69 142 l 2
 64 142 63 138 63 134 c 0
 63 85 94 38 143 38 c 0
 165 38 185 46 202 64 c 0
 203 65 206 69 211 69 c 0
 216 69 226 57 226 51 c 0
 226 40 189 -2 126 -2 c 0
 61 -2 9 52 9 117 c 0
65 174 m 0
 64 171 67 171 73 171 c 2
 173 171 l 2
 177 171 177 176 177 183 c 0
 177 208 159 224 135 224 c 0
 104 224 75 206 65 174 c 0
EndSplineSet
EndChar
StartChar: eight.subs
Encoding: 1114266 -1 947
Width: 300
Flags: HW
LayerCount: 2
Fore
SplineSet
163 193 m 0
 189 214 200 233 200 264 c 0
 200 291 180 316 153 316 c 0
 127 316 100 300 100 274 c 0
 100 237 121 221 155 194 c 0
 157 192 161 191 163 193 c 0
183 179 m 0
 227 154 265 133 265 86 c 0
 265 25 204 -14 144 -14 c 0
 90 -14 35 18 35 71 c 0
 35 118 75 141 116 162 c 0
 120 164 117 167 115 169 c 0
 79 199 48 222 48 269 c 0
 48 316 105 340 155 340 c 0
 202 340 249 318 249 273 c 0
 249 234 218 211 186 189 c 0
 179 184 177 182 183 179 c 0
127 150 m 0
 103 131 95 121 95 86 c 0
 95 49 115 11 152 11 c 0
 186 11 205 38 205 69 c 0
 205 103 179 126 146 148 c 0
 142 151 138 153 134 153 c 0
 132 153 130 152 127 150 c 0
EndSplineSet
EndChar
StartChar: eight.tablining
Encoding: 1114324 -1 1005
Width: 452
Flags: MW
LayerCount: 2
Fore
SplineSet
268 339 m 0
 306 368 320 403 320 468 c 0
 320 516 284 561 237 561 c 0
 190 561 145 530 145 483 c 0
 145 416 198 381 254 342 c 0
 258 339 264 336 268 339 c 0
305 312 m 0
 371 270 430 234 430 155 c 0
 430 50 327 -14 222 -14 c 0
 129 -14 34 36 34 129 c 0
 34 208 99 241 169 277 c 0
 173 279 174 283 166 290 c 0
 107 341 63 384 63 463 c 0
 63 550 154 597 242 597 c 0
 323 597 402 546 402 465 c 0
 402 393 350 363 310 333 c 0
 293 321 295 318 305 312 c 0
189 254 m 0
 152 225 129 194 129 145 c 0
 129 83 174 26 236 26 c 0
 288 26 335 64 335 114 c 0
 335 182 277 213 221 251 c 0
 213 257 207 260 201 260 c 0
 198 260 194 258 189 254 c 0
EndSplineSet
Validated: 1
Substitution2: "'pnum' Proportionalziffern lookup 36 subtable" eight.lnum
Substitution2: "'onum' Minuskelziffern lookup 34 subtable" eight.taboldstyle
EndChar
StartChar: eight.taboldstyle
Encoding: 1114314 -1 995
Width: 412
VWidth: 982
Flags: MW
LayerCount: 2
Fore
SplineSet
128 129 m 4
 128 84 158 32 203 32 c 4
 240 32 284 62 284 99 c 4
 284 151 271 191 232 226 c 6
 196 259 l 5
 162 225 l 6
 136 199 128 164 128 129 c 4
283 445 m 4
 283 483 250 526 209 526 c 4
 172 526 148 483 148 446 c 4
 148 414 175 396 200 371 c 6
 226 345 l 5
 253 369 l 6
 276 390 283 414 283 445 c 4
164 289 m 5
 105 342 l 6
 77 368 66 393 66 431 c 4
 66 515 151 564 235 564 c 4
 301 564 353 509 353 443 c 4
 353 412 333 392 311 370 c 6
 255 315 l 5
 325 244 l 6
 359 210 374 179 374 131 c 4
 374 33 262 -8 164 -8 c 4
 95 -8 38 49 38 118 c 4
 38 185 83 216 133 261 c 6
 164 289 l 5
EndSplineSet
Validated: 1
Substitution2: "'pnum' Proportionalziffern lookup 36 subtable" eight
Substitution2: "'lnum' Lining Figures lookup 33 subtable" eight.tablining
EndChar
StartChar: emdash.cap
Encoding: 1115050 -1 2104
Width: 1000
VWidth: 982
Flags: MW
LayerCount: 2
Fore
SplineSet
924 485 m 2
 954 485 960 483 960 468 c 0
 960 454 947 417 917 417 c 2
 69 417 l 2
 46 417 40 419 40 435 c 0
 40 451 59 485 89 485 c 2
 924 485 l 2
EndSplineSet
Validated: 1
EndChar
StartChar: endash.cap
Encoding: 1115053 -1 2118
Width: 500
VWidth: 982
Flags: HW
HStem: 417 68<51.7004 450.395>
LayerCount: 2
Fore
SplineSet
424 485 m 2
 454 485 460 483 460 468 c 0
 460 454 447 417 417 417 c 2
 69 417 l 2
 46 417 40 419 40 435 c 0
 40 451 59 485 89 485 c 2
 424 485 l 2
EndSplineSet
EndChar

StartChar: epsilon.sc
Encoding: 1114214 -1 895
Width: 480
Flags: HW
LayerCount: 2
Fore
SplineSet
151 448 m 0
 239 448 336 451 382 451 c 0
 386 451 394 450 394 445 c 0
 396 394 404 366 404 353 c 0
 404 349 400 340 396 340 c 0
 391 340 382 346 377 358 c 0
 363 391 352 410 317 410 c 2
 220 410 l 2
 212 410 195 405 195 392 c 2
 195 268 l 2
 195 261 200 244 206 244 c 2
 285 244 l 2
 306 244 314 257 322 281 c 0
 324 288 330 298 337 298 c 0
 345 298 350 289 349 283 c 0
 348 267 346 243 346 228 c 0
 346 210 349 192 350 173 c 0
 351 167 346 156 340 156 c 0
 328 156 324 176 322 180 c 0
 316 201 301 205 290 207 c 0
 270 209 261 211 240 211 c 0
 221 211 195 210 195 191 c 2
 195 80 l 2
 195 44 198 39 228 39 c 2
 328 39 l 2
 369 39 398 68 411 97 c 0
 413 101 416 112 425 112 c 0
 434 112 435 102 435 96 c 0
 432 69 424 32 418 10 c 0
 417 4 408 -2 401 -2 c 0
 302 -2 217 3 148 3 c 1
 112 2 89 -3 50 -3 c 0
 43 -3 30 1 30 9 c 0
 30 19 43 23 54 25 c 0
 89 32 120 43 120 79 c 2
 120 352 l 2
 120 393 104 415 62 422 c 0
 50 424 38 431 38 441 c 0
 38 449 51 453 58 453 c 0
 97 453 116 448 151 448 c 0
EndSplineSet
EndChar

StartChar: equal.subs
Encoding: 1114346 -1 1029
Width: 390
Flags: HW
LayerCount: 2
Fore
SplineSet
48 116 m 2
 349 116 l 2
 354 116 358 104 358 100 c 0
 358 87 351 72 337 72 c 2
 42 72 l 2
 35 72 32 83 32 87 c 0
 32 92 35 116 48 116 c 2
48 224 m 2
 349 224 l 2
 354 224 358 213 358 209 c 0
 358 196 351 180 337 180 c 2
 42 180 l 2
 35 180 32 192 32 196 c 0
 32 201 35 224 48 224 c 2
EndSplineSet
EndChar

StartChar: f.sc
Encoding: 1114720 -1 1427
Width: 413
Flags: W
HStem: -2 51<38.3252 109.177 210.482 281.675> 205 51<203.755 322.643> 406 47<203.015 340.279> 414 39<34.1293 103.475>
VStem: 116 87<55.2266 205 256 400.417>
AnchorPoint: "below_accent" 160 -80 basechar 0
AnchorPoint: "top_accent" 228 630 basechar 0
AnchorPoint: "cedilla" 173 15 basechar 0
LayerCount: 2
Fore
SplineSet
221 205 m 2xe8
 211 205 202 200 202 181 c 2
 202 129 l 2
 203 92 201 64 235 49 c 0
 257 39 290 30 290 15 c 0
 290 5 269 -1 258 -2 c 0
 251 -2 205 4 157 4 c 0
 110 4 71 -2 64 -2 c 0
 52 -1 30 5 30 15 c 0
 30 30 63 39 85 49 c 0
 119 64 116 92 116 129 c 2
 116 344 l 2
 116 401 107 398 50 414 c 0
 41 417 34 426 34 435 c 0
 34 447 54 453 69 453 c 0
 108 453 124 448 160 448 c 0
 195 448 347 453 362 453 c 0xd8
 378 453 377.54 452.198 383 434 c 0
 385.299 426.338 389 395 389 385 c 0
 389 374 385 354 372 354 c 0
 359 354 348 364 339 388 c 0
 336 396 323 406 308 406 c 2
 227 406 l 2
 205 406 203 401 203 382 c 2
 203 296 l 2
 203 276 204 256 219 256 c 2
 280 256 l 2
 324 256 334 296 344 296 c 0
 354 296 356 275 356 229 c 0
 356 184 356 161 342 161 c 0
 332 161 324 205 278 205 c 2
 221 205 l 2xe8
EndSplineSet
EndChar

StartChar: f.subs
Encoding: 1114387 -1 1070
Width: 222
Flags: HW
LayerCount: 2
Fore
SplineSet
112 287 m 2
 112 259 l 2
 112 248 120 246 128 246 c 2
 197 246 l 2
 199 246 202 242 202 237 c 0
 202 226 195 208 191 208 c 2
 138 208 l 2
 114 208 112 203 112 197 c 2
 112 50 l 1
 113 34 127 28 140 24 c 0
 147 22 155 15 155 9 c 0
 155 3 143 0 140 0 c 2
 30 0 l 2
 27 0 15 3 15 9 c 0
 15 15 23 22 30 24 c 0
 43 28 56 34 56 50 c 2
 56 207 l 1
 48 207 39 207 25 208 c 0
 22 209 16 221 16 229 c 0
 16 232 20 235 21 235 c 0
 41 240 43 241 56 247 c 1
 56 386 143 425 200 425 c 0
 229 425 243 422 265 407 c 0
 271 403 274 398 274 392 c 0
 274 376 254 357 242 357 c 0
 222 357 233 393 178 393 c 0
 138 393 112 368 112 287 c 2
EndSplineSet
EndChar
StartChar: figuredash.cap
Encoding: 1115052 -1 2117
Width: 500
VWidth: 982
Flags: HW
LayerCount: 2
Fore
SplineSet
424 485 m 2
 454 485 460 483 460 468 c 0
 460 454 447 417 417 417 c 2
 69 417 l 2
 46 417 40 419 40 435 c 0
 40 451 59 485 89 485 c 2
 424 485 l 2
EndSplineSet
EndChar
StartChar: four.subs
Encoding: 1114262 -1 943
Width: 300
Flags: HW
LayerCount: 2
Fore
SplineSet
162 126 m 2
 165 126 170 128 170 131 c 2
 170 249 l 2
 170 251 166 252 164 250 c 0
 124 205 95 168 66 131 c 0
 65 129 64 126 66 126 c 2
 162 126 l 2
276 92 m 2
 236 92 l 2
 224 92 222 90 222 86 c 2
 222 12 l 2
 222 -3 183 -15 179 -15 c 0
 174 -15 170 -13 170 -7 c 2
 170 85 l 2
 170 89 162 90 161 90 c 0
 112 90 78 87 15 86 c 0
 12 86 8 90 8 93 c 0
 8 94 9 94 9 94 c 1
 51 150 96 204 140 258 c 0
 152 273 174 299 198 323 c 0
 205 330 213 336 218 336 c 0
 221 336 222 330 222 327 c 2
 222 133 l 2
 222 128 223 125 229 125 c 2
 250 125 l 2
 264 125 269 125 284 126 c 0
 289 126 290 123 290 119 c 0
 290 109 282 92 276 92 c 2
EndSplineSet
EndChar
StartChar: g.01
Encoding: 1115077 -1 2148
Width: 471
VWidth: 982
Flags: MW
AnchorPoint: "top_accent" 200 596 basechar 0
LayerCount: 2
Fore
SplineSet
193 430 m 4
 246 430 268 421 283 413 c 4
 299 405 314 396 324 396 c 6
 428 398 l 6
 448 398 456 377 456 363 c 4
 456 345 446 332 420 332 c 4
 407 332 361 337 352 337 c 4
 345 337 341 332 343 326 c 4
 346 318 351 289 351 282 c 4
 351 209 273 121 183 121 c 4
 172 121 167 124 162 124 c 4
 161 124 150 123 145 119 c 4
 130 106 115 89 115 73 c 4
 115 59 139 44 186 42 c 6
 298 38 l 6
 342 36 407 -4 407 -59 c 4
 407 -189 283 -272 153 -272 c 4
 61 -272 -10 -238 -10 -160 c 4
 -10 -112 38 -66 86 -36 c 4
 91 -33 90 -28 80 -23 c 4
 47 -8 23 5 23 38 c 4
 23 47 29 54 37 61 c 4
 52 74 88 104 104 128 c 4
 107 132 111 137 104 141 c 4
 59 167 23 241 23 273 c 4
 23 363 103 430 193 430 c 4
109 289 m 4
 109 233 137 164 193 164 c 4
 247 164 269 230 269 286 c 4
 269 337 228 382 178 382 c 12
 133 382 109 334 109 289 c 4
73 -131 m 4
 73 -193 139 -216 198 -216 c 4
 271 -216 330 -179 330 -116 c 4
 330 -51 278 -37 177 -37 c 4
 151 -37 132 -42 110 -62 c 4
 85 -85 73 -109 73 -131 c 4
EndSplineSet
Validated: 1
EndChar

StartChar: gravecomb.cap
Encoding: 65560 -1 704
Width: 0
Flags: W
HStem: 685 153
VStem: 6 167
AnchorPoint: "top_accent" 131 705 mark 0
AnchorPoint: "top_stack" 127 710 mark 0
LayerCount: 2
Fore
SplineSet
167 685 m 0
 164 685 158 687 149 694 c 0
 109 724 59 762 19 796 c 0
 10 804 6 808 6 815 c 0
 6 829 56 838 70 838 c 0
 81 838 90 835 97 825 c 0
 124 786 144 746 168 706 c 0
 171 701 173 695 173 691 c 0
 173 688 171 685 167 685 c 0
EndSplineSet
Validated: 1
EndChar
StartChar: gravecomb.grksc
Encoding: 1114993 -1 1701
Width: 1000
Flags: MW
LayerCount: 2
Fore
SplineSet
85 478 m 0
 64 514 14 612 14 622 c 0
 14 638 33 663 52 663 c 0
 60 663 74 657 77 645 c 0
 87 609 118 487 118 469 c 0
 118 460 118 456 109 456 c 0
 101 456 91 468 85 478 c 0
EndSplineSet
Validated: 1
EndChar
StartChar: gravecomb.grkstack
Encoding: 1114960 -1 1668
Width: 1000
Flags: MW
LayerCount: 2
Fore
SplineSet
85 478 m 0
 64 514 14 612 14 622 c 0
 14 638 33 663 52 663 c 0
 60 663 74 657 77 645 c 0
 87 609 118 487 118 469 c 0
 118 460 118 456 109 456 c 0
 101 456 91 468 85 478 c 0
EndSplineSet
Validated: 1
Substitution2: "Smallcaps1 subtable" gravecomb.grkstacksc
EndChar
StartChar: gravecomb.sc
Encoding: 1114966 -1 1674
Width: 0
Flags: MW
AnchorPoint: "top_accent" 124 596 mark 0
LayerCount: 2
Fore
SplineSet
126 512 m 0
 95 545 8 646 8 660 c 0
 8 676 38 683 63 683 c 0
 73 683 84 675 90 665 c 0
 109 632 165 518 165 503 c 0
 165 494 165 490 156 490 c 0
 148 490 134 503 126 512 c 0
EndSplineSet
Validated: 1
EndChar
StartChar: gravecomb.stack
Encoding: 1114166 -1 734
Width: 0
Flags: HW
HStem: 456 167
VStem: 10 109
AnchorPoint: "gravestack" 92 456 mark 0
LayerCount: 2
Fore
SplineSet
92 471 m 0
 85 478 10 581 10 593 c 0
 10 608 49 623 59 623 c 0
 69 623 76 615 82 605 c 0
 87 596 119 479 119 464 c 0
 119 459 119 456 114 456 c 0
 109 456 98 465 92 471 c 0
EndSplineSet
Substitution2: "Smallcaps subtable" gravecomb.stacksc
EndChar

StartChar: gravecomb.stacksc
Encoding: 1114988 -1 1697
Width: 1000
Flags: HW
LayerCount: 2
Fore
SplineSet
92 471 m 0
 85 478 10 581 10 593 c 0
 10 608 43 623 53 623 c 0
 63 623 70 615 76 605 c 0
 81 596 119 479 119 464 c 0
 119 459 119 456 114 456 c 0
 109 456 98 465 92 471 c 0
EndSplineSet
EndChar

StartChar: greater.subs
Encoding: 1114347 -1 1030
Width: 354
Flags: HW
LayerCount: 2
Fore
SplineSet
267 138 m 2
 269 139 270 140 268 141 c 2
 45 235 l 2
 32 241 28 252 25 266 c 0
 24 270 28 283 32 281 c 2
 318 161 l 2
 330 156 339 139 339 134 c 0
 339 130 324 122 312 117 c 2
 32 -3 l 2
 28 -5 24 7 24 10 c 0
 24 15 27 37 40 43 c 2
 267 138 l 2
EndSplineSet
EndChar
StartChar: hookabovecomb.cap
Encoding: 1115044 -1 2098
Width: 0
Flags: MW
AnchorPoint: "hookstack" 53 712 mark 0
AnchorPoint: "top_accent" 99 700 mark 0
LayerCount: 2
Fore
SplineSet
29 771 m 0
 11 771 5 788 5 802 c 0
 5 812 9 821 18 826 c 0
 38 838 61 849 99 849 c 0
 138 849 177 818 177 779 c 0
 177 762 159 729 132 725 c 0
 119 723 116 715 116 709 c 0
 116 705 118 700 121 694 c 0
 126 685 106 683 96 683 c 0
 83 683 68 704 68 718 c 0
 68 730 70 741 92 750 c 0
 106 756 116 764 116 785 c 0
 116 798 103 812 91 812 c 0
 72 812 56 796 43 770 c 0
 40 764 35 771 29 771 c 0
EndSplineSet
Validated: 1
EndChar
StartChar: hyphen.subs
Encoding: 1114340 -1 1023
Width: 178
Flags: HW
LayerCount: 2
Fore
SplineSet
22 102 m 0
 19 102 19 104 19 106 c 0
 19 119 23 147 29 148 c 0
 71 153 150 163 154 163 c 0
 158 163 159 161 159 159 c 0
 159 145 156 118 146 117 c 0
 107 112 26 102 22 102 c 0
EndSplineSet
EndChar
StartChar: j.sc
Encoding: 1114722 -1 1429
Width: 323
VWidth: 982
Flags: MW
AnchorPoint: "top_accent" 160 630 basechar 0
LayerCount: 2
Fore
SplineSet
116 13 m 2
 116 344 l 2
 116 401 107 398 50 414 c 0
 41 417 34 426 34 435 c 0
 34 447 54 453 69 453 c 0
 108 453 124 448 160 448 c 0
 195 448 216 453 250 453 c 0
 265 453 285 447 285 435 c 0
 285 426 279 417 270 414 c 0
 213 398 202 401 202 344 c 2
 202 49 l 2
 202 -70 145.376 -199 27 -199 c 0
 -18.5195 -199 -82 -177 -82 -146 c 0
 -82 -116.15 -55.8496 -87 -26 -87 c 4
 6 -87 10.1475 -147 47 -147 c 16
 115.67 -147 116 -54 116 13 c 2
EndSplineSet
Validated: 1
EndChar
StartChar: k.sc
Encoding: 1114725 -1 1432
Width: 541
Flags: HW
HStem: -2 51<38.3252 109.177 307.609 343.716 451.344 525.473> 195 49<202 250.21> 414 39<34.1293 103.475 209.291 272.93 320.129 355.475 447.932 523.93>
VStem: 116 86<54.3832 194.952 244.001 400.445>
AnchorPoint: "cedilla" 173 15 basechar 0
AnchorPoint: "below_accent" 285 -80 basechar 0
AnchorPoint: "top_accent" 285 630 basechar 0
LayerCount: 2
Fore
SplineSet
380 352 m 2
 313 270 l 2
 299.713 253.738 299.928 252.682 321 226 c 2
 422 98 l 2
 444.312 69.748 468 61 498 48 c 0
 520 39 528 30 528 15 c 1
 528 5 507 -1 496 -2 c 0
 489 -2 464 4 416 4 c 0
 369 4 344 -2 337 -2 c 0
 326 -1 304 5 304 15 c 0
 304 30 315 37 340 46 c 0
 348 49 352.494 61.3806 337 81 c 2
 273 162 l 2
 249.448 191.822 225 195 219 195 c 0
 205 194 202 191 202 179 c 2
 202 96 l 2
 202 75 207.786 57.2621 226 49 c 0
 248.011 39.0153 264 30 264 15 c 0
 264 5 243 -1 232 -2 c 0
 225 -2 204 4 156 4 c 0
 109 4 70 -2 63 -2 c 0
 52 -1 30 5 30 15 c 0
 30 30 63 39 85 49 c 0
 119 64 116 92 116 129 c 2
 116 344 l 2
 116 401 107 398 50 414 c 0
 41 417 34 426 34 435 c 0
 34 447 54 453 69 453 c 0
 108 453 124 448 160 448 c 0
 195 448 204 453 238 453 c 0
 253 453 273 447 273 435 c 0
 273 426 267 417 258 414 c 0
 201 398 202 401 202 344 c 2
 202 262 l 2
 202 245 203.57 244 213 244 c 0
 235 244 263.08 279.964 277 297 c 2
 344 379 l 2
 354.767 392.155 348.978 407.688 330 414 c 0
 321.46 416.841 314 426 314 435 c 0
 314 447 334 453 349 453 c 0
 359 453 385 448 403 448 c 0
 428 448 459 453 483 453 c 0
 498 453 518 447 518 435 c 0
 518 426 512 417 503 414 c 0
 446 398 411.669 390.692 380 352 c 2
EndSplineSet
EndChar

StartChar: k.subs
Encoding: 1114392 -1 1075
Width: 326
Flags: HW
LayerCount: 2
Fore
SplineSet
104 427 m 2
 107 427 108 424 108 419 c 0
 108 406 102 379 102 342 c 2
 102 159 l 2
 102 156 105 147 107 147 c 0
 113 147 122 155 128 160 c 2
 186 208 l 2
 190 211 194 219 184 224 c 0
 179 227 171 231 171 236 c 0
 171 245 178 246 185 246 c 2
 277 246 l 2
 283 246 285 241 285 237 c 0
 285 232 282 225 273 224 c 0
 256 221 238 217 228 209 c 2
 154 154 l 2
 151 152 150 146 156 140 c 2
 242 52 l 2
 256 38 281 28 294 24 c 0
 304 21 309 15 309 9 c 0
 309 3 301 0 294 0 c 2
 177 0 l 2
 170 0 162 3 162 9 c 0
 162 23 191 25 191 37 c 0
 191 39 190 43 187 46 c 2
 108 125 l 2
 106 127 102 126 102 121 c 2
 102 49 l 2
 102 33 108 28 121 24 c 0
 131 21 136 15 136 9 c 0
 136 3 128 0 121 0 c 2
 24 0 l 2
 17 0 9 3 9 9 c 0
 9 15 13 21 24 24 c 0
 37 28 48 33 48 49 c 2
 48 335 l 2
 48 344 44 375 23 379 c 0
 18 380 14 385 14 391 c 0
 14 396 18 402 22 403 c 0
 55 410 82 420 103 427 c 1
 104 427 l 2
EndSplineSet
EndChar

StartChar: less.subs
Encoding: 1114345 -1 1028
Width: 354
Flags: HW
LayerCount: 2
Fore
SplineSet
87 138 m 2
 314 43 l 2
 327 37 330 15 330 10 c 0
 330 7 326 -5 322 -3 c 2
 42 117 l 2
 30 122 15 130 15 134 c 0
 15 139 24 156 36 161 c 2
 322 281 l 2
 326 283 330 270 329 266 c 0
 326 252 322 241 309 235 c 2
 86 141 l 2
 84 140 85 139 87 138 c 2
EndSplineSet
EndChar
StartChar: longs_l
Encoding: 1114119 -1 221
Width: 548
VWidth: 982
Flags: HW
HStem: -2 46<16.002 85.6687 187.178 246.438 301.613 361.822 463.331 532.065> 636 54<247.581 335.283> 661 20G<438.5 446>
VStem: 97 83<53.0419 362 424.715 526.088> 369 83<53.0419 604.995>
AnchorPoint: "top_right" 504 590 basechar 0
AnchorPoint: "below_accent" 141 -80 basechar 0
AnchorPoint: "top_accent" 265 785 basechar 0
LayerCount: 2
Fore
SplineSet
424 678 m 0xd8
 432 680 437 681 440 681 c 0xb8
 452 681 452 673 452 654 c 2
 452 108 l 2
 452 83 463 52 490 44 c 0
 517 36 533 28 533 18 c 0
 533 8 525 -2 499 -2 c 0
 477 -2 427 4 411 4 c 0
 391 4 351 -2 329 -2 c 0
 303 -2 301 8 301 18 c 0
 301 28 311 36 338 44 c 0
 365 52 369 83 369 108 c 2
 369 539 l 2
 369 568 366 590 348 605 c 0
 324 625 294 636 280 636 c 0
 200 636 180 513 180 425 c 2
 180 108 l 1
 180 83 184 52 211 44 c 0
 238 36 247 28 247 18 c 0
 247 8 246 -2 220 -2 c 0
 198 -2 155 4 139 4 c 0
 119 4 72 -2 50 -2 c 0
 24 -2 15 8 15 18 c 0
 15 28 32 36 59 44 c 0
 86 52 97 83 97 108 c 2
 98 362 l 1
 50 362 l 2
 40 363 23 365 23 375 c 0
 23 389 56 418 84 428 c 0
 95 432 97 438 97 449 c 0
 97 508 181 690 332 690 c 0
 356 690 378 687 396 682 c 0
 401 681 419 677 424 678 c 0xd8
EndSplineSet
Ligature2: "liga_standard subtable" longs l
LCarets2: 1 281 
EndChar

StartChar: longs_longs_i
Encoding: 65545 -1 223
Width: 788
VWidth: 982
Flags: W
HStem: -2 46<16.002 85.6687 186.499 241.552 289.763 345.182 438.28 493.065 543.002 603.287 703.331 772.065> 593 56<228.413 335.944> 636 54<498.015 626>
VStem: 97 83<53.0419 362 424.715 519.758> 350 83<46.8919 362 424.715 577.986> 609 83<53.0419 341.382>
LayerCount: 2
Fore
SplineSet
609 108 m 2x9c
 609 302 l 2
 609 319 592 344 568 353 c 0
 557 357 547 363 547 374 c 0
 547 385 563 393 576 399 c 0
 587 405 670 438 680 438 c 0
 692 438 692 429 692 409 c 2
 692 108 l 2
 692 83 703 52 730 44 c 0
 757 36 773 28 773 18 c 0
 773 8 765 -2 739 -2 c 0
 717 -2 666 4 651 4 c 0
 631 4 599 -2 577 -2 c 0
 551 -2 542 8 542 18 c 0
 542 28 559 40 586 48 c 0
 606 54 609 83 609 108 c 2x9c
392 4 m 0
 370 4 341 -2 319 -2 c 0
 293 -2 289 8 289 18 c 0
 289 28 301 36 328 44 c 0
 347 50 350 83 350 108 c 2
 351 362 l 2
 303 362 l 2
 293 362 276 365 276 375 c 0
 276 389 309 418 337 428 c 0
 348 432 350 438 350 449 c 0
 350 485 356 506 358 511 c 0
 362 524 361 526 357 535 c 0
 339 578 319 593 279 593 c 0
 219 593 180 553 180 473 c 2
 180 108 l 2
 180 61 194 49 209 44 c 0
 236 36 242 28 242 18 c 0
 242 8 239 -2 213 -2 c 0
 191 -2 154 4 138 4 c 0
 118 4 72 -2 50 -2 c 0
 24 -2 15 8 15 18 c 0
 15 28 32 36 59 44 c 0
 86 52 97 83 97 108 c 2
 97 362 l 1
 49 362 l 2
 39 362 22 365 22 375 c 0
 22 389 55 418 83 428 c 0
 94 432 97 438 97 449 c 0
 97 524 195 649 313 649 c 0xdc
 332 649 354 644 384 630 c 0
 396 624 412 612 417 612 c 0
 422 612 435 622 448 633 c 0
 491 669 527 690 585 690 c 0
 667 690 709 656 709 606 c 0
 709 579 669 561 641 561 c 0
 620 561 622 574 591 605 c 0
 570 626 547 636 533 636 c 0xbc
 468 634 433 557 433 498 c 2
 433 108 l 2
 433 83 438 52 451 48 c 0
 478 40 494 28 494 18 c 0
 494 8 486 -2 460 -2 c 0
 438 -2 408 4 392 4 c 0
EndSplineSet
Validated: 1
Ligature2: "liga_standard subtable" longs longs i
LCarets2: 2 270 521 
EndChar

StartChar: longs_p
Encoding: 1114122 -1 224
Width: 716
VWidth: 982
Flags: HW
HStem: -273 46<432.75 529.065> -260 46<275.002 332.641> -6 51<16.7468 85.704 190.687 259.345 436.062 550.5> 378 52<461.056 556.598> 636 54<247.581 335.513>
VStem: 97 83<53.0419 362 424.715 526.088> 336 83<-210.6 5.99634 63.158 341.382> 604 92<146.928 322.944>
AnchorPoint: "below_accent" 141 -80 basechar 0
AnchorPoint: "top_accent" 265 785 basechar 0
LayerCount: 2
Fore
SplineSet
336 -161 m 2x7f
 336 302 l 2
 336 319 319 344 295 353 c 0
 284 357 274 363 274 374 c 0
 274 385 290 393 303 399 c 0
 314 405 397 438 407 438 c 0
 419 438 419 429 419 410 c 2
 419 392 l 2
 420 387 425 382 433 390 c 0
 449 406 501 430 546 430 c 0
 629 430 696 341 696 257 c 0
 696 121 601 -6 468 -6 c 0
 448 -6 433 6 429 6 c 0
 420 6 419 1 419 -8 c 2
 419 -169 l 2
 419 -204 433 -212 487 -227 c 0
 514 -235 530 -243 530 -253 c 0
 530 -263 522 -273 496 -273 c 0xbf
 462 -273 402 -260 309 -260 c 0
 283 -260 274 -250 274 -240 c 0
 274 -230 291 -222 318 -214 c 0
 331 -210 336 -186 336 -161 c 2x7f
419 294 m 2
 419 107 l 2
 419 70 454 45 491 45 c 0
 569 45 604 129 604 211 c 0
 604 294 581 378 494 378 c 0
 449 378 419 338 419 294 c 2
50 362 m 2
 40 363 23 365 23 375 c 0
 23 389 56 418 84 428 c 0
 95 432 97 438 97 449 c 0
 97 508 181 690 332 690 c 0
 414 690 466 658 466 608 c 0
 466 585 448 562 423 562 c 0
 403 562 381 577 348 605 c 0
 324 625 294 636 280 636 c 0
 200 636 180 513 180 425 c 2
 180 108 l 1
 180 83 191 52 218 44 c 0
 245 36 261 28 261 18 c 0
 261 8 253 -2 227 -2 c 0
 205 -2 155 4 139 4 c 0
 119 4 72 -2 50 -2 c 0
 24 -2 15 8 15 18 c 0
 15 28 32 36 59 44 c 0
 86 52 97 83 97 108 c 2
 98 362 l 1
 50 362 l 2
EndSplineSet
EndChar

StartChar: n.subs
Encoding: 1114395 -1 1078
Width: 332
Flags: HW
LayerCount: 2
Fore
SplineSet
287 51 m 2
 287 34 300 27 313 24 c 1
 320 21 328 16 328 10 c 0
 328 4 316 0 313 0 c 2
 206 0 l 2
 203 0 191 4 191 10 c 0
 191 16 199 21 206 24 c 1
 219 27 233 34 233 51 c 2
 233 153 l 2
 233 188 207 209 172 209 c 0
 150 209 137 207 120 195 c 0
 111 189 99 176 99 151 c 2
 99 51 l 2
 99 37 110 27 123 24 c 1
 131 21 138 16 138 10 c 0
 138 4 127 0 123 0 c 2
 17 0 l 2
 14 0 2 4 2 10 c 0
 2 16 10 21 17 24 c 1
 30 27 45 36 45 51 c 2
 45 168 l 2
 45 190 39 207 17 212 c 0
 11 213 10 226 16 227 c 0
 50 234 78 249 92 260 c 1
 93 260 l 2
 97 260 105 257 105 255 c 0
 105 249 100 226 100 216 c 0
 100 214 100 212 101 211 c 1
 120 225 165 251 206 251 c 0
 248 251 287 226 287 179 c 2
 287 51 l 2
EndSplineSet
EndChar

StartChar: nine.lnum
Encoding: 1114307 -1 988
Width: 468
VWidth: 982
Flags: HW
HStem: -40 47<22.1799 83.7515> 226 48<193.11 315.72> 559 36<186.925 288.405>
VStem: 41 99<323.393 485.145> 353 99<306.198 490.411>
LayerCount: 2
Back
SplineSet
239 629 m 0
 336 629 431 515 431 400 c 0
 431 275 378 186 287 87 c 0
 214 7 105 -31 35 -31 c 2
 31 -31 l 2
 26 -31 21 -31 21 -26 c 0
 21 -19 28 -13 35 -13 c 0
 95 -13 193 52 257 134 c 0
 321 217 346 292 346 389 c 0
 346 485 279 593 206 593 c 0
 141 593 108 531 108 482 c 0
 108 421 158 357 211 357 c 0
 252 357 266 371 291 383 c 0
 296 385 300 376 298 372 c 0
 291 359 276 345 265 337 c 0
 250 326 210 304 173 304 c 0
 104 304 33 358 33 430 c 0
 33 521 118 629 239 629 c 0
EndSplineSet
Fore
SplineSet
254 595 m 0
 359 595 452 513 452 409 c 0
 452 283 312 50 155 -7 c 8
 113 -22 67 -40 46 -40 c 0
 30 -40 21 -32 21 -22 c 0
 21 -8 33 3 44 7 c 0
 128 38 293 186 316 244 c 0
 319 252 269 226 204 226 c 0
 123 226 41 309 41 401 c 0
 41 512 142 595 254 595 c 0
140 385 m 0
 140 320 199 274 275 274 c 0
 333 274 353 311 353 403 c 0
 353 483 309 559 232 559 c 0
 157 559 140 460 140 385 c 0
EndSplineSet
Substitution2: "'tnum' Tabular Numbers lookup 31 subtable" nine.tablining
Substitution2: "'onum' Minuskelziffern lookup 30 subtable" nine
EndChar
StartChar: numbersign.subs
Encoding: 1114330 -1 1013
Width: 304
Flags: HW
LayerCount: 2
Fore
SplineSet
91 115 m 1
 63 16 l 2
 61 8 43 7 35 7 c 0
 30 7 29 12 30 16 c 2
 57 114 l 1
 20 112 l 2
 15 112 11 115 11 119 c 0
 11 124 13 151 27 152 c 2
 66 154 l 1
 89 240 l 1
 51 238 l 2
 46 238 42 242 42 246 c 0
 42 251 43 277 57 278 c 2
 98 280 l 1
 126 380 l 2
 128 388 146 390 155 390 c 0
 160 390 161 384 160 380 c 2
 133 282 l 1
 198 286 l 1
 226 386 l 2
 228 394 247 397 256 397 c 0
 261 397 261 390 260 386 c 2
 233 288 l 1
 267 290 l 2
 272 290 276 287 276 283 c 0
 276 270 266 251 255 250 c 2
 224 248 l 1
 201 160 l 1
 237 162 l 2
 242 162 246 158 245 154 c 0
 241 141 239 123 225 122 c 2
 191 120 l 1
 164 23 l 2
 162 15 144 14 136 14 c 0
 131 14 128 19 129 23 c 2
 156 119 l 1
 91 115 l 1
101 155 m 1
 164 159 l 1
 188 246 l 1
 123 242 l 1
 101 155 l 1
EndSplineSet
EndChar
StartChar: o.sc
Encoding: 1114727 -1 1434
Width: 560
Flags: MW
AnchorPoint: "below_accent" 285 -80 basechar 0
AnchorPoint: "ogonek" 333 15 basechar 0
AnchorPoint: "cedilla" 311 15 basechar 0
AnchorPoint: "top_accent" 286 630 basechar 0
LayerCount: 2
Fore
SplineSet
289 470 m 0
 414 470 525 381 525 256 c 0
 525 108 404 -10 256 -10 c 0
 134 -10 39 91 39 213 c 0
 39 353 149 470 289 470 c 0
141 254 m 0
 141 152 187 34 289 34 c 0
 380 34 422 140 422 231 c 0
 422 326 361 424 266 424 c 4
 185 424 141 335 141 254 c 0
EndSplineSet
Validated: 1
EndChar
StartChar: oe.sc
Encoding: 1114814 -1 1521
Width: 710
Flags: MW
LayerCount: 2
Fore
SplineSet
372 373 m 0
 344.332 403.406 309 424 266 424 c 0
 185 424 141 335 141 254 c 0
 141 152 187 34 289 34 c 0
 323 34 350.204 48.8221 371 72 c 0
 384.357 86.8862 382 102 382 129 c 2
 382 344 l 2
 382 362 379.403 364.864 372 373 c 0
426 449 m 0
 461 449 574 453 616 453 c 0
 632 453 631 454 637 434 c 0
 640 425 643 395 643 385 c 0
 643 374 639 354 626 354 c 0
 613 354 602 364 593 388 c 0
 590 396 577 406 562 406 c 2
 492 406 l 2
 470 406 468 401 468 382 c 2
 468 296 l 2
 468 276 469 256 484 256 c 2
 534 256 l 2
 578 256 578 296 598 296 c 0
 608 296 610 275 610 229 c 0
 610 184 610 161 596 161 c 0
 577 161 578 205 532 205 c 2
 486 205 l 2
 473 205 468 208 468 172 c 2
 468 104 l 2
 468 81 478 61 503 61 c 2
 587 61 l 2
 607 61 618 92 628 116 c 0
 632 127 643 138 653 138 c 0
 665 138 675 126 675 101 c 0
 675 68 648 -2 631 -2 c 0
 564 -2 493 4 422 4 c 0
 374 4 336 -10 256 -10 c 0
 134 -10 39 91 39 213 c 0
 39 353 149 470 289 470 c 0
 356 470 390 449 426 449 c 0
EndSplineSet
Validated: 33
EndChar
StartChar: omicron.sc
Encoding: 1114224 -1 905
Width: 616
Flags: HW
LayerCount: 2
Fore
SplineSet
296 433 m 0
 184 433 150 332 150 237 c 0
 150 120 206 22 318 22 c 0
 433 22 466 138 466 217 c 0
 466 318 416 433 296 433 c 0
60 222 m 0
 60 345 174 465 302 465 c 0
 435 465 556 362 556 226 c 0
 556 103 466 -15 302 -15 c 0
 169 -15 60 93 60 222 c 0
EndSplineSet
EndChar
StartChar: one.subs
Encoding: 1114259 -1 940
Width: 300
Flags: HW
LayerCount: 2
Fore
SplineSet
167 338 m 0
 169 340 174 342 176 342 c 4
 182 342 186 336 185 328 c 0
 183 314 179 290 179 258 c 2
 179 72 l 2
 179 37 189 35 233 29 c 0
 241 28 245 20 245 13 c 0
 245 6 241 -2 233 -2 c 0
 176 -2 183 1 151 1 c 0
 119 1 123 -2 69 -2 c 0
 62 -2 56 5 56 13 c 0
 56 19 61 29 69 29 c 0
 96 31 127 31 127 72 c 2
 127 222 l 2
 127 249 100 264 74 268 c 0
 66 269 60 276 60 281 c 0
 60 288 65 294 70 295 c 0
 121 300 156 326 167 338 c 0
EndSplineSet
EndChar
StartChar: one.tablining
Encoding: 1114317 -1 998
Width: 362
Flags: MW
LayerCount: 2
Fore
SplineSet
224 129 m 2
 224 93 240 60 274 45 c 0
 296 35 329 30 329 15 c 0
 329 5 308 -1 297 -2 c 0
 290 -2 224 4 176 4 c 0
 129 4 70 -2 63 -2 c 0
 52 -1 30 5 30 15 c 0
 30 30 63 35 85 45 c 0
 119 60 134 93 134 129 c 2
 134 432 l 2
 134 474 86 496 61 498 c 0
 52 499 44 512 44 522 c 0
 44 531 52 545 60 546 c 0
 118 550 175 583 211 608 c 0
 212 609 214 609 216 609 c 0
 222 609 229 605 228 600 c 0
 225 580 224 557 224 529 c 2
 224 129 l 2
EndSplineSet
Validated: 1
Substitution2: "'pnum' Proportionalziffern lookup 36 subtable" one.lnum
Substitution2: "'onum' Minuskelziffern lookup 34 subtable" one.taboldstyle
EndChar
StartChar: one.taboldstyle01
Encoding: 1115027 -1 1997
Width: 283
VWidth: 982
Flags: MW
LayerCount: 2
Fore
SplineSet
104 282 m 2
 104 317 77 338 45 347 c 0
 33 350 23 355 23 367 c 0
 23 378 33 383 44 385 c 0
 98 395 169 423 177 423 c 0
 189 423 187 414 187 399 c 2
 187 108 l 2
 187 83 198 52 225 44 c 0
 252 36 268 28 268 18 c 0
 268 8 260 -2 234 -2 c 0
 212 -2 162 4 146 4 c 0
 126 4 79 -2 57 -2 c 0
 31 -2 22 8 22 18 c 0
 22 28 39 36 66 44 c 0
 93 52 104 83 104 108 c 2
 104 282 l 2
EndSplineSet
Validated: 1
EndChar

StartChar: p.subs
Encoding: 1114397 -1 1080
Width: 321
Flags: HW
LayerCount: 2
Fore
SplineSet
46 -94 m 2
 46 167 l 2
 46 176 37 207 16 211 c 0
 7 213 7 232 16 234 c 0
 49 241 73 250 94 258 c 1
 96 258 l 2
 100 258 107 256 107 252 c 0
 107 244 104 226 104 217 c 0
 104 214 104 213 105 212 c 1
 117 223 158 251 199 251 c 0
 259 251 306 200 306 139 c 0
 306 61 238 1 159 1 c 0
 134 1 109 16 101 24 c 1
 101 -94 l 2
 101 -110 112 -113 125 -117 c 0
 132 -119 140 -126 140 -132 c 0
 140 -138 128 -141 125 -141 c 2
 18 -141 l 2
 15 -141 3 -138 3 -132 c 0
 3 -126 11 -119 18 -117 c 0
 31 -113 46 -110 46 -94 c 2
101 75 m 2
 101 63 115 27 169 27 c 0
 217 27 245 77 245 125 c 0
 245 170 220 217 175 217 c 0
 137 217 101 196 101 153 c 2
 101 75 l 2
EndSplineSet
EndChar
StartChar: paragraph.01
Encoding: 1115033 -1 2001
Width: 672
Flags: MW
LayerCount: 2
Fore
SplineSet
467 532 m 2
 467 546 460 550 449 550 c 0
 427 550 401 543 401 516 c 2
 401 -29 l 2
 401 -53 421 -66 446 -66 c 0
 463 -66 467 -62 467 -46 c 2
 467 532 l 2
499 -122 m 0
 271 -122 47 18 47 246 c 0
 47 472 275 605 500 605 c 0
 549 605 601 602 621 599 c 0
 631 597 636 590 636 581 c 0
 636 572 628 552 620 552 c 0
 614 552 579 556 538 556 c 0
 528 556 520 547 520 538 c 2
 520 -39 l 2
 520 -61 522 -72 540 -72 c 0
 559 -72 602 -70 616 -70 c 0
 626 -70 636 -78 636 -88 c 0
 636 -101 631 -112 618 -115 c 0
 580 -124 510 -122 499 -122 c 0
EndSplineSet
Validated: 33
EndChar
StartChar: paragraph.sc
Encoding: 1115051 -1 2105
Width: 420
Flags: MW
LayerCount: 2
Fore
SplineSet
362 388 m 0
 401.957 384.504 422 374 422 357 c 0
 422 350 401.787 338.431 388 336 c 0
 376.448 333.963 339.65 331 326 331 c 0
 312 331 303 317 303 298 c 2
 303 -45 l 2
 303 -53 308 -92.52 308 -123 c 0
 308 -144 289 -206 234 -206 c 0
 210 -206 188 -177 188 -150 c 0
 188 -132 222.322 -120.678 240 -103 c 0
 254.064 -88.9355 263 -72 263 -51 c 2
 263 24 l 2
 263 35.5557 261 46 246 46 c 0
 140.373 46 49 93 49 213 c 0
 49 324 146.38 394 249 394 c 0
 293.11 394 333.021 390.535 362 388 c 0
EndSplineSet
Validated: 1
EndChar
StartChar: percent.subs
Encoding: 1114332 -1 1015
Width: 477
Flags: HW
LayerCount: 2
Fore
SplineSet
358 193 m 0
 333 193 316 146 316 109 c 0
 316 66 331 6 360 6 c 0
 388 6 400 55 400 94 c 0
 400 135 385 193 358 193 c 0
365 209 m 0
 419 209 446 157 446 106 c 0
 446 50 415 -8 353 -8 c 0
 297 -8 270 45 270 100 c 0
 270 152 306 209 365 209 c 0
119 362 m 0
 94 362 77 315 77 278 c 0
 77 235 93 175 122 175 c 0
 150 175 162 224 162 263 c 0
 162 304 146 362 119 362 c 0
126 378 m 0
 180 378 207 326 207 275 c 0
 207 219 176 161 114 161 c 0
 58 161 32 214 32 269 c 0
 32 321 67 378 126 378 c 0
88 -7 m 2
 356 383 l 2
 362 391 371 393 382 393 c 0
 386 393 391 389 391 385 c 0
 391 384 391 384 390 383 c 2
 122 -7 l 2
 117 -15 109 -16 99 -16 c 0
 94 -16 87 -13 87 -9 c 0
 87 -8 88 -8 88 -7 c 2
EndSplineSet
EndChar

StartChar: period.subs
Encoding: 1114341 -1 1024
Width: 154
Flags: HW
LayerCount: 2
Fore
SplineSet
79 70 m 0
 101 70 118 53 118 31 c 0
 118 9 101 -8 79 -8 c 0
 57 -8 40 9 40 31 c 0
 40 53 57 70 79 70 c 0
EndSplineSet
EndChar

StartChar: plus.subs
Encoding: 1114338 -1 1021
Width: 387
Flags: HW
LayerCount: 2
Fore
SplineSet
217 176 m 2
 217 172 218 172 220 172 c 2
 340 172 l 2
 345 172 349 163 349 159 c 0
 349 146 343 127 328 127 c 2
 220 127 l 2
 218 127 217 127 217 125 c 2
 217 10 l 2
 217 -4 189 -5 183 -5 c 0
 179 -5 170 -2 170 4 c 2
 170 124 l 2
 170 126 169 127 167 127 c 2
 48 127 l 2
 42 127 38 136 38 140 c 0
 38 145 40 172 54 172 c 2
 165 172 l 2
 169 172 170 173 170 177 c 2
 170 274 l 2
 170 288 198 292 202 292 c 0
 207 292 217 291 217 284 c 2
 217 176 l 2
EndSplineSet
EndChar

StartChar: psi.sc
Encoding: 1114232 -1 913
Width: 600
Flags: HW
LayerCount: 2
Fore
SplineSet
337 237 m 2
 337 224 337 221 343 222 c 0
 405 230 430 288 443 332 c 0
 461 392 507 435 540 435 c 0
 561 435 589 420 589 396 c 0
 589 389 581 385 571 385 c 0
 528 385 509 338 501 318 c 0
 467 240 437 208 348 200 c 0
 341 199 337 195 337 185 c 2
 337 79 l 2
 337 43 368 32 403 25 c 0
 414 23 427 19 427 9 c 0
 427 1 414 -3 407 -3 c 0
 368 -3 342 3 300 3 c 0
 258 3 231 -3 192 -3 c 0
 185 -3 172 1 172 9 c 0
 172 19 185 23 196 25 c 0
 231 32 262 43 262 79 c 2
 262 185 l 2
 262 195 258 199 251 200 c 0
 162 208 132 240 98 318 c 0
 90 338 71 385 28 385 c 0
 18 385 10 389 10 396 c 0
 10 420 38 435 59 435 c 0
 92 435 138 392 156 332 c 0
 169 288 194 230 256 222 c 0
 262 221 262 227 262 237 c 2
 262 352 l 2
 262 393 246 415 204 422 c 0
 192 424 180 431 180 441 c 0
 180 449 193 453 200 453 c 0
 239 453 264 448 300 448 c 0
 335 448 360 453 399 453 c 0
 406 453 419 449 419 441 c 0
 419 431 407 424 395 422 c 0
 353 415 337 393 337 352 c 2
 337 237 l 2
EndSplineSet
EndChar

StartChar: q.sc
Encoding: 1114731 -1 1438
Width: 585
Flags: W
HStem: -247 65<712.525 917.597> 424 46<213.92 350.786>
VStem: 39 105<118.354 311.156> 434 103<121.852 326.449>
AnchorPoint: "cedilla" 173 15 basechar 0
AnchorPoint: "ogonek" 195 15 basechar 0
AnchorPoint: "below_accent" 160 -80 basechar 0
AnchorPoint: "top_accent" 160 630 basechar 0
LayerCount: 2
Fore
SplineSet
310 470 m 0
 435 470 537 369 537 244 c 0
 537 146 497.788 29.2281 401 -6 c 0
 393.464 -8.74301 388.359 -15.1797 392 -17 c 0
 522.901 -82.4505 683 -182 857 -182 c 0
 923 -182 942 -161 961 -161 c 0
 970 -161 978 -165 978 -180 c 0
 978 -211 875 -247 806 -247 c 0
 653 -247 489.215 -140.508 290 -68 c 0
 258.05 -56.3713 235.187 -47.0126 207 -28 c 0
 114.977 34.0704 39 97 39 215 c 0
 39 360 168 470 310 470 c 0
144 230 m 0
 144 119 197 1.35931e-14 308 0 c 0
 406 -1.20011e-14 434 117 434 215 c 0
 434 317 383 424 281 424 c 0
 188 424 144 323 144 230 c 0
EndSplineSet
EndChar

StartChar: q.subs
Encoding: 1114398 -1 1081
Width: 350
Flags: HW
LayerCount: 2
Fore
SplineSet
243 230 m 1
 245 237 258 253 263 253 c 0
 271 253 288 251 288 246 c 0
 288 241 282 192 282 177 c 2
 282 -91 l 2
 282 -107 295 -110 308 -114 c 0
 315 -116 323 -125 323 -131 c 0
 323 -137 311 -142 308 -142 c 0
 283 -142 278 -139 255 -139 c 0
 232 -139 227 -142 202 -142 c 0
 199 -142 188 -137 188 -131 c 0
 188 -107 229 -117 229 -91 c 2
 229 -6 l 2
 229 16 224 13 218 9 c 0
 207 2 186 -8 146 -8 c 0
 80 -8 21 41 21 107 c 0
 21 186 91 248 172 248 c 0
 205 248 235 235 243 230 c 1
162 219 m 0
 115 219 82 170 82 123 c 0
 82 70 116 20 167 20 c 0
 203 20 229 48 229 82 c 2
 229 163 l 2
 229 198 205 219 162 219 c 0
EndSplineSet
EndChar

StartChar: question.subs
Encoding: 1114348 -1 1031
Width: 230
Flags: HW
LayerCount: 2
Fore
SplineSet
92 70 m 0
 114 70 131 53 131 31 c 0
 131 9 114 -8 92 -8 c 0
 70 -8 53 9 53 31 c 0
 53 53 70 70 92 70 c 0
70 397 m 0
 142 397 201 308 201 251 c 0
 201 222 187 207 174 200 c 0
 145 186 139 183 118 170 c 0
 100 159 98 141 97 122 c 0
 97 116 93 109 87 109 c 0
 82 109 76 116 73 126 c 0
 69 139 62 151 62 178 c 0
 62 199 88 213 128 232 c 0
 146 240 168 258 168 275 c 0
 168 308 127 333 72 333 c 0
 58 333 44 359 44 375 c 0
 44 386 59 397 70 397 c 0
EndSplineSet
EndChar

StartChar: quotedbl.subs
Encoding: 1114329 -1 1012
Width: 200
Flags: HW
LayerCount: 2
Fore
SplineSet
127 280 m 2
 127 383 l 2
 127 399 154 406 168 406 c 0
 174 406 176 398 176 389 c 0
 176 344 164 304 154 281 c 0
 151 274 141 266 138 266 c 0
 135 266 127 275 127 280 c 2
40 280 m 2
 40 383 l 2
 40 399 67 406 81 406 c 0
 87 406 89 398 89 389 c 0
 89 344 77 304 67 281 c 0
 64 274 54 266 51 266 c 0
 48 266 40 275 40 280 c 2
EndSplineSet
EndChar

StartChar: r.sc
Encoding: 1114732 -1 1439
Width: 590
Flags: W
HStem: -37 68<466.684 550.893> -2 51<38.3252 109.177 209.528 280.675> 183 55<203.922 258.879> 403 52<182.709 296.61> 414 39<34.1293 103.475>
VStem: 116 86<55.2266 183.003 239.523 400.445> 323 94<269.657 377.496>
AnchorPoint: "cedilla" 178 15 basechar 0
AnchorPoint: "below_accent" 282 -80 basechar 0
AnchorPoint: "top_accent" 229 630 basechar 0
LayerCount: 2
Fore
SplineSet
272 455 m 0x36
 347 455 417 407 417 332 c 0
 417 277 383.16 232.977 331 219 c 0
 323.272 216.93 321.34 214.428 329 208 c 0
 402.54 146.292 446.372 52.4902 497 31 c 0xb6
 533.82 15.3708 557 14 557 -2 c 0x66
 557 -25 534 -37 487 -37 c 0xa6
 466 -37 423.87 -26.8701 397 0 c 0
 348.917 48.083 319.845 99.282 272 149 c 0
 256.052 165.573 241 183 217 183 c 0
 205 183 202 187 202 158 c 2
 202 129 l 2
 202 92 200 64 234 49 c 0
 256 39 289 30 289 15 c 0
 289 5 268 -1 257 -2 c 0
 250 -2 204 4 156 4 c 0
 109 4 70 -2 63 -2 c 0
 52 -1 30 5 30 15 c 0
 30 30 63 39 85 49 c 0
 119 64 116 92 116 129 c 2
 116 344 l 2
 116 401 107 398 50 414 c 0
 41 417 34 426 34 435 c 0
 34 447 54 453 69 453 c 0x6e
 108 453 124 448 160 448 c 0
 195 448 235 455 272 455 c 0x36
202 274 m 2
 202 253 212 238 235 238 c 0
 283 238 323 280 323 327 c 0
 323 371.76 282 403 237 403 c 0
 217 403 202 391.322 202 370 c 2
 202 274 l 2
EndSplineSet
EndChar
StartChar: registered.sups
Encoding: 1115075 -1 2146
Width: 337
VWidth: 0
Flags: MW
LayerCount: 2
Fore
SplineSet
160 630 m 28
 112 630 73 591 73 543 c 28
 73 495 112 456 160 456 c 28
 208 456 247 495 247 543 c 28
 247 591 208 630 160 630 c 28
160 650 m 28
 219 650 267 602 267 543 c 28
 267 484 219 436 160 436 c 28
 101 436 53 484 53 543 c 28
 53 602 101 650 160 650 c 28
176 567 m 4
 176 578 168 589 159 589 c 4
 150 589 148 585 148 580 c 6
 148 557 l 6
 148 551 150 551 155 551 c 4
 165 551 176 558 176 567 c 4
107 488 m 6
 106 488 106 490 106 492 c 4
 106 495 106 497 107 497 c 4
 112 499 123 505 123 509 c 6
 123 571 l 6
 123 576 117 582 111 584 c 4
 109 584 107 596 111 597 c 4
 132 602 139 603 159 603 c 4
 185 603 201 590 201 572 c 4
 201 555 186 548 182 547 c 5
 182 547 181 547 181 546 c 4
 181 540 197 508 208 500 c 4
 210 498 219 490 219 488 c 4
 219 485 211 485 207 485 c 4
 182 485 170 510 164 528 c 4
 163 532 156 534 154 534 c 4
 152 534 148 533 148 531 c 6
 148 509 l 6
 148 503 153 500 163 498 c 4
 165 497 165 488 163 488 c 6
 107 488 l 6
EndSplineSet
Validated: 1
EndChar

StartChar: rho.sc
Encoding: 1114226 -1 907
Width: 470
Flags: HW
LayerCount: 2
Fore
SplineSet
195 79 m 2
 195 43 226 32 261 25 c 0
 272 23 285 19 285 9 c 0
 285 1 272 -3 265 -3 c 0
 226 -3 200 3 158 3 c 0
 116 3 89 -3 50 -3 c 0
 43 -3 30 1 30 9 c 0
 30 19 43 23 54 25 c 0
 89 32 120 43 120 79 c 2
 120 352 l 2
 120 393 104 415 62 422 c 0
 50 424 38 431 38 441 c 0
 38 449 51 453 58 453 c 0
 97 453 116 448 151 448 c 0
 179 448 215 453 256 453 c 0
 343 453 425 419 425 331 c 0
 425 241 367 185 277 185 c 0
 263 185 240 193 240 203 c 0
 240 213 262 215 272 215 c 0
 320 215 343 262 343 310 c 0
 343 373 299 424 239 424 c 0
 213 424 195 416 195 395 c 2
 195 79 l 2
EndSplineSet
EndChar
StartChar: s.sc
Encoding: 1114731 -1 1438
Width: 373
Flags: MW
AnchorPoint: "below_accent" 176 -80 basechar 0
AnchorPoint: "cedilla" 220 15 basechar 0
AnchorPoint: "top_accent" 190 630 basechar 0
LayerCount: 2
Fore
SplineSet
213 470 m 0
 249 470 263 458 287 452 c 0
 300 448 310 439 310 431 c 0
 310 402 309 360 294 360 c 0
 287 360 275.359 362.112 266 378 c 0
 253.819 398.679 227 412 194 412 c 0
 164 412 138 391 138 361 c 0
 138 317 173 298 232 268 c 0
 316 225 338 192 338 121 c 0
 338 31 237 -10 148 -10 c 0
 96 -10 56.1303 10.9046 51 25 c 0
 45.3601 40.4955 37 80 37 100 c 0
 37 111 42 117 52 117 c 0
 76 117 104 38 177 38 c 0
 213 38 239 69 239 105 c 0
 239 159 182 187 133 212 c 0
 78 239 43 280 43 341 c 0
 43 424 130 470 213 470 c 0
EndSplineSet
Validated: 1
EndChar

StartChar: s.subs
Encoding: 1114400 -1 1083
Width: 203
Flags: HW
LayerCount: 2
Fore
SplineSet
113 232 m 0
 95 232 80 217 80 199 c 0
 80 182 92 172 106 162 c 2
 149 133 l 2
 173 117 189 100 189 73 c 0
 189 21 132 -4 80 -4 c 0
 56 -4 25 9 21 17 c 0
 17 26 13 40 13 54 c 0
 13 60 43 71 44 64 c 0
 47 41 67 26 90 26 c 0
 109 26 128 39 128 59 c 0
 128 75 122 89 107 99 c 2
 67 126 l 2
 42 142 23 160 23 191 c 0
 23 237 72 263 119 263 c 0
 142 263 172 251 177 239 c 0
 182 228 185 218 185 201 c 0
 185 194 166 190 159 190 c 0
 152 190 150 197 149 202 c 0
 145 220 131 232 113 232 c 0
EndSplineSet
EndChar
StartChar: seven.taboldstyle
Encoding: 1114313 -1 994
Width: 424
VWidth: 982
Flags: MW
LayerCount: 2
Fore
SplineSet
326 418 m 2
 378 418 404 415 404 394 c 0
 404 376 400 370 383 336 c 2
 145 -135 l 2
 122 -181 120 -209 82 -209 c 0
 71 -209 66 -196 66 -179 c 0
 66 -174 75 -154 88 -129 c 2
 297 268 l 2
 301 276 317 305 317 317 c 0
 317 329 315 333 286 333 c 2
 147 333 l 2
 123 333 96 315 89 295 c 0
 84 279 70 267 57 267 c 0
 45 267 42 274 42 295 c 0
 42 305 52 330 60 351 c 8
 72 382 86 418 112 418 c 2
 326 418 l 2
EndSplineSet
Validated: 1
Substitution2: "'pnum' Proportionalziffern lookup 36 subtable" seven
Substitution2: "'lnum' Lining Figures lookup 33 subtable" seven.tablining
EndChar

StartChar: sigma.sc
Encoding: 1114227 -1 908
Width: 515
Flags: HW
LayerCount: 2
Fore
SplineSet
37 443 m 0
 37 451 43 455 47 455 c 0
 56 455 111 448 168 448 c 2
 358 448 l 2
 414 448 430 462 430 462 c 2
 427 462 437 458 439 449 c 0
 445 420 452 377 452 361 c 0
 452 355 450 339 443 339 c 0
 430 339 433 344 424 360 c 0
 409 387 393 413 343 413 c 2
 194 413 l 2
 183 413 177 407 187 397 c 2
 329 250 l 2
 332 246 332 240 328 237 c 2
 156 76 l 2
 150 71 163 66 174 66 c 2
 357 65 l 2
 403 65 435 90 453 121 c 0
 459 130 465 139 473 139 c 0
 480 139 478 118 475 108 c 0
 465 70 454 29 448 12 c 0
 446 6 435 -3 429 -3 c 0
 410 -3 358 1 340 1 c 2
 121 1 l 2
 96 1 66 -4 48 -4 c 0
 37 -4 35 4 35 10 c 0
 35 16 211 167 246 206 c 0
 249 209 249 210 246 213 c 0
 209 257 37 435 37 443 c 0
EndSplineSet
EndChar
StartChar: six.tablining
Encoding: 1114324 -1 1005
Width: 474
VWidth: 982
Flags: HW
HStem: -10 44<205.76 319.011> 316 43<175.821 288.333> 586 20G<371 386>
VStem: 42 100<131.782 289.627> 357 96<110.836 246.5>
LayerCount: 2
Fore
SplineSet
379 606 m 0
 393 606 399 600 399 588 c 0
 399 581 382 563 356 551 c 0
 300 525 194 424 169 348 c 0
 166 339 182 343 186 345 c 0
 191 348 230 359 255 359 c 0
 352 359 453 303 453 208 c 0
 453 92 368 -10 252 -10 c 0
 124 -10 42 115 42 242 c 0
 42 378 193 531 318 590 c 0
 341 601 363 606 379 606 c 0
142 235 m 0
 142 143 175 34 266 34 c 0
 335 34 357 111 357 175 c 0
 357 251 292 316 222 316 c 0
 171 316 142 279 142 235 c 0
EndSplineSet
Substitution2: "'pnum' Proportionalziffern lookup 33 subtable" six.lnum
Substitution2: "'onum' Minuskelziffern lookup 31 subtable" six.taboldstyle
EndChar
StartChar: six.taboldstyle
Encoding: 1114312 -1 993
Width: 474
VWidth: 982
Flags: MW
LayerCount: 2
Fore
SplineSet
367 570 m 0
 381 570 387 564 387 552 c 0
 387 545 370 527 344 515 c 0
 288 489 202 429 177 353 c 0
 174 344 189 348 194 350 c 0
 209 355 232 358 250 358 c 0
 341 358 441 289 441 201 c 0
 441 97 354 -10 246 -10 c 0
 116 -10 42 95 42 230 c 0
 42 364 180 495 306 554 c 0
 329 565 351 570 367 570 c 0
142 198 m 0
 142 126 190 34 260 34 c 0
 330 34 345 122 345 192 c 0
 345 257 280 321 206 321 c 16
 155 321 142 251 142 198 c 0
EndSplineSet
Validated: 1
Substitution2: "'pnum' Proportionalziffern lookup 36 subtable" six
Substitution2: "'lnum' Lining Figures lookup 33 subtable" six.tablining
EndChar
StartChar: slash.subs
Encoding: 1114340 -1 1023
Width: 267
Flags: MW
LayerCount: 2
Fore
SplineSet
20 -28 m 2
 213 389 l 2
 219 401 233 399 246 399 c 0
 251 399 256 394 254 389 c 2
 61 -28 l 2
 56 -39 43 -37 30 -37 c 0
 25 -37 18 -33 20 -28 c 2
EndSplineSet
Validated: 33
EndChar

StartChar: t.subs
Encoding: 1114401 -1 1084
Width: 185
Flags: HW
LayerCount: 2
Fore
SplineSet
179 32 m 0
 179 16 138 -2 103 -2 c 0
 68 -2 33 21 33 56 c 2
 33 199 l 2
 33 210 24 207 10 208 c 0
 7 209 3 224 3 233 c 0
 3 236 4 238 5 239 c 0
 32 249 48 270 57 291 c 0
 59 296 77 301 87 301 c 0
 93 301 95 297 95 296 c 2
 91 254 l 2
 91 249 97 246 105 246 c 2
 171 246 l 2
 174 246 178 243 178 234 c 0
 178 225 174 208 171 208 c 2
 115 208 l 2
 91 208 89 207 89 199 c 2
 89 79 l 2
 89 55 101 34 124 34 c 0
 153 34 162 41 172 48 c 0
 176 51 179 39 179 32 c 0
EndSplineSet
EndChar

StartChar: three.subs
Encoding: 1114261 -1 942
Width: 300
Flags: HW
LayerCount: 2
Fore
SplineSet
112 -6 m 0
 83 -6 46 7 46 35 c 0
 46 50 55 61 64 61 c 0
 70 61 78 56 80 54 c 0
 102 37 116 25 143 25 c 0
 176 25 197 57 197 90 c 0
 197 126 170 155 134 155 c 0
 123 155 107 148 95 148 c 0
 90 148 82 153 82 157 c 0
 82 172 134 187 145 192 c 0
 171 204 188 224 188 253 c 0
 188 278 164 297 139 297 c 0
 109 297 86 284 68 258 c 0
 66 255 63 251 58 251 c 0
 54 251 48 262 48 266 c 0
 48 289 101 337 153 337 c 0
 196 337 239 309 239 266 c 0
 239 229 217 209 184 192 c 0
 180 190 180 187 184 187 c 0
 221 187 254 158 254 121 c 0
 254 47 186 -6 112 -6 c 0
EndSplineSet
EndChar
StartChar: three.tablining
Encoding: 1114321 -1 1002
Width: 460
Flags: HW
HStem: -38 46<134.913 257.656> 282 51<218 279> 530 65<139.424 256.995>
VStem: 48 42<445.182 494.028> 284 92<410.273 502.953> 318 101<100.982 239.205>
LayerCount: 2
Fore
SplineSet
48 472 m 0xf8
 48 507 114 595 241 595 c 0
 307 595 376 560 376 494 c 0xf8
 376 426 341 370 278 339 c 0
 274 337 274 333 279 333 c 0
 356 333 419 272 419 195 c 0
 419 50 292 -38 147 -38 c 0
 109 -38 45 -12 45 8 c 0
 45 30 54 67 77 67 c 0
 89 67 96 63 104 55 c 0
 125 34 160 8 194 8 c 0
 269 8 318 79 318 153 c 0xf4
 318 222 287 282 218 282 c 0
 177 282 158 267 153 267 c 0
 145 267 132 269 132 278 c 0
 132 297 145 312 159 318 c 0
 223 347 284 381 284 452 c 0
 284 498 242 530 198 530 c 0
 134 530 109 500 90 461 c 0
 86 452 82 445 72 445 c 0
 58 445 48 455 48 472 c 0xf8
EndSplineSet
Substitution2: "'pnum' Proportionalziffern lookup 33 subtable" three.lnum
Substitution2: "'onum' Minuskelziffern lookup 31 subtable" three.taboldstyle
EndChar

StartChar: tildecomb.cap
Encoding: 1114137 -1 705
Width: 0
Flags: HW
HStem: 689 21G<17 26> 714 60<42.8323 246.041>
VStem: 5 282
AnchorPoint: "top_accent" 142 705 mark 0
AnchorPoint: "top_stack" 143 706 mark 0
AnchorPoint: "top_stack" 143 820 basemark 0
LayerCount: 2
Fore
SplineSet
202 709 m 0
 177 709 103 714 78 714 c 0
 58 714 31 689 21 689 c 0
 13 689 5 696 5 706 c 0
 5 729 64 774 89 774 c 0
 114 774 183 770 208 770 c 0
 243 770 258 809 270 809 c 0
 280 809 287 802 287 792 c 0
 287 772 229 709 202 709 c 0
EndSplineSet
EndChar
StartChar: tildecomb.stack
Encoding: 1114169 -1 737
Width: 0
Flags: MW
AnchorPoint: "top_stack" 139 473 mark 0
AnchorPoint: "top_stack" 139 600 basemark 0
AnchorPoint: "gravestack" 150 590 basemark 0
AnchorPoint: "acutestack" 155 590 basemark 0
AnchorPoint: "top_accent" 146 572 mark 0
LayerCount: 2
Fore
SplineSet
19 458 m 0
 9 458 5 468 5 478 c 0
 5 488 68 547 93 547 c 0
 118 547 175 531 200 531 c 0
 235 531 249 562 257 562 c 0
 267 562 273 555 273 545 c 0
 273 535 213 470 188 470 c 0
 163 470 101 486 76 486 c 0
 51 486 27 458 19 458 c 0
EndSplineSet
Validated: 1
Substitution2: "Smallcaps1 subtable" tildecomb.stacksc
EndChar

StartChar: tildecomb.stacksc
Encoding: 1114991 -1 1700
Width: 1000
Flags: HW
LayerCount: 2
Fore
SplineSet
19 458 m 0
 9 458 5 468 5 478 c 0
 5 488 68 547 93 547 c 0
 118 547 175 520 200 520 c 0
 235 520 249 553 257 553 c 0
 267 553 273 546 273 536 c 0
 273 526 213 464 188 464 c 0
 163 464 101 490 76 490 c 0
 51 490 27 458 19 458 c 0
EndSplineSet
EndChar
StartChar: u.LATmedi
Encoding: 1114188 -1 821
Width: 474
VWidth: 982
Flags: HW
AnchorPoint: "top_accent" 217 596 basechar 0
AnchorPoint: "ogonek" 377 5 basechar 0
AnchorPoint: "below_accent" 227 -80 basechar 0
LayerCount: 2
Fore
SplineSet
311 324 m 6x5c
 311 341 292 366 264 370 c 4
 252 372 241 378 241 389 c 4
 241 400 256 412 270 414 c 4x6c
 306 419 372 430 382 430 c 4
 394 430 394 422 394 403 c 6
 394 84 l 6
 394 61 400 56 410 56 c 4
 423 56 444 62 452 62 c 4
 457 62 465 53 465 46 c 4
 465 33 455 25 447 21 c 4
 429 12 347 -12 332 -12 c 4x9c
 324 -12 319 -3 318 2 c 4
 315 12 315 26 312 40 c 4
 310 51 302 49 292 41 c 4
 246 6 215 -4 157 -4 c 4
 99 -4 58 60 58 118 c 6
 58 316 l 6
 58 333 55 357 31 366 c 4
 20 370 10 378 10 389 c 4
 10 400 23 408 37 410 c 4
 77 417 119 430 129 430 c 4
 141 430 141 422 141 403 c 6
 141 151 l 6
 141 103 166 58 211 58 c 20
 266 58 311 91 311 135 c 6
 311 324 l 6x5c
EndSplineSet
EndChar
StartChar: u.sc
Encoding: 1114733 -1 1440
Width: 620
Flags: MW
AnchorPoint: "below_accent" 325 -80 basechar 0
AnchorPoint: "cedilla" 360 15 basechar 0
AnchorPoint: "ogonek" 394 15 basechar 0
AnchorPoint: "top_accent" 321 630 basechar 0
LayerCount: 2
Fore
SplineSet
116 344 m 2
 116 401 107 398 50 414 c 0
 41 417 34 426 34 435 c 0
 34 447 54 453 69 453 c 0
 108 453 124 448 160 448 c 0
 195 448 216 453 250 453 c 0
 265 453 285 447 285 435 c 0
 285 426 279 417 270 414 c 0
 213 398 202 401 202 344 c 10
 202 179 l 26
 202 106.163 258 43 330 43 c 0
 414 43 458 96 458 175 c 2
 458 338 l 26
 458 372.729 430 405 407 411 c 0
 393 415 386 426 386 435 c 0
 386 447 406 453 421 453 c 0
 439 453 458 448 479 448 c 0
 499 448 527 453 547 453 c 0
 562 453 582 447 582 435 c 0
 582 426 578 417 565 414 c 0
 517 401 508 377.814 508 342 c 26
 508 204 l 2
 508 85 426 -12 308 -12 c 0
 182 -12 116 93.4131 116 207 c 26
 116 344 l 2
EndSplineSet
Validated: 1
Substitution2: "Single Substitution lookup 42 subtable" u.LATsc
EndChar

StartChar: u.subs
Encoding: 1114402 -1 1085
Width: 325
Flags: HW
LayerCount: 2
Fore
SplineSet
219 -5 m 0
 218 -5 217 -2 217 2 c 0
 217 14 221 37 220 41 c 1
 186 10 153 -1 113 -1 c 0
 71 -1 39 23 39 70 c 2
 39 184 l 2
 39 201 28 211 8 218 c 0
 6 219 3 227 3 231 c 0
 3 236 6 245 9 245 c 0
 44 246 60 251 85 256 c 0
 91 257 100 253 99 247 c 0
 96 228 95 211 95 193 c 2
 95 92 l 2
 95 63 111 37 139 37 c 0
 161 37 168 38 184 49 c 0
 194 56 213 69 213 94 c 2
 213 188 l 2
 213 213 177 216 172 218 c 0
 169 219 166 227 166 231 c 0
 166 235 169 245 172 245 c 0
 238 248 235 253 258 259 c 1
 259 259 l 2
 265 259 278 250 275 245 c 0
 272 241 267 213 267 203 c 2
 267 84 l 2
 267 60 267 42 277 42 c 2
 278 42 l 1
 285 43 310 43 316 44 c 0
 319 45 321 40 321 36 c 0
 321 32 320 20 317 20 c 0
 283 16 254 6 235 -1 c 0
 233 -2 223 -5 219 -5 c 0
EndSplineSet
EndChar
StartChar: underscore.subs
Encoding: 1114378 -1 1061
Width: 325
Flags: MW
LayerCount: 2
Fore
SplineSet
16 -73 m 2
 317 -73 l 2
 321 -73 325 -82 325 -86 c 0
 325 -97 317 -109 305 -109 c 2
 9 -109 l 2
 3 -109 0 -100 0 -96 c 0
 0 -91 5 -73 16 -73 c 2
EndSplineSet
Validated: 1
EndChar

StartChar: uni0302.stack
Encoding: 1114168 -1 736
Width: 0
Flags: HW
HStem: 447 161
VStem: 5 223<451 475>
AnchorPoint: "top_accent" 117 572 mark 0
AnchorPoint: "top_stack" 116 447 mark 0
AnchorPoint: "top_stack" 116 640 basemark 0
AnchorPoint: "gravestack" 9 558 basemark 0
AnchorPoint: "acutestack" 224 558 basemark 0
AnchorPoint: "hookstack" 224 564 basemark 0
LayerCount: 2
Fore
SplineSet
109 520 m 2
 40 460 l 2
 31 453 22 447 14 447 c 0
 5 447 5 451 5 460 c 0
 5 475 94 590 94 590 c 2
 100 598 108 608 116 608 c 0
 124 608 132 598 138 590 c 2
 138 590 228 475 228 460 c 0
 228 451 228 447 219 447 c 0
 211 447 202 452 193 460 c 2
 124 520 l 2
 119 525 114 525 109 520 c 2
EndSplineSet
Substitution2: "Smallcaps subtable" uni0302.stacksc
EndChar
StartChar: uni0302.stacksc
Encoding: 1114990 -1 1699
Width: 1000
Flags: HW
LayerCount: 2
Fore
SplineSet
109 526 m 2
 40 460 l 2
 32 452 22 447 14 447 c 0
 5 447 5 451 5 460 c 0
 5 475 94 590 94 590 c 2
 100 598 108 608 116 608 c 0
 124 608 132 598 138 590 c 2
 138 590 228 475 228 460 c 0
 228 451 228 447 219 447 c 0
 211 447 202 452 193 460 c 2
 124 526 l 2
 119 531 114 531 109 526 c 2
EndSplineSet
EndChar
